{"glyphs":{"0":{"ha":833,"x_min":67,"x_max":767,"o":"m 417 -12 q 156 117 246 -12 q 67 490 67 247 q 156 865 67 738 q 417 992 246 992 q 678 865 589 992 q 767 492 767 738 q 677 117 767 247 q 417 -12 588 -12 m 417 107 q 574 201 522 107 q 625 492 625 294 q 574 781 625 690 q 417 872 524 872 q 260 781 311 872 q 208 492 208 689 q 260 201 208 294 q 417 107 311 107 z "},"1":{"ha":833,"x_min":153,"x_max":747,"o":"m 215 0 q 153 61 153 0 q 215 121 153 121 l 385 121 l 385 814 l 254 731 q 205 722 228 714 q 170 750 182 729 q 163 795 158 771 q 194 836 168 819 l 386 957 q 431 980 410 971 q 472 989 453 989 q 512 975 496 989 q 528 932 528 961 l 528 121 l 683 121 q 747 61 747 121 q 683 0 747 0 l 215 0 z "},"2":{"ha":833,"x_min":85,"x_max":765,"o":"m 182 0 q 111 65 111 0 q 149 140 111 100 l 444 457 q 542 590 513 529 q 572 711 572 650 q 386 869 572 869 q 278 853 331 869 q 176 799 226 836 q 130 787 151 781 q 97 814 108 793 q 88 859 85 835 q 117 901 92 883 q 249 968 174 944 q 401 992 324 992 q 634 922 553 992 q 715 724 715 853 q 673 553 715 636 q 540 375 631 469 l 297 121 l 701 121 q 765 61 765 121 q 701 0 765 0 l 182 0 z "},"3":{"ha":833,"x_min":64,"x_max":742,"o":"m 401 -12 q 242 8 324 -12 q 103 74 161 29 q 69 117 75 92 q 75 162 64 142 q 110 189 86 182 q 163 178 133 196 q 279 126 222 142 q 397 110 336 110 q 549 153 497 110 q 601 276 601 196 q 549 396 601 357 q 399 435 497 435 l 304 435 q 239 496 239 435 q 304 556 239 556 l 385 556 q 523 600 472 556 q 574 722 574 644 q 526 831 574 793 q 392 869 479 869 q 283 854 333 869 q 179 800 233 839 q 131 790 153 783 q 97 816 108 796 q 89 860 85 836 q 119 903 93 885 q 251 969 178 946 q 403 992 324 992 q 632 924 550 992 q 714 738 714 857 q 673 596 714 657 q 560 507 632 535 q 694 422 647 485 q 742 267 742 358 q 651 63 742 138 q 401 -12 560 -12 z "},"4":{"ha":833,"x_min":57,"x_max":801,"o":"m 578 -10 q 525 9 544 -10 q 506 61 506 28 l 506 199 l 133 199 q 78 214 99 199 q 57 260 57 229 q 67 300 57 279 q 99 354 76 321 l 503 942 q 538 977 518 965 q 582 989 557 989 q 630 972 611 989 q 649 918 649 954 l 649 319 l 736 319 q 801 260 801 319 q 736 199 801 199 l 649 199 l 649 61 q 578 -10 649 -10 m 506 319 l 506 756 l 207 319 l 506 319 z "},"5":{"ha":833,"x_min":100,"x_max":774,"o":"m 432 -12 q 277 9 354 -12 q 136 76 200 31 q 105 118 110 93 q 112 163 100 143 q 147 191 124 183 q 197 181 169 199 q 429 110 304 110 q 579 162 525 110 q 633 299 633 214 q 582 442 633 386 q 439 497 531 497 q 340 478 386 497 q 253 417 293 460 q 226 397 242 406 q 192 388 210 388 q 132 444 132 388 l 132 915 q 196 979 132 979 l 661 979 q 725 919 725 979 q 661 858 725 858 l 272 858 l 272 549 q 469 617 350 617 q 631 578 563 617 q 736 469 699 539 q 774 306 774 399 q 732 140 774 211 q 614 28 690 68 q 432 -12 538 -12 z "},"6":{"ha":833,"x_min":81,"x_max":768,"o":"m 451 -12 q 177 114 274 -12 q 81 468 81 240 q 189 856 81 719 q 489 992 297 992 q 616 970 550 992 q 736 906 682 949 q 761 866 758 890 q 753 822 764 842 q 720 794 742 801 q 672 806 699 788 q 578 855 625 840 q 486 869 532 869 q 288 776 357 869 q 219 496 219 682 l 219 440 q 316 573 247 525 q 475 621 385 621 q 627 581 561 621 q 731 470 693 540 q 768 310 768 400 q 728 142 768 215 q 616 28 688 69 q 451 -12 544 -12 m 443 104 q 581 160 528 104 q 633 304 633 215 q 581 449 633 393 q 443 504 528 504 q 306 449 358 504 q 253 304 253 393 q 306 160 253 215 q 443 104 358 104 z "},"7":{"ha":833,"x_min":75,"x_max":753,"o":"m 236 -10 q 180 17 197 -10 q 182 83 163 43 l 588 858 l 139 858 q 75 918 75 858 q 139 979 75 979 l 685 979 q 734 963 715 979 q 753 918 753 947 q 747 875 753 893 q 729 835 740 857 l 317 38 q 236 -10 293 -10 z "},"8":{"ha":833,"x_min":61,"x_max":772,"o":"m 417 -12 q 155 60 249 -12 q 61 261 61 132 q 109 415 61 351 q 235 501 157 478 q 125 591 165 531 q 85 731 85 651 q 175 922 85 853 q 417 992 265 992 q 660 922 569 992 q 750 731 750 853 q 709 590 750 651 q 599 501 668 529 q 725 415 678 478 q 772 261 772 351 q 678 60 772 132 q 417 -12 585 -12 m 417 553 q 562 597 510 553 q 614 717 614 640 q 562 835 614 792 q 417 878 510 878 q 272 835 324 878 q 221 717 221 792 q 272 597 221 640 q 417 553 324 553 m 417 101 q 638 271 638 101 q 417 439 638 439 q 252 397 308 439 q 196 271 196 356 q 417 101 196 101 z "},"9":{"ha":833,"x_min":65,"x_max":753,"o":"m 344 -12 q 217 10 283 -12 q 97 74 151 32 q 72 114 75 90 q 81 158 69 138 q 113 185 92 178 q 161 175 135 192 q 255 125 208 140 q 347 110 301 110 q 545 203 476 110 q 614 483 614 297 l 614 539 q 517 406 586 454 q 358 358 449 358 q 206 399 272 358 q 103 509 140 439 q 65 669 65 579 q 106 837 65 764 q 217 951 146 910 q 382 992 289 992 q 656 865 560 992 q 753 511 753 739 q 644 124 753 260 q 344 -12 536 -12 m 392 476 q 529 532 476 476 q 582 676 582 588 q 529 821 582 765 q 392 876 476 876 q 254 821 307 876 q 201 676 201 765 q 254 532 201 588 q 392 476 307 476 z "},"A":{"ha":1022,"x_min":35,"x_max":989,"o":"m 108 -10 q 51 17 67 -10 q 53 83 35 44 l 429 928 q 464 974 443 960 q 513 989 485 989 q 559 974 538 989 q 594 928 581 960 l 971 83 q 974 17 989 43 q 919 -10 960 -10 q 871 6 889 -10 q 839 53 853 21 l 758 239 l 263 239 l 183 53 q 153 5 169 19 q 108 -10 136 -10 m 510 819 l 314 356 l 710 356 l 513 819 l 510 819 z "},"Á":{"ha":1022,"x_min":35,"x_max":989,"o":"m 108 -10 q 51 17 67 -10 q 53 83 35 44 l 429 928 q 464 974 443 960 q 513 989 485 989 q 559 974 538 989 q 594 928 581 960 l 971 83 q 974 17 989 43 q 919 -10 960 -10 q 871 6 889 -10 q 839 53 853 21 l 758 239 l 263 239 l 183 53 q 153 5 169 19 q 108 -10 136 -10 m 510 819 l 314 356 l 710 356 l 513 819 l 510 819 m 571 1069 q 530 1053 553 1049 q 496 1078 507 1058 q 500 1119 485 1097 l 617 1290 q 657 1317 633 1315 q 700 1305 681 1318 q 724 1271 719 1292 q 711 1229 729 1250 l 571 1069 z "},"Ă":{"ha":1022,"x_min":35,"x_max":989,"o":"m 108 -10 q 51 17 67 -10 q 53 83 35 44 l 429 928 q 464 974 443 960 q 513 989 485 989 q 559 974 538 989 q 594 928 581 960 l 971 83 q 974 17 989 43 q 919 -10 960 -10 q 871 6 889 -10 q 839 53 853 21 l 758 239 l 263 239 l 183 53 q 153 5 169 19 q 108 -10 136 -10 m 510 819 l 314 356 l 710 356 l 513 819 l 510 819 m 513 1056 q 362 1104 426 1056 q 275 1249 297 1153 q 281 1287 269 1272 q 310 1303 293 1301 q 344 1294 332 1306 q 360 1267 356 1282 q 417 1172 374 1200 q 513 1144 461 1144 q 608 1172 564 1144 q 665 1267 651 1200 q 681 1294 669 1282 q 715 1303 693 1306 q 744 1287 732 1301 q 750 1249 756 1272 q 663 1104 728 1153 q 513 1056 599 1056 z "},"Ắ":{"ha":1022,"x_min":35,"x_max":989,"o":"m 108 -10 q 51 17 67 -10 q 53 83 35 44 l 429 928 q 464 974 443 960 q 513 989 485 989 q 559 974 538 989 q 594 928 581 960 l 971 83 q 974 17 989 43 q 919 -10 960 -10 q 871 6 889 -10 q 839 53 853 21 l 758 239 l 263 239 l 183 53 q 153 5 169 19 q 108 -10 136 -10 m 510 819 l 314 356 l 710 356 l 513 819 l 510 819 m 549 1221 q 511 1205 532 1201 q 479 1225 490 1208 q 482 1264 468 1242 l 565 1406 q 603 1434 581 1431 q 644 1426 625 1438 q 669 1393 664 1414 q 656 1349 675 1372 l 549 1221 m 513 1056 q 367 1102 425 1056 q 293 1226 308 1149 q 296 1263 288 1250 q 321 1279 304 1276 q 349 1274 339 1281 q 367 1246 360 1267 q 415 1168 378 1197 q 513 1139 453 1139 q 610 1168 572 1139 q 658 1246 647 1197 q 676 1274 665 1267 q 704 1279 688 1281 q 729 1263 721 1276 q 732 1226 738 1249 q 658 1102 717 1149 q 513 1056 600 1056 z "},"Ặ":{"ha":1022,"x_min":35,"x_max":989,"o":"m 108 -10 q 51 17 67 -10 q 53 83 35 44 l 429 928 q 464 974 443 960 q 513 989 485 989 q 559 974 538 989 q 594 928 581 960 l 971 83 q 974 17 989 43 q 919 -10 960 -10 q 871 6 889 -10 q 839 53 853 21 l 758 239 l 263 239 l 183 53 q 153 5 169 19 q 108 -10 136 -10 m 510 819 l 314 356 l 710 356 l 513 819 l 510 819 m 513 -276 q 435 -200 435 -276 q 513 -125 435 -125 q 592 -200 592 -125 q 513 -276 592 -276 m 513 1056 q 362 1104 426 1056 q 275 1249 297 1153 q 281 1287 269 1272 q 310 1303 293 1301 q 344 1294 332 1306 q 360 1267 356 1282 q 417 1172 374 1200 q 513 1144 461 1144 q 608 1172 564 1144 q 665 1267 651 1200 q 681 1294 669 1282 q 715 1303 693 1306 q 744 1287 732 1301 q 750 1249 756 1272 q 663 1104 728 1153 q 513 1056 599 1056 z "},"Ằ":{"ha":1022,"x_min":35,"x_max":989,"o":"m 108 -10 q 51 17 67 -10 q 53 83 35 44 l 429 928 q 464 974 443 960 q 513 989 485 989 q 559 974 538 989 q 594 928 581 960 l 971 83 q 974 17 989 43 q 919 -10 960 -10 q 871 6 889 -10 q 839 53 853 21 l 758 239 l 263 239 l 183 53 q 153 5 169 19 q 108 -10 136 -10 m 510 819 l 314 356 l 710 356 l 513 819 l 510 819 m 476 1221 l 369 1349 q 356 1393 350 1372 q 381 1426 361 1414 q 422 1434 400 1438 q 460 1406 444 1431 l 543 1264 q 546 1225 557 1242 q 514 1205 535 1208 q 476 1221 493 1201 m 513 1056 q 367 1102 425 1056 q 293 1226 308 1149 q 296 1263 288 1249 q 321 1279 304 1276 q 349 1274 338 1281 q 367 1246 360 1267 q 415 1168 378 1197 q 513 1139 453 1139 q 610 1168 572 1139 q 658 1246 647 1197 q 676 1274 665 1267 q 704 1279 686 1281 q 729 1263 721 1276 q 732 1226 738 1250 q 658 1102 717 1149 q 513 1056 600 1056 z "},"Ẳ":{"ha":1022,"x_min":35,"x_max":989,"o":"m 108 -10 q 51 17 67 -10 q 53 83 35 44 l 429 928 q 464 974 443 960 q 513 989 485 989 q 559 974 538 989 q 594 928 581 960 l 971 83 q 974 17 989 43 q 919 -10 960 -10 q 871 6 889 -10 q 839 53 853 21 l 758 239 l 263 239 l 183 53 q 153 5 169 19 q 108 -10 136 -10 m 510 819 l 314 356 l 710 356 l 513 819 l 510 819 m 540 1215 q 506 1210 524 1206 q 483 1228 489 1215 q 496 1253 478 1240 q 549 1325 549 1289 q 492 1361 549 1361 q 442 1354 467 1361 q 396 1372 404 1346 q 421 1414 386 1401 q 469 1425 444 1422 q 519 1428 493 1428 q 613 1408 579 1428 q 647 1347 647 1388 q 614 1272 647 1306 q 540 1215 581 1238 m 513 1056 q 367 1102 425 1056 q 293 1226 308 1149 q 296 1263 288 1249 q 321 1279 304 1276 q 349 1274 338 1281 q 367 1246 360 1267 q 415 1168 378 1197 q 513 1139 453 1139 q 610 1168 572 1139 q 658 1246 647 1197 q 676 1274 665 1267 q 704 1279 686 1281 q 729 1263 721 1276 q 732 1226 738 1250 q 658 1102 717 1149 q 513 1056 600 1056 z "},"Ẵ":{"ha":1022,"x_min":35,"x_max":989,"o":"m 108 -10 q 51 17 67 -10 q 53 83 35 44 l 429 928 q 464 974 443 960 q 513 989 485 989 q 559 974 538 989 q 594 928 581 960 l 971 83 q 974 17 989 43 q 919 -10 960 -10 q 871 6 889 -10 q 839 53 853 21 l 758 239 l 263 239 l 183 53 q 153 5 169 19 q 108 -10 136 -10 m 510 819 l 314 356 l 710 356 l 513 819 l 510 819 m 321 1278 q 295 1290 304 1278 q 292 1324 286 1303 q 339 1401 304 1375 q 422 1426 374 1426 q 490 1410 460 1426 q 546 1376 519 1393 q 600 1360 572 1360 q 639 1369 622 1360 q 663 1400 656 1378 q 706 1429 674 1432 q 731 1416 722 1428 q 735 1383 740 1404 q 688 1306 722 1332 q 604 1279 653 1279 q 535 1297 565 1279 q 479 1331 506 1314 q 426 1347 453 1347 q 388 1338 404 1347 q 364 1307 371 1328 q 321 1278 353 1275 m 513 1056 q 380 1088 435 1056 q 301 1172 325 1121 q 298 1207 292 1193 q 321 1225 304 1221 q 372 1204 353 1233 q 425 1157 389 1175 q 513 1139 461 1139 q 601 1157 565 1139 q 653 1204 636 1175 q 704 1225 672 1233 q 727 1207 721 1221 q 724 1172 733 1193 q 645 1088 700 1121 q 513 1056 590 1056 z "},"Ǎ":{"ha":1022,"x_min":35,"x_max":989,"o":"m 108 -10 q 51 17 67 -10 q 53 83 35 44 l 429 928 q 464 974 443 960 q 513 989 485 989 q 559 974 538 989 q 594 928 581 960 l 971 83 q 974 17 989 43 q 919 -10 960 -10 q 871 6 889 -10 q 839 53 853 21 l 758 239 l 263 239 l 183 53 q 153 5 169 19 q 108 -10 136 -10 m 510 819 l 314 356 l 710 356 l 513 819 l 510 819 m 513 1049 q 428 1094 460 1049 l 315 1251 q 310 1293 299 1275 q 345 1315 322 1311 q 386 1296 368 1318 l 513 1146 l 639 1296 q 681 1315 658 1318 q 715 1293 704 1311 q 710 1251 726 1275 l 599 1094 q 513 1049 567 1049 z "},"Â":{"ha":1022,"x_min":35,"x_max":989,"o":"m 108 -10 q 51 17 67 -10 q 53 83 35 44 l 429 928 q 464 974 443 960 q 513 989 485 989 q 559 974 538 989 q 594 928 581 960 l 971 83 q 974 17 989 43 q 919 -10 960 -10 q 871 6 889 -10 q 839 53 853 21 l 758 239 l 263 239 l 183 53 q 153 5 169 19 q 108 -10 136 -10 m 510 819 l 314 356 l 710 356 l 513 819 l 510 819 m 386 1069 q 344 1052 367 1049 q 310 1074 321 1056 q 315 1114 299 1092 l 428 1271 q 513 1317 460 1317 q 599 1271 565 1317 l 710 1114 q 715 1074 726 1092 q 681 1052 704 1056 q 639 1069 658 1049 l 513 1218 l 386 1069 z "},"Ấ":{"ha":1022,"x_min":35,"x_max":989,"o":"m 108 -10 q 51 17 67 -10 q 53 83 35 44 l 429 928 q 464 974 443 960 q 513 989 485 989 q 559 974 538 989 q 594 928 581 960 l 971 83 q 974 17 989 43 q 919 -10 960 -10 q 871 6 889 -10 q 839 53 853 21 l 758 239 l 263 239 l 183 53 q 153 5 169 19 q 108 -10 136 -10 m 510 819 l 314 356 l 710 356 l 513 819 l 510 819 m 731 1200 q 698 1185 717 1182 q 669 1203 679 1188 q 672 1243 660 1219 l 764 1403 q 798 1431 778 1428 q 835 1424 818 1435 q 858 1394 853 1413 q 847 1353 864 1375 l 731 1200 m 394 1068 q 354 1049 375 1046 q 324 1069 333 1051 q 329 1111 314 1088 l 429 1258 q 467 1294 446 1285 q 513 1304 488 1304 q 558 1294 538 1304 q 596 1258 579 1285 l 696 1111 q 702 1069 711 1088 q 672 1049 693 1051 q 632 1068 651 1046 l 513 1206 l 394 1068 z "},"Ậ":{"ha":1022,"x_min":35,"x_max":989,"o":"m 108 -10 q 51 17 67 -10 q 53 83 35 44 l 429 928 q 464 974 443 960 q 513 989 485 989 q 559 974 538 989 q 594 928 581 960 l 971 83 q 974 17 989 43 q 919 -10 960 -10 q 871 6 889 -10 q 839 53 853 21 l 758 239 l 263 239 l 183 53 q 153 5 169 19 q 108 -10 136 -10 m 510 819 l 314 356 l 710 356 l 513 819 l 510 819 m 513 -276 q 435 -200 435 -276 q 513 -125 435 -125 q 592 -200 592 -125 q 513 -276 592 -276 m 386 1069 q 344 1052 367 1049 q 310 1074 321 1056 q 315 1114 299 1092 l 428 1271 q 513 1317 460 1317 q 599 1271 565 1317 l 710 1114 q 715 1074 726 1092 q 681 1052 704 1056 q 639 1069 658 1049 l 513 1218 l 386 1069 z "},"Ầ":{"ha":1022,"x_min":35,"x_max":989,"o":"m 108 -10 q 51 17 67 -10 q 53 83 35 44 l 429 928 q 464 974 443 960 q 513 989 485 989 q 559 974 538 989 q 594 928 581 960 l 971 83 q 974 17 989 43 q 919 -10 960 -10 q 871 6 889 -10 q 839 53 853 21 l 758 239 l 263 239 l 183 53 q 153 5 169 19 q 108 -10 136 -10 m 510 819 l 314 356 l 710 356 l 513 819 l 510 819 m 714 1200 l 599 1353 q 587 1394 582 1375 q 609 1424 592 1413 q 647 1431 626 1435 q 682 1403 668 1428 l 774 1243 q 776 1203 786 1219 q 747 1185 767 1188 q 714 1200 728 1182 m 394 1068 q 354 1049 375 1046 q 324 1069 333 1051 q 329 1111 314 1088 l 429 1258 q 467 1294 446 1285 q 513 1304 488 1304 q 558 1294 538 1304 q 596 1258 579 1285 l 696 1111 q 702 1069 711 1088 q 672 1049 693 1051 q 632 1068 651 1046 l 513 1206 l 394 1068 z "},"Ẩ":{"ha":1022,"x_min":35,"x_max":989,"o":"m 108 -10 q 51 17 67 -10 q 53 83 35 44 l 429 928 q 464 974 443 960 q 513 989 485 989 q 559 974 538 989 q 594 928 581 960 l 971 83 q 974 17 989 43 q 919 -10 960 -10 q 871 6 889 -10 q 839 53 853 21 l 758 239 l 263 239 l 183 53 q 153 5 169 19 q 108 -10 136 -10 m 510 819 l 314 356 l 710 356 l 513 819 l 510 819 m 719 1201 q 686 1198 701 1192 q 667 1218 671 1204 q 679 1244 663 1232 q 722 1280 707 1263 q 736 1318 736 1297 q 679 1356 736 1356 q 629 1349 654 1356 q 583 1367 592 1339 q 610 1410 574 1397 q 656 1419 631 1417 q 707 1422 681 1422 q 800 1402 767 1422 q 833 1340 833 1382 q 797 1260 833 1296 q 719 1201 760 1224 m 394 1068 q 354 1049 375 1046 q 324 1069 333 1051 q 329 1111 314 1088 l 429 1258 q 467 1294 446 1285 q 513 1304 488 1304 q 558 1294 538 1304 q 596 1258 579 1285 l 696 1111 q 702 1069 711 1088 q 672 1049 693 1051 q 632 1068 651 1046 l 513 1206 l 394 1068 z "},"Ẫ":{"ha":1022,"x_min":35,"x_max":989,"o":"m 108 -10 q 51 17 67 -10 q 53 83 35 44 l 429 928 q 464 974 443 960 q 513 989 485 989 q 559 974 538 989 q 594 928 581 960 l 971 83 q 974 17 989 43 q 919 -10 960 -10 q 871 6 889 -10 q 839 53 853 21 l 758 239 l 263 239 l 183 53 q 153 5 169 19 q 108 -10 136 -10 m 510 819 l 314 356 l 710 356 l 513 819 l 510 819 m 321 1279 q 295 1292 304 1281 q 292 1325 286 1304 q 339 1403 304 1376 q 422 1429 374 1429 q 490 1412 460 1429 q 546 1378 519 1394 q 600 1361 572 1361 q 639 1371 622 1361 q 663 1401 656 1381 q 706 1432 674 1433 q 731 1418 722 1431 q 735 1385 740 1406 q 688 1308 722 1335 q 604 1282 653 1282 q 535 1299 565 1282 q 479 1332 506 1315 q 426 1349 453 1349 q 388 1340 404 1349 q 364 1310 371 1331 q 321 1279 353 1278 m 385 1061 q 347 1049 365 1044 q 323 1071 329 1054 q 331 1104 317 1088 l 424 1215 q 465 1247 443 1238 q 513 1256 488 1256 q 561 1247 539 1256 q 601 1215 583 1238 l 694 1104 q 702 1071 708 1088 q 678 1049 696 1054 q 640 1061 661 1044 l 513 1172 l 385 1061 z "},"Ȁ":{"ha":1022,"x_min":35,"x_max":989,"o":"m 108 -10 q 51 17 67 -10 q 53 83 35 44 l 429 928 q 464 974 443 960 q 513 989 485 989 q 559 974 538 989 q 594 928 581 960 l 971 83 q 974 17 989 43 q 919 -10 960 -10 q 871 6 889 -10 q 839 53 853 21 l 758 239 l 263 239 l 183 53 q 153 5 169 19 q 108 -10 136 -10 m 510 819 l 314 356 l 710 356 l 513 819 l 510 819 m 375 1068 l 253 1235 q 240 1278 235 1258 q 265 1309 246 1299 q 305 1315 283 1319 q 340 1286 326 1311 l 435 1107 q 436 1069 446 1086 q 408 1051 426 1053 q 375 1068 389 1049 m 560 1071 l 446 1235 q 435 1278 428 1258 q 461 1309 442 1299 q 502 1315 481 1319 q 538 1285 524 1310 l 628 1104 q 626 1068 638 1083 q 595 1051 615 1053 q 560 1071 575 1050 z "},"Ä":{"ha":1022,"x_min":35,"x_max":989,"o":"m 108 -10 q 51 17 67 -10 q 53 83 35 44 l 429 928 q 464 974 443 960 q 513 989 485 989 q 559 974 538 989 q 594 928 581 960 l 971 83 q 974 17 989 43 q 919 -10 960 -10 q 871 6 889 -10 q 839 53 853 21 l 758 239 l 263 239 l 183 53 q 153 5 169 19 q 108 -10 136 -10 m 510 819 l 314 356 l 710 356 l 513 819 l 510 819 m 639 1104 q 564 1179 564 1104 q 639 1251 564 1251 q 713 1179 713 1251 q 639 1104 713 1104 m 388 1104 q 313 1179 313 1104 q 333 1233 313 1214 q 388 1251 353 1251 q 463 1179 463 1251 q 388 1104 463 1104 z "},"Ȧ":{"ha":1022,"x_min":35,"x_max":989,"o":"m 108 -10 q 51 17 67 -10 q 53 83 35 44 l 429 928 q 464 974 443 960 q 513 989 485 989 q 559 974 538 989 q 594 928 581 960 l 971 83 q 974 17 989 43 q 919 -10 960 -10 q 871 6 889 -10 q 839 53 853 21 l 758 239 l 263 239 l 183 53 q 153 5 169 19 q 108 -10 136 -10 m 510 819 l 314 356 l 710 356 l 513 819 l 510 819 m 513 1107 q 435 1182 435 1107 q 513 1257 435 1257 q 590 1182 590 1257 q 513 1107 590 1107 z "},"Ạ":{"ha":1022,"x_min":35,"x_max":989,"o":"m 108 -10 q 51 17 67 -10 q 53 83 35 44 l 429 928 q 464 974 443 960 q 513 989 485 989 q 559 974 538 989 q 594 928 581 960 l 971 83 q 974 17 989 43 q 919 -10 960 -10 q 871 6 889 -10 q 839 53 853 21 l 758 239 l 263 239 l 183 53 q 153 5 169 19 q 108 -10 136 -10 m 510 819 l 314 356 l 710 356 l 513 819 l 510 819 m 513 -276 q 435 -200 435 -276 q 513 -125 435 -125 q 592 -200 592 -125 q 513 -276 592 -276 z "},"À":{"ha":1022,"x_min":35,"x_max":989,"o":"m 108 -10 q 51 17 67 -10 q 53 83 35 44 l 429 928 q 464 974 443 960 q 513 989 485 989 q 559 974 538 989 q 594 928 581 960 l 971 83 q 974 17 989 43 q 919 -10 960 -10 q 871 6 889 -10 q 839 53 853 21 l 758 239 l 263 239 l 183 53 q 153 5 169 19 q 108 -10 136 -10 m 510 819 l 314 356 l 710 356 l 513 819 l 510 819 m 454 1069 l 315 1229 q 301 1271 296 1250 q 326 1305 307 1292 q 369 1317 346 1318 q 410 1290 392 1315 l 526 1119 q 530 1078 542 1097 q 496 1053 518 1058 q 454 1069 474 1049 z "},"Ả":{"ha":1022,"x_min":35,"x_max":989,"o":"m 108 -10 q 51 17 67 -10 q 53 83 35 44 l 429 928 q 464 974 443 960 q 513 989 485 989 q 559 974 538 989 q 594 928 581 960 l 971 83 q 974 17 989 43 q 919 -10 960 -10 q 871 6 889 -10 q 839 53 853 21 l 758 239 l 263 239 l 183 53 q 153 5 169 19 q 108 -10 136 -10 m 510 819 l 314 356 l 710 356 l 513 819 l 510 819 m 513 1053 q 467 1086 467 1053 q 480 1129 467 1113 q 509 1158 493 1146 q 538 1181 525 1169 q 550 1207 550 1192 q 490 1236 550 1236 q 465 1235 479 1236 q 438 1229 450 1233 q 383 1247 393 1218 q 385 1275 379 1263 q 411 1294 390 1288 q 521 1311 456 1311 q 624 1288 586 1311 q 661 1225 661 1265 q 645 1177 661 1194 q 609 1147 629 1160 q 574 1119 589 1133 q 558 1078 558 1104 q 513 1053 558 1053 z "},"Ȃ":{"ha":1022,"x_min":35,"x_max":989,"o":"m 108 -10 q 51 17 67 -10 q 53 83 35 44 l 429 928 q 464 974 443 960 q 513 989 485 989 q 559 974 538 989 q 594 928 581 960 l 971 83 q 974 17 989 43 q 919 -10 960 -10 q 871 6 889 -10 q 839 53 853 21 l 758 239 l 263 239 l 183 53 q 153 5 169 19 q 108 -10 136 -10 m 510 819 l 314 356 l 710 356 l 513 819 l 510 819 m 310 1054 q 281 1071 293 1056 q 275 1110 269 1086 q 362 1253 297 1206 q 513 1301 426 1301 q 663 1253 599 1301 q 750 1110 728 1206 q 744 1071 756 1086 q 715 1054 732 1056 q 681 1064 693 1053 q 665 1090 669 1075 q 607 1186 650 1158 q 513 1214 564 1214 q 418 1186 461 1214 q 360 1090 375 1158 q 344 1064 356 1075 q 310 1054 332 1053 z "},"Ā":{"ha":1022,"x_min":35,"x_max":989,"o":"m 108 -10 q 51 17 67 -10 q 53 83 35 44 l 429 928 q 464 974 443 960 q 513 989 485 989 q 559 974 538 989 q 594 928 581 960 l 971 83 q 974 17 989 43 q 919 -10 960 -10 q 871 6 889 -10 q 839 53 853 21 l 758 239 l 263 239 l 183 53 q 153 5 169 19 q 108 -10 136 -10 m 510 819 l 314 356 l 710 356 l 513 819 l 510 819 m 322 1126 q 275 1169 275 1126 q 322 1214 275 1214 l 704 1214 q 750 1169 750 1214 q 704 1126 750 1126 l 322 1126 z "},"Ą":{"ha":1022,"x_min":35,"x_max":1058,"o":"m 942 -269 q 828 -231 869 -269 q 788 -129 788 -193 q 807 -51 788 -87 q 861 15 826 -14 q 849 32 854 22 q 839 53 844 42 l 758 239 l 263 239 l 183 53 q 153 5 169 19 q 108 -10 136 -10 q 51 17 67 -10 q 51 83 35 44 l 429 928 q 464 974 443 960 q 513 989 485 989 q 559 974 538 989 q 594 928 581 960 l 971 83 q 980 31 983 54 q 957 -1 976 8 q 906 -45 932 -15 q 881 -114 881 -75 q 903 -170 881 -151 q 960 -189 926 -189 q 1006 -182 982 -189 q 1047 -189 1035 -174 q 1053 -226 1058 -204 q 1025 -257 1049 -247 q 983 -267 1004 -264 q 942 -269 961 -269 m 510 819 l 314 356 l 710 356 l 513 819 l 510 819 z "},"Å":{"ha":1022,"x_min":35,"x_max":989,"o":"m 108 -10 q 51 17 67 -10 q 53 83 35 44 l 429 928 q 464 974 443 960 q 513 989 485 989 q 559 974 538 989 q 594 928 581 960 l 971 83 q 974 17 989 43 q 919 -10 960 -10 q 871 6 889 -10 q 839 53 853 21 l 758 239 l 263 239 l 183 53 q 153 5 169 19 q 108 -10 136 -10 m 510 819 l 314 356 l 710 356 l 513 819 l 510 819 m 513 1050 q 392 1099 440 1050 q 343 1217 343 1147 q 392 1333 343 1286 q 513 1381 440 1381 q 633 1333 585 1381 q 682 1217 682 1286 q 633 1099 682 1147 q 513 1050 585 1050 m 513 1119 q 581 1147 554 1119 q 608 1217 608 1175 q 581 1284 608 1257 q 513 1311 554 1311 q 444 1284 471 1311 q 417 1217 417 1257 q 444 1147 417 1175 q 513 1119 471 1119 z "},"Ǻ":{"ha":1022,"x_min":35,"x_max":989,"o":"m 108 -10 q 51 17 67 -10 q 53 83 35 44 l 429 928 q 464 974 443 960 q 513 989 485 989 q 559 974 538 989 q 594 928 581 960 l 971 83 q 974 17 989 43 q 919 -10 960 -10 q 871 6 889 -10 q 839 53 853 21 l 758 239 l 263 239 l 183 53 q 153 5 169 19 q 108 -10 136 -10 m 510 819 l 314 356 l 710 356 l 513 819 l 510 819 m 513 1050 q 396 1097 443 1050 q 349 1211 349 1144 q 396 1325 349 1279 q 513 1371 443 1371 q 603 1346 563 1371 l 701 1438 q 744 1449 722 1457 q 773 1419 765 1440 q 760 1381 781 1399 l 656 1292 q 676 1211 676 1256 q 629 1097 676 1144 q 513 1050 582 1050 m 513 1115 q 581 1142 554 1115 q 608 1211 608 1169 q 581 1279 608 1251 q 513 1307 554 1307 q 444 1279 471 1307 q 417 1211 417 1251 q 444 1142 417 1169 q 513 1115 471 1115 z "},"Ã":{"ha":1022,"x_min":35,"x_max":989,"o":"m 108 -10 q 51 17 67 -10 q 53 83 35 44 l 429 928 q 464 974 443 960 q 513 989 485 989 q 559 974 538 989 q 594 928 581 960 l 971 83 q 974 17 989 43 q 919 -10 960 -10 q 871 6 889 -10 q 839 53 853 21 l 758 239 l 263 239 l 183 53 q 153 5 169 19 q 108 -10 136 -10 m 510 819 l 314 356 l 710 356 l 513 819 l 510 819 m 254 1076 q 225 1088 236 1076 q 218 1122 214 1100 q 278 1238 233 1197 q 389 1279 324 1279 q 460 1265 426 1279 q 525 1231 494 1250 q 584 1196 556 1211 q 640 1181 613 1181 q 699 1201 676 1181 q 729 1257 722 1222 q 771 1289 739 1290 q 800 1276 789 1288 q 807 1243 811 1264 q 747 1126 792 1168 q 638 1085 703 1085 q 565 1100 599 1085 q 501 1135 532 1115 q 441 1169 469 1154 q 385 1185 413 1185 q 326 1163 349 1185 q 296 1108 303 1142 q 254 1076 286 1075 z "},"Æ":{"ha":1371,"x_min":-7,"x_max":1310,"o":"m 65 -10 q 6 18 18 -10 q 15 81 -7 46 l 542 938 q 615 979 565 979 l 1247 979 q 1310 922 1310 979 q 1247 863 1310 863 l 722 863 l 789 556 l 1219 556 q 1281 497 1281 556 q 1219 439 1281 439 l 814 439 l 883 117 l 1247 117 q 1310 58 1310 117 q 1247 0 1310 0 l 835 0 q 767 54 779 0 l 728 239 l 261 239 l 139 36 q 110 1 126 13 q 65 -10 93 -10 m 601 815 l 329 356 l 703 356 l 604 815 l 601 815 z "},"Ǽ":{"ha":1371,"x_min":-7,"x_max":1310,"o":"m 65 -10 q 6 18 18 -10 q 15 81 -7 46 l 542 938 q 615 979 565 979 l 1247 979 q 1310 922 1310 979 q 1247 863 1310 863 l 722 863 l 789 556 l 1219 556 q 1281 497 1281 556 q 1219 439 1281 439 l 814 439 l 883 117 l 1247 117 q 1310 58 1310 117 q 1247 0 1310 0 l 835 0 q 767 54 779 0 l 728 239 l 261 239 l 139 36 q 110 1 126 13 q 65 -10 93 -10 m 601 815 l 329 356 l 703 356 l 604 815 l 601 815 m 735 1069 q 694 1053 717 1049 q 660 1078 671 1058 q 664 1119 649 1097 l 781 1290 q 821 1317 797 1315 q 864 1305 844 1318 q 888 1271 883 1292 q 875 1229 893 1250 l 735 1069 z "},"B":{"ha":947,"x_min":114,"x_max":867,"o":"m 192 0 q 114 78 114 0 l 114 901 q 192 979 114 979 l 522 979 q 759 912 675 979 q 843 724 843 844 q 801 588 843 644 q 688 504 760 531 q 819 422 772 482 q 867 271 867 363 q 780 70 867 140 q 539 0 693 0 l 192 0 m 253 551 l 500 551 q 703 710 703 551 q 500 868 703 868 l 253 868 l 253 551 m 253 111 l 522 111 q 726 276 726 111 q 522 440 726 440 l 253 440 l 253 111 z "},"Ɓ":{"ha":1135,"x_min":0,"x_max":1056,"o":"m 381 0 q 303 78 303 0 l 303 874 l 263 874 q 119 736 119 874 l 119 710 q 105 673 119 690 q 60 656 90 656 q 15 674 29 656 q 0 714 0 692 l 0 742 q 68 919 0 858 q 274 979 136 979 l 711 979 q 948 912 864 979 q 1032 724 1032 844 q 990 588 1032 644 q 876 504 949 531 q 1008 422 961 482 q 1056 271 1056 363 q 969 70 1056 140 q 726 0 882 0 l 381 0 m 442 551 l 688 551 q 892 710 892 551 q 688 868 892 868 l 442 868 l 442 551 m 442 111 l 711 111 q 915 276 915 111 q 711 440 915 440 l 442 440 l 442 111 z "},"C":{"ha":939,"x_min":81,"x_max":883,"o":"m 553 -12 q 299 49 404 -12 q 137 223 193 110 q 81 490 81 336 q 137 757 81 644 q 299 931 193 869 q 553 992 404 992 q 710 969 635 992 q 842 906 786 947 q 877 859 872 886 q 869 810 882 832 q 831 782 856 789 q 775 796 806 775 q 673 847 728 831 q 557 864 618 864 q 315 767 399 864 q 232 490 232 669 q 315 213 232 311 q 557 115 399 115 q 674 132 618 115 q 781 185 731 149 q 835 198 811 204 q 871 171 858 192 q 879 124 883 150 q 850 81 875 99 q 715 11 792 35 q 553 -12 638 -12 z "},"Ć":{"ha":939,"x_min":81,"x_max":883,"o":"m 553 -12 q 299 49 404 -12 q 137 223 193 110 q 81 490 81 336 q 137 757 81 644 q 299 931 193 869 q 553 992 404 992 q 710 969 635 992 q 842 906 786 947 q 877 859 872 886 q 869 810 882 832 q 831 782 856 789 q 775 796 806 775 q 673 847 728 831 q 557 864 618 864 q 315 767 399 864 q 232 490 232 669 q 315 213 232 311 q 557 115 399 115 q 674 132 618 115 q 781 185 731 149 q 835 198 811 204 q 871 171 858 192 q 879 124 883 150 q 850 81 875 99 q 715 11 792 35 q 553 -12 638 -12 m 599 1069 q 558 1053 581 1049 q 524 1078 535 1058 q 528 1119 513 1097 l 644 1290 q 685 1317 661 1315 q 728 1305 708 1318 q 752 1271 747 1292 q 739 1229 757 1250 l 599 1069 z "},"Č":{"ha":939,"x_min":81,"x_max":883,"o":"m 553 -12 q 299 49 404 -12 q 137 223 193 110 q 81 490 81 336 q 137 757 81 644 q 299 931 193 869 q 553 992 404 992 q 710 969 635 992 q 842 906 786 947 q 877 859 872 886 q 869 810 882 832 q 831 782 856 789 q 775 796 806 775 q 673 847 728 831 q 557 864 618 864 q 315 767 399 864 q 232 490 232 669 q 315 213 232 311 q 557 115 399 115 q 674 132 618 115 q 781 185 731 149 q 835 198 811 204 q 871 171 858 192 q 879 124 883 150 q 850 81 875 99 q 715 11 792 35 q 553 -12 638 -12 m 540 1049 q 456 1094 488 1049 l 343 1251 q 338 1293 326 1275 q 373 1315 350 1311 q 414 1296 396 1318 l 540 1146 l 667 1296 q 709 1315 686 1318 q 743 1293 732 1311 q 738 1251 754 1275 l 626 1094 q 540 1049 594 1049 z "},"Ç":{"ha":939,"x_min":81,"x_max":883,"o":"m 553 -12 q 299 49 404 -12 q 137 223 193 110 q 81 490 81 336 q 137 757 81 644 q 299 931 193 869 q 553 992 404 992 q 710 969 635 992 q 842 906 786 947 q 877 859 872 886 q 869 810 882 832 q 831 782 856 789 q 775 796 806 775 q 673 847 728 831 q 557 864 618 864 q 315 767 399 864 q 232 490 232 669 q 315 213 232 311 q 557 115 399 115 q 674 132 618 115 q 781 185 731 149 q 835 198 811 204 q 871 171 858 192 q 879 124 883 150 q 850 81 875 99 q 715 11 792 35 q 553 -12 638 -12 m 542 -269 q 488 -265 515 -269 q 438 -253 460 -261 q 410 -223 413 -243 q 421 -188 407 -203 q 460 -183 435 -174 q 533 -194 490 -194 q 592 -183 571 -194 q 613 -149 613 -171 q 560 -112 613 -112 q 538 -113 549 -112 q 515 -118 528 -114 q 483 -115 494 -124 q 476 -81 472 -107 l 493 28 l 574 28 l 560 -57 q 581 -56 571 -56 q 668 -81 635 -56 q 701 -153 701 -107 q 657 -237 701 -204 q 542 -269 613 -269 z "},"Ḉ":{"ha":939,"x_min":81,"x_max":883,"o":"m 553 -12 q 299 49 404 -12 q 137 223 193 110 q 81 490 81 336 q 137 757 81 644 q 299 931 193 869 q 553 992 404 992 q 710 969 635 992 q 842 906 786 947 q 877 859 872 886 q 869 810 882 832 q 831 782 856 789 q 775 796 806 775 q 673 847 728 831 q 557 864 618 864 q 315 767 399 864 q 232 490 232 669 q 315 213 232 311 q 557 115 399 115 q 674 132 618 115 q 781 185 731 149 q 835 198 811 204 q 871 171 858 192 q 879 124 883 150 q 850 81 875 99 q 715 11 792 35 q 553 -12 638 -12 m 542 -269 q 488 -265 515 -269 q 438 -253 460 -261 q 410 -223 413 -243 q 421 -188 407 -203 q 460 -183 435 -174 q 533 -194 490 -194 q 592 -183 571 -194 q 613 -149 613 -171 q 560 -112 613 -112 q 538 -113 549 -112 q 515 -118 528 -114 q 483 -115 494 -124 q 476 -81 472 -107 l 493 28 l 574 28 l 560 -57 q 581 -56 571 -56 q 668 -81 635 -56 q 701 -153 701 -107 q 657 -237 701 -204 q 542 -269 613 -269 m 599 1069 q 558 1053 581 1049 q 524 1078 535 1058 q 528 1119 513 1097 l 644 1290 q 685 1317 661 1315 q 728 1305 708 1318 q 752 1271 747 1292 q 739 1229 757 1250 l 599 1069 z "},"Ĉ":{"ha":939,"x_min":81,"x_max":883,"o":"m 553 -12 q 299 49 404 -12 q 137 223 193 110 q 81 490 81 336 q 137 757 81 644 q 299 931 193 869 q 553 992 404 992 q 710 969 635 992 q 842 906 786 947 q 877 859 872 886 q 869 810 882 832 q 831 782 856 789 q 775 796 806 775 q 673 847 728 831 q 557 864 618 864 q 315 767 399 864 q 232 490 232 669 q 315 213 232 311 q 557 115 399 115 q 674 132 618 115 q 781 185 731 149 q 835 198 811 204 q 871 171 858 192 q 879 124 883 150 q 850 81 875 99 q 715 11 792 35 q 553 -12 638 -12 m 414 1069 q 372 1052 394 1049 q 338 1074 349 1056 q 343 1114 326 1092 l 456 1271 q 540 1317 488 1317 q 626 1271 593 1317 l 738 1114 q 743 1074 754 1092 q 709 1052 732 1056 q 667 1069 686 1049 l 540 1218 l 414 1069 z "},"Ċ":{"ha":939,"x_min":81,"x_max":883,"o":"m 553 -12 q 299 49 404 -12 q 137 223 193 110 q 81 490 81 336 q 137 757 81 644 q 299 931 193 869 q 553 992 404 992 q 710 969 635 992 q 842 906 786 947 q 877 859 872 886 q 869 810 882 832 q 831 782 856 789 q 775 796 806 775 q 673 847 728 831 q 557 864 618 864 q 315 767 399 864 q 232 490 232 669 q 315 213 232 311 q 557 115 399 115 q 674 132 618 115 q 781 185 731 149 q 835 198 811 204 q 871 171 858 192 q 879 124 883 150 q 850 81 875 99 q 715 11 792 35 q 553 -12 638 -12 m 540 1107 q 463 1182 463 1107 q 540 1257 463 1257 q 618 1182 618 1257 q 540 1107 618 1107 z "},"D":{"ha":1043,"x_min":114,"x_max":964,"o":"m 192 0 q 114 78 114 0 l 114 901 q 192 979 114 979 l 460 979 q 833 853 701 979 q 964 490 964 726 q 833 127 964 254 q 460 0 701 0 l 192 0 m 258 121 l 451 121 q 814 490 814 121 q 451 858 814 858 l 258 858 l 258 121 z "},"Ǆ":{"ha":1851,"x_min":114,"x_max":1831,"o":"m 192 0 q 114 78 114 0 l 114 901 q 192 979 114 979 l 460 979 q 833 853 701 979 q 964 490 964 726 q 833 127 964 254 q 460 0 701 0 l 192 0 m 258 121 l 451 121 q 814 490 814 121 q 451 858 814 858 l 258 858 l 258 121 z "},"Ð":{"ha":1043,"x_min":-17,"x_max":964,"o":"m 192 0 q 114 78 114 0 l 114 901 q 192 979 114 979 l 460 979 q 833 853 701 979 q 964 490 964 726 q 833 127 964 254 q 460 0 701 0 l 192 0 m 258 121 l 451 121 q 814 490 814 121 q 451 858 814 858 l 258 858 l 258 121 m 39 443 q -17 497 -17 443 q 39 550 -17 550 l 482 550 q 538 497 538 550 q 482 443 538 443 l 39 443 z "},"Ď":{"ha":1043,"x_min":114,"x_max":964,"o":"m 192 0 q 114 78 114 0 l 114 901 q 192 979 114 979 l 460 979 q 833 853 701 979 q 964 490 964 726 q 833 127 964 254 q 460 0 701 0 l 192 0 m 258 121 l 451 121 q 814 490 814 121 q 451 858 814 858 l 258 858 l 258 121 m 519 1049 q 435 1094 467 1049 l 322 1251 q 317 1293 306 1275 q 352 1315 329 1311 q 393 1296 375 1318 l 519 1146 l 646 1296 q 688 1315 665 1318 q 722 1293 711 1311 q 717 1251 733 1275 l 606 1094 q 519 1049 574 1049 z "},"Đ":{"ha":1043,"x_min":-17,"x_max":964,"o":"m 192 0 q 114 78 114 0 l 114 901 q 192 979 114 979 l 460 979 q 833 853 701 979 q 964 490 964 726 q 833 127 964 254 q 460 0 701 0 l 192 0 m 258 121 l 451 121 q 814 490 814 121 q 451 858 814 858 l 258 858 l 258 121 m 39 443 q -17 497 -17 443 q 39 550 -17 550 l 482 550 q 538 497 538 550 q 482 443 538 443 l 39 443 z "},"Ḍ":{"ha":1043,"x_min":114,"x_max":964,"o":"m 192 0 q 114 78 114 0 l 114 901 q 192 979 114 979 l 460 979 q 833 853 701 979 q 964 490 964 726 q 833 127 964 254 q 460 0 701 0 l 192 0 m 258 121 l 451 121 q 814 490 814 121 q 451 858 814 858 l 258 858 l 258 121 m 519 -276 q 442 -200 442 -276 q 519 -125 442 -125 q 599 -200 599 -125 q 519 -276 599 -276 z "},"Ɗ":{"ha":1233,"x_min":0,"x_max":1153,"o":"m 381 0 q 303 78 303 0 l 303 874 l 263 874 q 119 736 119 874 l 119 710 q 105 673 119 690 q 60 656 90 656 q 15 674 29 656 q 0 714 0 692 l 0 742 q 67 919 0 858 q 265 979 133 979 l 649 979 q 1022 853 890 979 q 1153 490 1153 726 q 1022 127 1153 254 q 649 0 890 0 l 381 0 m 446 121 l 639 121 q 1003 490 1003 121 q 639 858 1003 858 l 446 858 l 446 121 z "},"Ḏ":{"ha":1043,"x_min":114,"x_max":964,"o":"m 192 0 q 114 78 114 0 l 114 901 q 192 979 114 979 l 460 979 q 833 853 701 979 q 964 490 964 726 q 833 127 964 254 q 460 0 701 0 l 192 0 m 258 121 l 451 121 q 814 490 814 121 q 451 858 814 858 l 258 858 l 258 121 m 350 -222 q 303 -178 303 -222 q 350 -133 303 -133 l 690 -133 q 736 -178 736 -133 q 690 -222 736 -222 l 350 -222 z "},"ǅ":{"ha":1694,"x_min":114,"x_max":1665,"o":"m 192 0 q 114 78 114 0 l 114 901 q 192 979 114 979 l 460 979 q 833 853 701 979 q 964 490 964 726 q 833 127 964 254 q 460 0 701 0 l 192 0 m 258 121 l 451 121 q 814 490 814 121 q 451 858 814 858 l 258 858 l 258 121 z "},"E":{"ha":818,"x_min":114,"x_max":758,"o":"m 192 0 q 114 78 114 0 l 114 901 q 192 979 114 979 l 699 979 q 758 922 758 979 q 699 863 758 863 l 253 863 l 253 556 l 668 556 q 728 497 728 556 q 668 439 728 439 l 253 439 l 253 117 l 699 117 q 758 58 758 117 q 699 0 758 0 l 192 0 z "},"É":{"ha":818,"x_min":114,"x_max":758,"o":"m 192 0 q 114 78 114 0 l 114 901 q 192 979 114 979 l 699 979 q 758 922 758 979 q 699 863 758 863 l 253 863 l 253 556 l 668 556 q 728 497 728 556 q 668 439 728 439 l 253 439 l 253 117 l 699 117 q 758 58 758 117 q 699 0 758 0 l 192 0 m 511 1069 q 470 1053 493 1049 q 436 1078 447 1058 q 440 1119 425 1097 l 557 1290 q 597 1317 574 1315 q 640 1305 621 1318 q 665 1271 660 1292 q 651 1229 669 1250 l 511 1069 z "},"Ĕ":{"ha":818,"x_min":114,"x_max":758,"o":"m 192 0 q 114 78 114 0 l 114 901 q 192 979 114 979 l 699 979 q 758 922 758 979 q 699 863 758 863 l 253 863 l 253 556 l 668 556 q 728 497 728 556 q 668 439 728 439 l 253 439 l 253 117 l 699 117 q 758 58 758 117 q 699 0 758 0 l 192 0 m 453 1056 q 302 1104 367 1056 q 215 1249 238 1153 q 222 1287 210 1272 q 250 1303 233 1301 q 284 1294 272 1306 q 300 1267 296 1282 q 358 1172 314 1200 q 453 1144 401 1144 q 548 1172 504 1144 q 606 1267 592 1200 q 622 1294 610 1282 q 656 1303 633 1306 q 684 1287 672 1301 q 690 1249 696 1272 q 603 1104 668 1153 q 453 1056 539 1056 z "},"Ě":{"ha":818,"x_min":114,"x_max":758,"o":"m 192 0 q 114 78 114 0 l 114 901 q 192 979 114 979 l 699 979 q 758 922 758 979 q 699 863 758 863 l 253 863 l 253 556 l 668 556 q 728 497 728 556 q 668 439 728 439 l 253 439 l 253 117 l 699 117 q 758 58 758 117 q 699 0 758 0 l 192 0 m 453 1049 q 368 1094 400 1049 l 256 1251 q 251 1293 239 1275 q 285 1315 263 1311 q 326 1296 308 1318 l 453 1146 l 579 1296 q 622 1315 599 1318 q 656 1293 644 1311 q 650 1251 667 1275 l 539 1094 q 453 1049 507 1049 z "},"Ȩ":{"ha":818,"x_min":114,"x_max":758,"o":"m 192 0 q 114 78 114 0 l 114 901 q 192 979 114 979 l 699 979 q 758 922 758 979 q 699 863 758 863 l 253 863 l 253 556 l 668 556 q 728 497 728 556 q 668 439 728 439 l 253 439 l 253 117 l 699 117 q 758 58 758 117 q 699 0 758 0 l 192 0 m 456 -269 q 401 -265 429 -269 q 351 -253 374 -261 q 324 -223 326 -243 q 335 -188 321 -203 q 374 -183 349 -174 q 447 -194 404 -194 q 506 -183 485 -194 q 526 -149 526 -171 q 474 -112 526 -112 q 452 -113 463 -112 q 429 -118 442 -114 q 397 -115 408 -124 q 390 -81 386 -107 l 407 28 l 488 28 l 474 -57 q 494 -56 485 -56 q 582 -81 549 -56 q 615 -153 615 -107 q 571 -237 615 -204 q 456 -269 526 -269 z "},"Ḝ":{"ha":818,"x_min":114,"x_max":758,"o":"m 192 0 q 114 78 114 0 l 114 901 q 192 979 114 979 l 699 979 q 758 922 758 979 q 699 863 758 863 l 253 863 l 253 556 l 668 556 q 728 497 728 556 q 668 439 728 439 l 253 439 l 253 117 l 699 117 q 758 58 758 117 q 699 0 758 0 l 192 0 m 456 -269 q 401 -265 429 -269 q 351 -253 374 -261 q 324 -223 326 -243 q 335 -188 321 -203 q 374 -183 349 -174 q 447 -194 404 -194 q 506 -183 485 -194 q 526 -149 526 -171 q 474 -112 526 -112 q 452 -113 463 -112 q 429 -118 442 -114 q 397 -115 408 -124 q 390 -81 386 -107 l 407 28 l 488 28 l 474 -57 q 494 -56 485 -56 q 582 -81 549 -56 q 615 -153 615 -107 q 571 -237 615 -204 q 456 -269 526 -269 m 453 1056 q 302 1104 367 1056 q 215 1249 238 1153 q 222 1287 210 1272 q 250 1303 233 1301 q 284 1294 272 1306 q 300 1267 296 1282 q 358 1172 314 1200 q 453 1144 401 1144 q 548 1172 504 1144 q 606 1267 592 1200 q 622 1294 610 1282 q 656 1303 633 1306 q 684 1287 672 1301 q 690 1249 696 1272 q 603 1104 668 1153 q 453 1056 539 1056 z "},"Ê":{"ha":818,"x_min":114,"x_max":758,"o":"m 192 0 q 114 78 114 0 l 114 901 q 192 979 114 979 l 699 979 q 758 922 758 979 q 699 863 758 863 l 253 863 l 253 556 l 668 556 q 728 497 728 556 q 668 439 728 439 l 253 439 l 253 117 l 699 117 q 758 58 758 117 q 699 0 758 0 l 192 0 m 326 1069 q 284 1052 307 1049 q 250 1074 261 1056 q 256 1114 239 1092 l 368 1271 q 453 1317 400 1317 q 539 1271 506 1317 l 650 1114 q 656 1074 667 1092 q 622 1052 644 1056 q 579 1069 599 1049 l 453 1218 l 326 1069 z "},"Ế":{"ha":818,"x_min":114,"x_max":804,"o":"m 192 0 q 114 78 114 0 l 114 901 q 192 979 114 979 l 699 979 q 758 922 758 979 q 699 863 758 863 l 253 863 l 253 556 l 668 556 q 728 497 728 556 q 668 439 728 439 l 253 439 l 253 117 l 699 117 q 758 58 758 117 q 699 0 758 0 l 192 0 m 671 1200 q 638 1185 657 1182 q 610 1203 619 1188 q 613 1243 600 1219 l 704 1403 q 738 1431 718 1428 q 776 1424 758 1435 q 799 1394 793 1413 q 788 1353 804 1375 l 671 1200 m 335 1068 q 294 1049 315 1046 q 264 1069 274 1051 q 269 1111 254 1088 l 369 1258 q 407 1294 386 1285 q 453 1304 428 1304 q 499 1294 478 1304 q 536 1258 519 1285 l 636 1111 q 642 1069 651 1088 q 613 1049 633 1051 q 572 1068 592 1046 l 453 1206 l 335 1068 z "},"Ệ":{"ha":818,"x_min":114,"x_max":758,"o":"m 192 0 q 114 78 114 0 l 114 901 q 192 979 114 979 l 699 979 q 758 922 758 979 q 699 863 758 863 l 253 863 l 253 556 l 668 556 q 728 497 728 556 q 668 439 728 439 l 253 439 l 253 117 l 699 117 q 758 58 758 117 q 699 0 758 0 l 192 0 m 453 -276 q 375 -200 375 -276 q 453 -125 375 -125 q 532 -200 532 -125 q 453 -276 532 -276 m 326 1069 q 284 1052 307 1049 q 250 1074 261 1056 q 256 1114 239 1092 l 368 1271 q 453 1317 400 1317 q 539 1271 506 1317 l 650 1114 q 656 1074 667 1092 q 622 1052 644 1056 q 579 1069 599 1049 l 453 1218 l 326 1069 z "},"Ề":{"ha":818,"x_min":114,"x_max":758,"o":"m 192 0 q 114 78 114 0 l 114 901 q 192 979 114 979 l 699 979 q 758 922 758 979 q 699 863 758 863 l 253 863 l 253 556 l 668 556 q 728 497 728 556 q 668 439 728 439 l 253 439 l 253 117 l 699 117 q 758 58 758 117 q 699 0 758 0 l 192 0 m 654 1200 l 539 1353 q 527 1394 522 1375 q 549 1424 532 1413 q 588 1431 567 1435 q 622 1403 608 1428 l 714 1243 q 717 1203 726 1219 q 688 1185 707 1188 q 654 1200 668 1182 m 335 1068 q 294 1049 315 1046 q 264 1069 274 1051 q 269 1111 254 1088 l 369 1258 q 407 1294 386 1285 q 453 1304 428 1304 q 499 1294 478 1304 q 536 1258 519 1285 l 636 1111 q 642 1069 651 1088 q 613 1049 633 1051 q 572 1068 592 1046 l 453 1206 l 335 1068 z "},"Ể":{"ha":818,"x_min":114,"x_max":774,"o":"m 192 0 q 114 78 114 0 l 114 901 q 192 979 114 979 l 699 979 q 758 922 758 979 q 699 863 758 863 l 253 863 l 253 556 l 668 556 q 728 497 728 556 q 668 439 728 439 l 253 439 l 253 117 l 699 117 q 758 58 758 117 q 699 0 758 0 l 192 0 m 660 1201 q 626 1198 642 1192 q 607 1218 611 1204 q 619 1244 603 1232 q 662 1280 647 1263 q 676 1318 676 1297 q 619 1356 676 1356 q 569 1349 594 1356 q 524 1367 532 1339 q 550 1410 514 1397 q 596 1419 571 1417 q 647 1422 621 1422 q 740 1402 707 1422 q 774 1340 774 1382 q 737 1260 774 1296 q 660 1201 700 1224 m 335 1068 q 294 1049 315 1046 q 264 1069 274 1051 q 269 1111 254 1088 l 369 1258 q 407 1294 386 1285 q 453 1304 428 1304 q 499 1294 478 1304 q 536 1258 519 1285 l 636 1111 q 642 1069 651 1088 q 613 1049 633 1051 q 572 1068 592 1046 l 453 1206 l 335 1068 z "},"Ễ":{"ha":818,"x_min":114,"x_max":758,"o":"m 192 0 q 114 78 114 0 l 114 901 q 192 979 114 979 l 699 979 q 758 922 758 979 q 699 863 758 863 l 253 863 l 253 556 l 668 556 q 728 497 728 556 q 668 439 728 439 l 253 439 l 253 117 l 699 117 q 758 58 758 117 q 699 0 758 0 l 192 0 m 261 1279 q 235 1292 244 1281 q 232 1325 226 1304 q 279 1403 244 1376 q 363 1429 314 1429 q 430 1412 400 1429 q 486 1378 460 1394 q 540 1361 513 1361 q 579 1371 563 1361 q 603 1401 596 1381 q 646 1432 614 1433 q 672 1418 663 1431 q 675 1385 681 1406 q 628 1308 663 1335 q 544 1282 593 1282 q 476 1299 506 1282 q 419 1332 446 1315 q 367 1349 393 1349 q 328 1340 344 1349 q 304 1310 311 1331 q 261 1279 293 1278 m 325 1061 q 288 1049 306 1044 q 263 1071 269 1054 q 271 1104 257 1088 l 364 1215 q 406 1247 383 1238 q 453 1256 428 1256 q 501 1247 479 1256 q 542 1215 524 1238 l 635 1104 q 642 1071 649 1088 q 619 1049 636 1054 q 581 1061 601 1044 l 453 1172 l 325 1061 z "},"Ȅ":{"ha":818,"x_min":114,"x_max":758,"o":"m 192 0 q 114 78 114 0 l 114 901 q 192 979 114 979 l 699 979 q 758 922 758 979 q 699 863 758 863 l 253 863 l 253 556 l 668 556 q 728 497 728 556 q 668 439 728 439 l 253 439 l 253 117 l 699 117 q 758 58 758 117 q 699 0 758 0 l 192 0 m 315 1068 l 193 1235 q 181 1278 175 1258 q 205 1309 186 1299 q 245 1315 224 1319 q 281 1286 267 1311 l 375 1107 q 376 1069 386 1086 q 348 1051 367 1053 q 315 1068 329 1049 m 500 1071 l 386 1235 q 375 1278 368 1258 q 401 1309 382 1299 q 442 1315 421 1319 q 478 1285 464 1310 l 568 1104 q 567 1068 578 1083 q 535 1051 556 1053 q 500 1071 515 1050 z "},"Ë":{"ha":818,"x_min":114,"x_max":758,"o":"m 192 0 q 114 78 114 0 l 114 901 q 192 979 114 979 l 699 979 q 758 922 758 979 q 699 863 758 863 l 253 863 l 253 556 l 668 556 q 728 497 728 556 q 668 439 728 439 l 253 439 l 253 117 l 699 117 q 758 58 758 117 q 699 0 758 0 l 192 0 m 579 1104 q 504 1179 504 1104 q 579 1251 504 1251 q 653 1179 653 1251 q 579 1104 653 1104 m 328 1104 q 253 1179 253 1104 q 273 1233 253 1214 q 328 1251 293 1251 q 403 1179 403 1251 q 328 1104 403 1104 z "},"Ė":{"ha":818,"x_min":114,"x_max":758,"o":"m 192 0 q 114 78 114 0 l 114 901 q 192 979 114 979 l 699 979 q 758 922 758 979 q 699 863 758 863 l 253 863 l 253 556 l 668 556 q 728 497 728 556 q 668 439 728 439 l 253 439 l 253 117 l 699 117 q 758 58 758 117 q 699 0 758 0 l 192 0 m 453 1107 q 375 1182 375 1107 q 453 1257 375 1257 q 531 1182 531 1257 q 453 1107 531 1107 z "},"Ẹ":{"ha":818,"x_min":114,"x_max":758,"o":"m 192 0 q 114 78 114 0 l 114 901 q 192 979 114 979 l 699 979 q 758 922 758 979 q 699 863 758 863 l 253 863 l 253 556 l 668 556 q 728 497 728 556 q 668 439 728 439 l 253 439 l 253 117 l 699 117 q 758 58 758 117 q 699 0 758 0 l 192 0 m 453 -276 q 375 -200 375 -276 q 453 -125 375 -125 q 532 -200 532 -125 q 453 -276 532 -276 z "},"È":{"ha":818,"x_min":114,"x_max":758,"o":"m 192 0 q 114 78 114 0 l 114 901 q 192 979 114 979 l 699 979 q 758 922 758 979 q 699 863 758 863 l 253 863 l 253 556 l 668 556 q 728 497 728 556 q 668 439 728 439 l 253 439 l 253 117 l 699 117 q 758 58 758 117 q 699 0 758 0 l 192 0 m 394 1069 l 256 1229 q 242 1271 236 1250 q 267 1305 247 1292 q 309 1317 286 1318 q 350 1290 332 1315 l 467 1119 q 470 1078 482 1097 q 436 1053 458 1058 q 394 1069 414 1049 z "},"Ẻ":{"ha":818,"x_min":114,"x_max":758,"o":"m 192 0 q 114 78 114 0 l 114 901 q 192 979 114 979 l 699 979 q 758 922 758 979 q 699 863 758 863 l 253 863 l 253 556 l 668 556 q 728 497 728 556 q 668 439 728 439 l 253 439 l 253 117 l 699 117 q 758 58 758 117 q 699 0 758 0 l 192 0 m 453 1053 q 407 1086 407 1053 q 420 1129 407 1113 q 449 1158 433 1146 q 478 1181 465 1169 q 490 1207 490 1192 q 431 1236 490 1236 q 405 1235 419 1236 q 378 1229 390 1233 q 324 1247 333 1218 q 325 1275 319 1263 q 351 1294 331 1288 q 461 1311 396 1311 q 564 1288 526 1311 q 601 1225 601 1265 q 585 1177 601 1194 q 549 1147 569 1160 q 514 1119 529 1133 q 499 1078 499 1104 q 453 1053 499 1053 z "},"Ȇ":{"ha":818,"x_min":114,"x_max":758,"o":"m 192 0 q 114 78 114 0 l 114 901 q 192 979 114 979 l 699 979 q 758 922 758 979 q 699 863 758 863 l 253 863 l 253 556 l 668 556 q 728 497 728 556 q 668 439 728 439 l 253 439 l 253 117 l 699 117 q 758 58 758 117 q 699 0 758 0 l 192 0 m 250 1054 q 222 1071 233 1056 q 215 1110 210 1086 q 302 1253 238 1206 q 453 1301 367 1301 q 603 1253 539 1301 q 690 1110 668 1206 q 684 1071 696 1086 q 656 1054 672 1056 q 622 1064 633 1053 q 606 1090 610 1075 q 547 1186 590 1158 q 453 1214 504 1214 q 358 1186 401 1214 q 300 1090 315 1158 q 284 1064 296 1075 q 250 1054 272 1053 z "},"Ē":{"ha":818,"x_min":114,"x_max":758,"o":"m 192 0 q 114 78 114 0 l 114 901 q 192 979 114 979 l 699 979 q 758 922 758 979 q 699 863 758 863 l 253 863 l 253 556 l 668 556 q 728 497 728 556 q 668 439 728 439 l 253 439 l 253 117 l 699 117 q 758 58 758 117 q 699 0 758 0 l 192 0 m 263 1126 q 215 1169 215 1126 q 263 1214 215 1214 l 644 1214 q 690 1169 690 1214 q 644 1126 690 1126 l 263 1126 z "},"Ḗ":{"ha":818,"x_min":114,"x_max":758,"o":"m 192 0 q 114 78 114 0 l 114 901 q 192 979 114 979 l 699 979 q 758 922 758 979 q 699 863 758 863 l 253 863 l 253 556 l 668 556 q 728 497 728 556 q 668 439 728 439 l 253 439 l 253 117 l 699 117 q 758 58 758 117 q 699 0 758 0 l 192 0 m 497 1231 q 460 1215 481 1211 q 429 1235 440 1218 q 431 1275 418 1251 l 513 1414 q 551 1444 528 1440 q 593 1436 574 1447 q 619 1405 613 1425 q 606 1363 625 1385 l 497 1231 m 286 1093 q 235 1138 235 1093 q 286 1181 235 1181 l 619 1181 q 671 1138 671 1181 q 619 1093 671 1093 l 286 1093 z "},"Ḕ":{"ha":818,"x_min":114,"x_max":758,"o":"m 192 0 q 114 78 114 0 l 114 901 q 192 979 114 979 l 699 979 q 758 922 758 979 q 699 863 758 863 l 253 863 l 253 556 l 668 556 q 728 497 728 556 q 668 439 728 439 l 253 439 l 253 117 l 699 117 q 758 58 758 117 q 699 0 758 0 l 192 0 m 408 1231 l 300 1363 q 287 1405 281 1385 q 313 1436 293 1425 q 355 1444 332 1447 q 393 1414 378 1440 l 475 1275 q 476 1235 488 1251 q 445 1215 465 1218 q 408 1231 425 1211 m 286 1093 q 235 1138 235 1093 q 286 1181 235 1181 l 619 1181 q 671 1138 671 1181 q 619 1093 671 1093 l 286 1093 z "},"Ę":{"ha":818,"x_min":114,"x_max":779,"o":"m 192 0 q 114 78 114 0 l 114 901 q 192 979 114 979 l 699 979 q 758 922 758 979 q 699 863 758 863 l 253 863 l 253 556 l 668 556 q 728 497 728 556 q 668 439 728 439 l 253 439 l 253 117 l 699 117 q 758 58 758 117 q 699 0 758 0 l 192 0 m 661 -269 q 549 -231 590 -269 q 507 -129 507 -193 q 544 -24 507 -72 q 644 54 581 25 l 689 0 q 628 -44 656 -14 q 601 -114 601 -74 q 624 -170 601 -151 q 681 -189 646 -189 q 725 -182 703 -189 q 767 -189 754 -174 q 774 -226 779 -204 q 746 -257 768 -247 q 703 -267 725 -264 q 661 -269 681 -269 z "},"Ẽ":{"ha":818,"x_min":114,"x_max":758,"o":"m 192 0 q 114 78 114 0 l 114 901 q 192 979 114 979 l 699 979 q 758 922 758 979 q 699 863 758 863 l 253 863 l 253 556 l 668 556 q 728 497 728 556 q 668 439 728 439 l 253 439 l 253 117 l 699 117 q 758 58 758 117 q 699 0 758 0 l 192 0 m 194 1076 q 165 1088 176 1076 q 158 1122 154 1100 q 219 1238 174 1197 q 329 1279 264 1279 q 401 1265 367 1279 q 465 1231 435 1250 q 524 1196 496 1211 q 581 1181 553 1181 q 640 1201 617 1181 q 669 1257 663 1222 q 711 1289 679 1290 q 740 1276 729 1288 q 747 1243 751 1264 q 688 1126 732 1168 q 578 1085 643 1085 q 506 1100 539 1085 q 441 1135 472 1115 q 381 1169 410 1154 q 325 1185 353 1185 q 266 1163 289 1185 q 236 1108 243 1142 q 194 1076 226 1075 z "},"F":{"ha":769,"x_min":114,"x_max":746,"o":"m 190 -10 q 114 67 114 -10 l 114 901 q 192 979 114 979 l 686 979 q 746 922 746 979 q 686 863 746 863 l 258 863 l 258 550 l 658 550 q 718 493 718 550 q 658 433 718 433 l 258 433 l 258 67 q 190 -10 258 -10 z "},"G":{"ha":1015,"x_min":81,"x_max":908,"o":"m 572 -12 q 303 48 413 -12 q 137 221 193 108 q 81 489 81 333 q 138 756 81 643 q 303 931 194 869 q 563 992 411 992 q 726 970 646 992 q 874 900 806 949 q 901 859 897 883 q 892 813 904 835 q 858 784 881 792 q 808 793 836 776 q 694 848 754 831 q 563 865 635 865 q 315 767 400 865 q 231 489 231 669 q 317 208 231 304 q 578 113 404 113 q 788 147 683 113 l 788 410 l 608 410 q 549 465 549 410 q 608 518 549 518 l 849 518 q 908 458 908 518 l 908 108 q 869 40 908 56 q 729 2 810 17 q 572 -12 649 -12 z "},"Ğ":{"ha":1015,"x_min":81,"x_max":908,"o":"m 572 -12 q 303 48 413 -12 q 137 221 193 108 q 81 489 81 333 q 138 756 81 643 q 303 931 194 869 q 563 992 411 992 q 726 970 646 992 q 874 900 806 949 q 901 859 897 883 q 892 813 904 835 q 858 784 881 792 q 808 793 836 776 q 694 848 754 831 q 563 865 635 865 q 315 767 400 865 q 231 489 231 669 q 317 208 231 304 q 578 113 404 113 q 788 147 683 113 l 788 410 l 608 410 q 549 465 549 410 q 608 518 549 518 l 849 518 q 908 458 908 518 l 908 108 q 869 40 908 56 q 729 2 810 17 q 572 -12 649 -12 m 550 1056 q 399 1104 464 1056 q 313 1249 335 1153 q 319 1287 307 1272 q 347 1303 331 1301 q 381 1294 369 1306 q 397 1267 393 1282 q 455 1172 411 1200 q 550 1144 499 1144 q 645 1172 601 1144 q 703 1267 689 1200 q 719 1294 707 1282 q 753 1303 731 1306 q 781 1287 769 1301 q 788 1249 793 1272 q 701 1104 765 1153 q 550 1056 636 1056 z "},"Ǧ":{"ha":1015,"x_min":81,"x_max":908,"o":"m 572 -12 q 303 48 413 -12 q 137 221 193 108 q 81 489 81 333 q 138 756 81 643 q 303 931 194 869 q 563 992 411 992 q 726 970 646 992 q 874 900 806 949 q 901 859 897 883 q 892 813 904 835 q 858 784 881 792 q 808 793 836 776 q 694 848 754 831 q 563 865 635 865 q 315 767 400 865 q 231 489 231 669 q 317 208 231 304 q 578 113 404 113 q 788 147 683 113 l 788 410 l 608 410 q 549 465 549 410 q 608 518 549 518 l 849 518 q 908 458 908 518 l 908 108 q 869 40 908 56 q 729 2 810 17 q 572 -12 649 -12 m 550 1049 q 465 1094 497 1049 l 353 1251 q 348 1293 336 1275 q 383 1315 360 1311 q 424 1296 406 1318 l 550 1146 l 676 1296 q 719 1315 696 1318 q 753 1293 742 1311 q 747 1251 764 1275 l 636 1094 q 550 1049 604 1049 z "},"Ĝ":{"ha":1015,"x_min":81,"x_max":908,"o":"m 572 -12 q 303 48 413 -12 q 137 221 193 108 q 81 489 81 333 q 138 756 81 643 q 303 931 194 869 q 563 992 411 992 q 726 970 646 992 q 874 900 806 949 q 901 859 897 883 q 892 813 904 835 q 858 784 881 792 q 808 793 836 776 q 694 848 754 831 q 563 865 635 865 q 315 767 400 865 q 231 489 231 669 q 317 208 231 304 q 578 113 404 113 q 788 147 683 113 l 788 410 l 608 410 q 549 465 549 410 q 608 518 549 518 l 849 518 q 908 458 908 518 l 908 108 q 869 40 908 56 q 729 2 810 17 q 572 -12 649 -12 m 424 1069 q 381 1052 404 1049 q 347 1074 358 1056 q 353 1114 336 1092 l 465 1271 q 550 1317 497 1317 q 636 1271 603 1317 l 747 1114 q 753 1074 764 1092 q 719 1052 742 1056 q 676 1069 696 1049 l 550 1218 l 424 1069 z "},"Ģ":{"ha":1015,"x_min":81,"x_max":908,"o":"m 572 -12 q 303 48 413 -12 q 137 221 193 108 q 81 489 81 333 q 138 756 81 643 q 303 931 194 869 q 563 992 411 992 q 726 970 646 992 q 874 900 806 949 q 901 859 897 883 q 892 813 904 835 q 858 784 881 792 q 808 793 836 776 q 694 848 754 831 q 563 865 635 865 q 315 767 400 865 q 231 489 231 669 q 317 208 231 304 q 578 113 404 113 q 788 147 683 113 l 788 410 l 608 410 q 549 465 549 410 q 608 518 549 518 l 849 518 q 908 458 908 518 l 908 108 q 869 40 908 56 q 729 2 810 17 q 572 -12 649 -12 m 586 -354 q 549 -372 569 -374 q 521 -353 529 -369 q 529 -311 513 -336 q 557 -246 550 -282 q 478 -172 478 -242 q 499 -119 478 -137 q 558 -100 521 -100 q 640 -187 640 -100 q 627 -274 640 -228 q 586 -354 614 -319 z "},"Ġ":{"ha":1015,"x_min":81,"x_max":908,"o":"m 572 -12 q 303 48 413 -12 q 137 221 193 108 q 81 489 81 333 q 138 756 81 643 q 303 931 194 869 q 563 992 411 992 q 726 970 646 992 q 874 900 806 949 q 901 859 897 883 q 892 813 904 835 q 858 784 881 792 q 808 793 836 776 q 694 848 754 831 q 563 865 635 865 q 315 767 400 865 q 231 489 231 669 q 317 208 231 304 q 578 113 404 113 q 788 147 683 113 l 788 410 l 608 410 q 549 465 549 410 q 608 518 549 518 l 849 518 q 908 458 908 518 l 908 108 q 869 40 908 56 q 729 2 810 17 q 572 -12 649 -12 m 550 1107 q 472 1182 472 1107 q 550 1257 472 1257 q 628 1182 628 1257 q 550 1107 628 1107 z "},"Ḡ":{"ha":1015,"x_min":81,"x_max":908,"o":"m 572 -12 q 303 48 413 -12 q 137 221 193 108 q 81 489 81 333 q 138 756 81 643 q 303 931 194 869 q 563 992 411 992 q 726 970 646 992 q 874 900 806 949 q 901 859 897 883 q 892 813 904 835 q 858 784 881 792 q 808 793 836 776 q 694 848 754 831 q 563 865 635 865 q 315 767 400 865 q 231 489 231 669 q 317 208 231 304 q 578 113 404 113 q 788 147 683 113 l 788 410 l 608 410 q 549 465 549 410 q 608 518 549 518 l 849 518 q 908 458 908 518 l 908 108 q 869 40 908 56 q 729 2 810 17 q 572 -12 649 -12 m 360 1126 q 313 1169 313 1126 q 360 1214 313 1214 l 742 1214 q 788 1169 788 1214 q 742 1126 788 1126 l 360 1126 z "},"H":{"ha":1065,"x_min":114,"x_max":950,"o":"m 186 -10 q 114 64 114 -10 l 114 915 q 186 989 114 989 q 258 915 258 989 l 258 557 l 807 557 l 807 915 q 879 989 807 989 q 950 915 950 989 l 950 64 q 879 -10 950 -10 q 807 64 807 -10 l 807 436 l 258 436 l 258 64 q 186 -10 258 -10 z "},"Ħ":{"ha":1121,"x_min":10,"x_max":1111,"o":"m 215 -10 q 142 64 142 -10 l 142 717 l 67 717 q 10 771 10 717 q 67 824 10 824 l 142 824 l 142 915 q 215 989 142 989 q 286 915 286 989 l 286 824 l 835 824 l 835 915 q 907 989 835 989 q 979 915 979 989 l 979 824 l 1054 824 q 1111 771 1111 824 q 1054 717 1111 717 l 979 717 l 979 64 q 907 -10 979 -10 q 835 64 835 -10 l 835 426 l 286 426 l 286 64 q 215 -10 286 -10 m 286 547 l 835 547 l 835 717 l 286 717 l 286 547 z "},"Ḫ":{"ha":1065,"x_min":114,"x_max":950,"o":"m 186 -10 q 114 64 114 -10 l 114 915 q 186 989 114 989 q 258 915 258 989 l 258 557 l 807 557 l 807 915 q 879 989 807 989 q 950 915 950 989 l 950 64 q 879 -10 950 -10 q 807 64 807 -10 l 807 436 l 258 436 l 258 64 q 186 -10 258 -10 m 533 -299 q 391 -254 449 -299 q 317 -129 333 -210 q 322 -90 311 -104 q 350 -75 332 -76 q 382 -81 369 -72 q 400 -110 394 -89 q 446 -185 411 -158 q 533 -211 481 -211 q 621 -185 586 -211 q 667 -110 656 -158 q 685 -81 672 -89 q 717 -75 697 -72 q 745 -90 735 -76 q 750 -129 756 -104 q 675 -254 732 -210 q 533 -299 618 -299 z "},"Ĥ":{"ha":1065,"x_min":114,"x_max":950,"o":"m 186 -10 q 114 64 114 -10 l 114 915 q 186 989 114 989 q 258 915 258 989 l 258 557 l 807 557 l 807 915 q 879 989 807 989 q 950 915 950 989 l 950 64 q 879 -10 950 -10 q 807 64 807 -10 l 807 436 l 258 436 l 258 64 q 186 -10 258 -10 m 406 1069 q 363 1052 386 1049 q 329 1074 340 1056 q 335 1114 318 1092 l 447 1271 q 532 1317 479 1317 q 618 1271 585 1317 l 729 1114 q 735 1074 746 1092 q 701 1052 724 1056 q 658 1069 678 1049 l 532 1218 l 406 1069 z "},"Ḥ":{"ha":1065,"x_min":114,"x_max":950,"o":"m 186 -10 q 114 64 114 -10 l 114 915 q 186 989 114 989 q 258 915 258 989 l 258 557 l 807 557 l 807 915 q 879 989 807 989 q 950 915 950 989 l 950 64 q 879 -10 950 -10 q 807 64 807 -10 l 807 436 l 258 436 l 258 64 q 186 -10 258 -10 m 533 -276 q 456 -200 456 -276 q 533 -125 456 -125 q 613 -200 613 -125 q 533 -276 613 -276 z "},"I":{"ha":372,"x_min":114,"x_max":258,"o":"m 186 -10 q 114 64 114 -10 l 114 915 q 186 989 114 989 q 258 915 258 989 l 258 64 q 186 -10 258 -10 z "},"Ĳ":{"ha":842,"x_min":114,"x_max":728,"o":"m 186 -10 q 114 64 114 -10 l 114 915 q 186 989 114 989 q 258 915 258 989 l 258 64 q 186 -10 258 -10 m 422 -8 q 372 8 390 -11 q 354 54 354 26 q 367 92 354 75 q 406 110 381 108 l 449 113 q 585 268 585 124 l 585 917 q 656 989 585 989 q 728 917 728 989 l 728 268 q 662 72 728 142 q 469 -6 596 3 l 422 -8 z "},"Í":{"ha":372,"x_min":114,"x_max":403,"o":"m 186 -10 q 114 64 114 -10 l 114 915 q 186 989 114 989 q 258 915 258 989 l 258 64 q 186 -10 258 -10 m 244 1069 q 203 1053 226 1049 q 169 1078 181 1058 q 174 1119 158 1097 l 290 1290 q 331 1317 307 1315 q 374 1305 354 1318 q 398 1271 393 1292 q 385 1229 403 1250 l 244 1069 z "},"Ĭ":{"ha":372,"x_min":-57,"x_max":429,"o":"m 186 -10 q 114 64 114 -10 l 114 915 q 186 989 114 989 q 258 915 258 989 l 258 64 q 186 -10 258 -10 m 186 1056 q 35 1104 100 1056 q -51 1249 -29 1153 q -45 1287 -57 1272 q -17 1303 -33 1301 q 17 1294 6 1306 q 33 1267 29 1282 q 91 1172 47 1200 q 186 1144 135 1144 q 281 1172 238 1144 q 339 1267 325 1200 q 355 1294 343 1282 q 389 1303 367 1306 q 417 1287 406 1301 q 424 1249 429 1272 q 337 1104 401 1153 q 186 1056 272 1056 z "},"Î":{"ha":372,"x_min":-28,"x_max":400,"o":"m 186 -10 q 114 64 114 -10 l 114 915 q 186 989 114 989 q 258 915 258 989 l 258 64 q 186 -10 258 -10 m 60 1069 q 17 1052 40 1049 q -17 1074 -6 1056 q -11 1114 -28 1092 l 101 1271 q 186 1317 133 1317 q 272 1271 239 1317 l 383 1114 q 389 1074 400 1092 q 355 1052 378 1056 q 313 1069 332 1049 l 186 1218 l 60 1069 z "},"Ȉ":{"ha":372,"x_min":-92,"x_max":311,"o":"m 186 -10 q 114 64 114 -10 l 114 915 q 186 989 114 989 q 258 915 258 989 l 258 64 q 186 -10 258 -10 m 49 1068 l -74 1235 q -86 1278 -92 1258 q -62 1309 -81 1299 q -22 1315 -43 1319 q 14 1286 0 1311 l 108 1107 q 110 1069 119 1086 q 81 1051 100 1053 q 49 1068 63 1049 m 233 1071 l 119 1235 q 108 1278 101 1258 q 135 1309 115 1299 q 176 1315 154 1319 q 211 1285 197 1310 l 301 1104 q 300 1068 311 1083 q 269 1051 289 1053 q 233 1071 249 1050 z "},"Ï":{"ha":372,"x_min":-14,"x_max":386,"o":"m 186 -10 q 114 64 114 -10 l 114 915 q 186 989 114 989 q 258 915 258 989 l 258 64 q 186 -10 258 -10 m 313 1104 q 238 1179 238 1104 q 313 1251 238 1251 q 386 1179 386 1251 q 313 1104 386 1104 m 61 1104 q -14 1179 -14 1104 q 6 1233 -14 1214 q 61 1251 26 1251 q 136 1179 136 1251 q 61 1104 136 1104 z "},"Ḯ":{"ha":372,"x_min":-14,"x_max":386,"o":"m 186 -10 q 114 64 114 -10 l 114 915 q 186 989 114 989 q 258 915 258 989 l 258 64 q 186 -10 258 -10 m 231 1231 q 193 1214 214 1211 q 162 1234 172 1217 q 164 1275 151 1251 l 246 1414 q 284 1444 261 1440 q 327 1435 307 1447 q 353 1403 347 1424 q 339 1361 358 1383 l 231 1231 m 61 1065 q -14 1125 -14 1065 q 61 1186 -14 1186 q 136 1125 136 1186 q 61 1065 136 1065 m 313 1065 q 238 1125 238 1065 q 313 1186 238 1186 q 386 1125 386 1186 q 313 1065 386 1065 z "},"İ":{"ha":372,"x_min":108,"x_max":264,"o":"m 186 -10 q 114 64 114 -10 l 114 915 q 186 989 114 989 q 258 915 258 989 l 258 64 q 186 -10 258 -10 m 186 1107 q 108 1182 108 1107 q 186 1257 108 1257 q 264 1182 264 1257 q 186 1107 264 1107 z "},"Ị":{"ha":372,"x_min":108,"x_max":265,"o":"m 186 -10 q 114 64 114 -10 l 114 915 q 186 989 114 989 q 258 915 258 989 l 258 64 q 186 -10 258 -10 m 186 -276 q 108 -200 108 -276 q 186 -125 108 -125 q 265 -200 265 -125 q 186 -276 265 -276 z "},"Ì":{"ha":372,"x_min":-31,"x_max":258,"o":"m 186 -10 q 114 64 114 -10 l 114 915 q 186 989 114 989 q 258 915 258 989 l 258 64 q 186 -10 258 -10 m 128 1069 l -11 1229 q -25 1271 -31 1250 q 0 1305 -19 1292 q 42 1317 19 1318 q 83 1290 65 1315 l 200 1119 q 203 1078 215 1097 q 169 1053 192 1058 q 128 1069 147 1049 z "},"Ỉ":{"ha":372,"x_min":53,"x_max":335,"o":"m 186 -10 q 114 64 114 -10 l 114 915 q 186 989 114 989 q 258 915 258 989 l 258 64 q 186 -10 258 -10 m 186 1053 q 140 1086 140 1053 q 153 1129 140 1113 q 183 1158 167 1146 q 211 1181 199 1169 q 224 1207 224 1192 q 164 1236 224 1236 q 138 1235 153 1236 q 111 1229 124 1233 q 57 1247 67 1218 q 58 1275 53 1263 q 85 1294 64 1288 q 194 1311 129 1311 q 297 1288 260 1311 q 335 1225 335 1265 q 319 1177 335 1194 q 283 1147 303 1160 q 247 1119 263 1133 q 232 1078 232 1104 q 186 1053 232 1053 z "},"Ȋ":{"ha":372,"x_min":-57,"x_max":429,"o":"m 186 -10 q 114 64 114 -10 l 114 915 q 186 989 114 989 q 258 915 258 989 l 258 64 q 186 -10 258 -10 m -17 1054 q -45 1071 -33 1056 q -51 1110 -57 1086 q 35 1253 -29 1206 q 186 1301 100 1301 q 337 1253 272 1301 q 424 1110 401 1206 q 417 1071 429 1086 q 389 1054 406 1056 q 355 1064 367 1053 q 339 1090 343 1075 q 281 1186 324 1158 q 186 1214 238 1214 q 92 1186 135 1214 q 33 1090 49 1158 q 17 1064 29 1075 q -17 1054 6 1053 z "},"Ī":{"ha":372,"x_min":-51,"x_max":424,"o":"m 186 -10 q 114 64 114 -10 l 114 915 q 186 989 114 989 q 258 915 258 989 l 258 64 q 186 -10 258 -10 m -4 1126 q -51 1169 -51 1126 q -4 1214 -51 1214 l 378 1214 q 424 1169 424 1214 q 378 1126 424 1126 l -4 1126 z "},"Į":{"ha":372,"x_min":50,"x_max":321,"o":"m 204 -269 q 91 -231 132 -269 q 50 -129 50 -193 q 71 -47 50 -86 q 128 18 92 -8 q 114 64 114 36 l 114 915 q 186 989 114 989 q 258 915 258 989 l 258 64 q 249 22 258 39 q 224 -3 239 4 q 167 -47 192 -18 q 143 -114 143 -76 q 166 -170 143 -151 q 222 -189 189 -189 q 268 -182 244 -189 q 309 -189 297 -174 q 316 -226 321 -204 q 288 -257 311 -247 q 245 -267 267 -264 q 204 -269 224 -269 z "},"Ĩ":{"ha":372,"x_min":-112,"x_max":485,"o":"m 186 -10 q 114 64 114 -10 l 114 915 q 186 989 114 989 q 258 915 258 989 l 258 64 q 186 -10 258 -10 m -72 1076 q -101 1088 -90 1076 q -108 1122 -112 1100 q -48 1238 -93 1197 q 63 1279 -3 1279 q 134 1265 100 1279 q 199 1231 168 1250 q 258 1196 229 1211 q 314 1181 286 1181 q 373 1201 350 1181 q 403 1257 396 1222 q 444 1289 413 1290 q 474 1276 463 1288 q 481 1243 485 1264 q 421 1126 465 1168 q 311 1085 376 1085 q 239 1100 272 1085 q 174 1135 206 1115 q 115 1169 143 1154 q 58 1185 86 1185 q -1 1163 22 1185 q -31 1108 -24 1142 q -72 1076 -40 1075 z "},"J":{"ha":469,"x_min":-18,"x_max":356,"o":"m 50 -8 q 0 8 18 -11 q -18 54 -18 26 q -5 92 -18 75 q 33 110 8 108 l 76 113 q 213 268 213 124 l 213 917 q 283 989 213 989 q 356 917 356 989 l 356 268 q 290 72 356 142 q 97 -6 224 3 l 50 -8 z "},"Ĵ":{"ha":469,"x_min":-18,"x_max":496,"o":"m 50 -8 q 0 8 18 -11 q -18 54 -18 26 q -5 92 -18 75 q 33 110 8 108 l 76 113 q 213 268 213 124 l 213 917 q 283 989 213 989 q 356 917 356 989 l 356 268 q 290 72 356 142 q 97 -6 224 3 l 50 -8 m 156 1069 q 113 1052 136 1049 q 79 1074 90 1056 q 85 1114 68 1092 l 197 1271 q 282 1317 229 1317 q 368 1271 335 1317 l 479 1114 q 485 1074 496 1092 q 451 1052 474 1056 q 408 1069 428 1049 l 282 1218 l 156 1069 z "},"K":{"ha":893,"x_min":114,"x_max":853,"o":"m 186 -10 q 114 64 114 -10 l 114 917 q 186 989 114 989 q 258 917 258 989 l 258 539 l 261 539 l 688 951 q 769 989 726 989 q 816 973 801 989 q 828 934 831 957 q 804 892 825 911 l 399 506 l 825 96 q 851 47 850 71 q 836 6 853 22 q 789 -10 819 -10 q 744 1 761 -10 q 706 33 726 13 l 261 457 l 258 457 l 258 64 q 186 -10 258 -10 z "},"Ķ":{"ha":893,"x_min":114,"x_max":853,"o":"m 186 -10 q 114 64 114 -10 l 114 917 q 186 989 114 989 q 258 917 258 989 l 258 539 l 261 539 l 688 951 q 769 989 726 989 q 816 973 801 989 q 828 934 831 957 q 804 892 825 911 l 399 506 l 825 96 q 851 47 850 71 q 836 6 853 22 q 789 -10 819 -10 q 744 1 761 -10 q 706 33 726 13 l 261 457 l 258 457 l 258 64 q 186 -10 258 -10 m 475 -354 q 438 -372 458 -374 q 410 -353 418 -369 q 418 -311 401 -336 q 446 -246 439 -282 q 367 -172 367 -242 q 388 -119 367 -137 q 447 -100 410 -100 q 529 -187 529 -100 q 516 -274 529 -228 q 475 -354 503 -319 z "},"L":{"ha":767,"x_min":114,"x_max":753,"o":"m 188 0 q 114 74 114 0 l 114 911 q 186 985 114 985 q 258 911 258 985 l 258 124 l 689 124 q 753 63 753 124 q 689 0 753 0 l 188 0 z "},"Ǉ":{"ha":1290,"x_min":114,"x_max":1178,"o":"m 188 0 q 114 74 114 0 l 114 911 q 186 985 114 985 q 258 911 258 985 l 258 124 l 689 124 q 753 63 753 124 q 689 0 753 0 l 188 0 m 872 -8 q 822 8 840 -11 q 804 54 804 26 q 817 92 804 75 q 856 110 831 108 l 899 113 q 1035 268 1035 124 l 1035 917 q 1106 989 1035 989 q 1178 917 1178 989 l 1178 268 q 1112 72 1178 142 q 919 -6 1046 3 l 872 -8 z "},"Ĺ":{"ha":767,"x_min":114,"x_max":753,"o":"m 188 0 q 114 74 114 0 l 114 911 q 186 985 114 985 q 258 911 258 985 l 258 124 l 689 124 q 753 63 753 124 q 689 0 753 0 l 188 0 m 244 1069 q 203 1053 226 1049 q 169 1078 181 1058 q 174 1119 158 1097 l 290 1290 q 331 1317 307 1315 q 374 1305 354 1318 q 398 1271 393 1292 q 385 1229 403 1250 l 244 1069 z "},"Ľ":{"ha":767,"x_min":114,"x_max":753,"o":"m 188 0 q 114 74 114 0 l 114 911 q 186 985 114 985 q 258 911 258 985 l 258 124 l 689 124 q 753 63 753 124 q 689 0 753 0 l 188 0 m 454 651 q 411 696 411 651 l 411 931 q 469 989 411 989 q 522 929 526 989 l 500 694 q 454 651 496 651 z "},"Ļ":{"ha":767,"x_min":114,"x_max":753,"o":"m 188 0 q 114 74 114 0 l 114 911 q 186 985 114 985 q 258 911 258 985 l 258 124 l 689 124 q 753 63 753 124 q 689 0 753 0 l 188 0 m 456 -354 q 419 -372 439 -374 q 390 -353 399 -369 q 399 -311 382 -336 q 426 -246 419 -282 q 347 -172 347 -242 q 369 -119 347 -137 q 428 -100 390 -100 q 510 -187 510 -100 q 497 -274 510 -228 q 456 -354 483 -319 z "},"Ŀ":{"ha":767,"x_min":114,"x_max":753,"o":"m 188 0 q 114 74 114 0 l 114 911 q 186 985 114 985 q 258 911 258 985 l 258 124 l 689 124 q 753 63 753 124 q 689 0 753 0 l 188 0 m 574 456 q 509 481 533 456 q 485 543 485 506 q 509 608 485 583 q 574 632 533 632 q 638 608 614 632 q 661 543 661 583 q 638 481 661 506 q 574 456 614 456 z "},"Ḷ":{"ha":767,"x_min":114,"x_max":753,"o":"m 188 0 q 114 74 114 0 l 114 911 q 186 985 114 985 q 258 911 258 985 l 258 124 l 689 124 q 753 63 753 124 q 689 0 753 0 l 188 0 m 429 -276 q 351 -200 351 -276 q 429 -125 351 -125 q 508 -200 508 -125 q 429 -276 508 -276 z "},"ǈ":{"ha":1108,"x_min":114,"x_max":1026,"o":"m 188 0 q 114 74 114 0 l 114 911 q 186 985 114 985 q 258 911 258 985 l 258 124 l 689 124 q 753 63 753 124 q 689 0 753 0 l 188 0 m 940 829 q 876 850 899 829 q 853 908 853 871 q 940 988 853 988 q 1026 908 1026 988 q 940 829 1026 829 m 757 -264 q 708 -251 725 -265 q 690 -215 692 -236 q 699 -178 688 -194 q 735 -158 710 -161 q 837 -121 804 -154 q 869 -15 869 -87 l 869 617 q 940 688 869 688 q 1010 617 1010 688 l 1010 -4 q 947 -196 1010 -135 q 757 -264 883 -257 z "},"Ḻ":{"ha":767,"x_min":114,"x_max":753,"o":"m 188 0 q 114 74 114 0 l 114 911 q 186 985 114 985 q 258 911 258 985 l 258 124 l 689 124 q 753 63 753 124 q 689 0 753 0 l 188 0 m 260 -222 q 213 -178 213 -222 q 260 -133 213 -133 l 600 -133 q 646 -178 646 -133 q 600 -222 646 -222 l 260 -222 z "},"Ł":{"ha":767,"x_min":-40,"x_max":753,"o":"m 188 0 q 114 74 114 0 l 114 911 q 186 985 114 985 q 258 911 258 985 l 258 124 l 689 124 q 753 63 753 124 q 689 0 753 0 l 188 0 m 51 360 q 3 351 25 344 q -29 378 -18 358 q -35 419 -40 397 q -3 458 -31 442 l 447 717 q 495 725 474 732 q 528 699 517 718 q 533 656 539 679 q 501 618 528 633 l 51 360 z "},"M":{"ha":1196,"x_min":117,"x_max":1079,"o":"m 183 -10 q 117 58 117 -10 l 117 921 q 183 989 117 989 q 228 978 213 989 q 258 942 244 967 l 600 303 l 942 942 q 972 978 956 967 q 1015 989 988 989 q 1079 921 1079 989 l 1079 58 q 1015 -10 1079 -10 q 950 58 950 -10 l 950 717 l 658 179 q 635 149 647 158 q 600 139 622 139 q 563 149 576 139 q 539 179 550 160 l 247 715 l 247 58 q 183 -10 247 -10 z "},"Ṃ":{"ha":1196,"x_min":117,"x_max":1079,"o":"m 183 -10 q 117 58 117 -10 l 117 921 q 183 989 117 989 q 228 978 213 989 q 258 942 244 967 l 600 303 l 942 942 q 972 978 956 967 q 1015 989 988 989 q 1079 921 1079 989 l 1079 58 q 1015 -10 1079 -10 q 950 58 950 -10 l 950 717 l 658 179 q 635 149 647 158 q 600 139 622 139 q 563 149 576 139 q 539 179 550 160 l 247 715 l 247 58 q 183 -10 247 -10 m 599 -276 q 521 -200 521 -276 q 599 -125 521 -125 q 678 -200 678 -125 q 599 -276 678 -276 z "},"N":{"ha":1032,"x_min":114,"x_max":918,"o":"m 182 -10 q 114 60 114 -10 l 114 917 q 131 970 114 951 q 178 989 149 989 q 217 980 203 989 q 247 947 231 971 l 785 239 l 785 921 q 851 989 785 989 q 918 921 918 989 l 918 58 q 902 8 918 26 q 860 -10 886 -10 q 818 0 833 -10 q 785 33 803 10 l 247 743 l 247 60 q 182 -10 247 -10 z "},"Ǌ":{"ha":1501,"x_min":114,"x_max":1388,"o":"m 182 -10 q 114 60 114 -10 l 114 917 q 131 970 114 951 q 178 989 149 989 q 217 980 203 989 q 247 947 231 971 l 785 239 l 785 921 q 851 989 785 989 q 918 921 918 989 l 918 58 q 902 8 918 26 q 860 -10 886 -10 q 818 0 833 -10 q 785 33 803 10 l 247 743 l 247 60 q 182 -10 247 -10 m 1082 -8 q 1032 8 1050 -11 q 1014 54 1014 26 q 1027 92 1014 75 q 1065 110 1040 108 l 1108 113 q 1244 268 1244 124 l 1244 917 q 1315 989 1244 989 q 1388 917 1388 989 l 1388 268 q 1322 72 1388 142 q 1129 -6 1256 3 l 1082 -8 z "},"Ń":{"ha":1032,"x_min":114,"x_max":918,"o":"m 182 -10 q 114 60 114 -10 l 114 917 q 131 970 114 951 q 178 989 149 989 q 217 980 203 989 q 247 947 231 971 l 785 239 l 785 921 q 851 989 785 989 q 918 921 918 989 l 918 58 q 902 8 918 26 q 860 -10 886 -10 q 818 0 833 -10 q 785 33 803 10 l 247 743 l 247 60 q 182 -10 247 -10 m 575 1069 q 534 1053 557 1049 q 500 1078 511 1058 q 504 1119 489 1097 l 621 1290 q 661 1317 638 1315 q 704 1305 685 1318 q 728 1271 724 1292 q 715 1229 733 1250 l 575 1069 z "},"Ň":{"ha":1032,"x_min":114,"x_max":918,"o":"m 182 -10 q 114 60 114 -10 l 114 917 q 131 970 114 951 q 178 989 149 989 q 217 980 203 989 q 247 947 231 971 l 785 239 l 785 921 q 851 989 785 989 q 918 921 918 989 l 918 58 q 902 8 918 26 q 860 -10 886 -10 q 818 0 833 -10 q 785 33 803 10 l 247 743 l 247 60 q 182 -10 247 -10 m 517 1049 q 432 1094 464 1049 l 319 1251 q 315 1293 303 1275 q 349 1315 326 1311 q 390 1296 372 1318 l 517 1146 l 643 1296 q 685 1315 663 1318 q 719 1293 708 1311 q 714 1251 731 1275 l 603 1094 q 517 1049 571 1049 z "},"Ņ":{"ha":1032,"x_min":114,"x_max":918,"o":"m 182 -10 q 114 60 114 -10 l 114 917 q 131 970 114 951 q 178 989 149 989 q 217 980 203 989 q 247 947 231 971 l 785 239 l 785 921 q 851 989 785 989 q 918 921 918 989 l 918 58 q 902 8 918 26 q 860 -10 886 -10 q 818 0 833 -10 q 785 33 803 10 l 247 743 l 247 60 q 182 -10 247 -10 m 543 -354 q 506 -372 526 -374 q 478 -353 486 -369 q 486 -311 469 -336 q 514 -246 507 -282 q 435 -172 435 -242 q 456 -119 435 -137 q 515 -100 478 -100 q 597 -187 597 -100 q 584 -274 597 -228 q 543 -354 571 -319 z "},"Ṅ":{"ha":1032,"x_min":114,"x_max":918,"o":"m 182 -10 q 114 60 114 -10 l 114 917 q 131 970 114 951 q 178 989 149 989 q 217 980 203 989 q 247 947 231 971 l 785 239 l 785 921 q 851 989 785 989 q 918 921 918 989 l 918 58 q 902 8 918 26 q 860 -10 886 -10 q 818 0 833 -10 q 785 33 803 10 l 247 743 l 247 60 q 182 -10 247 -10 m 517 1107 q 439 1182 439 1107 q 517 1257 439 1257 q 594 1182 594 1257 q 517 1107 594 1107 z "},"Ṇ":{"ha":1032,"x_min":114,"x_max":918,"o":"m 182 -10 q 114 60 114 -10 l 114 917 q 131 970 114 951 q 178 989 149 989 q 217 980 203 989 q 247 947 231 971 l 785 239 l 785 921 q 851 989 785 989 q 918 921 918 989 l 918 58 q 902 8 918 26 q 860 -10 886 -10 q 818 0 833 -10 q 785 33 803 10 l 247 743 l 247 60 q 182 -10 247 -10 m 517 -276 q 439 -200 439 -276 q 517 -125 439 -125 q 596 -200 596 -125 q 517 -276 596 -276 z "},"Ŋ":{"ha":1032,"x_min":114,"x_max":918,"o":"m 663 -264 q 614 -251 631 -265 q 596 -215 597 -236 q 606 -178 594 -194 q 642 -158 618 -161 q 749 -121 713 -153 q 785 -15 785 -89 l 785 33 l 247 743 l 247 60 q 182 -10 247 -10 q 114 60 114 -10 l 114 917 q 131 970 114 951 q 178 989 149 989 q 217 980 203 989 q 247 947 231 971 l 785 239 l 785 921 q 851 989 785 989 q 918 921 918 989 l 918 0 q 853 -197 918 -137 q 663 -264 788 -257 z "},"ǋ":{"ha":1375,"x_min":114,"x_max":1292,"o":"m 182 -10 q 114 60 114 -10 l 114 917 q 131 970 114 951 q 178 989 149 989 q 217 980 203 989 q 247 947 231 971 l 785 239 l 785 921 q 851 989 785 989 q 918 921 918 989 l 918 58 q 902 8 918 26 q 860 -10 886 -10 q 818 0 833 -10 q 785 33 803 10 l 247 743 l 247 60 q 182 -10 247 -10 m 1206 829 q 1141 850 1164 829 q 1118 908 1118 871 q 1206 988 1118 988 q 1292 908 1292 988 q 1206 829 1292 829 m 1022 -264 q 974 -251 990 -265 q 955 -215 957 -236 q 964 -178 953 -194 q 1000 -158 975 -161 q 1102 -121 1069 -154 q 1135 -15 1135 -87 l 1135 617 q 1206 688 1135 688 q 1275 617 1275 688 l 1275 -4 q 1212 -196 1275 -135 q 1022 -264 1149 -257 z "},"Ṉ":{"ha":1032,"x_min":114,"x_max":918,"o":"m 182 -10 q 114 60 114 -10 l 114 917 q 131 970 114 951 q 178 989 149 989 q 217 980 203 989 q 247 947 231 971 l 785 239 l 785 921 q 851 989 785 989 q 918 921 918 989 l 918 58 q 902 8 918 26 q 860 -10 886 -10 q 818 0 833 -10 q 785 33 803 10 l 247 743 l 247 60 q 182 -10 247 -10 m 347 -222 q 300 -178 300 -222 q 347 -133 300 -133 l 688 -133 q 733 -178 733 -133 q 688 -222 733 -222 l 347 -222 z "},"Ñ":{"ha":1032,"x_min":114,"x_max":918,"o":"m 182 -10 q 114 60 114 -10 l 114 917 q 131 970 114 951 q 178 989 149 989 q 217 980 203 989 q 247 947 231 971 l 785 239 l 785 921 q 851 989 785 989 q 918 921 918 989 l 918 58 q 902 8 918 26 q 860 -10 886 -10 q 818 0 833 -10 q 785 33 803 10 l 247 743 l 247 60 q 182 -10 247 -10 m 258 1076 q 229 1088 240 1076 q 222 1122 218 1100 q 283 1238 238 1197 q 393 1279 328 1279 q 465 1265 431 1279 q 529 1231 499 1250 q 588 1196 560 1211 q 644 1181 617 1181 q 703 1201 681 1181 q 733 1257 726 1222 q 775 1289 743 1290 q 804 1276 793 1288 q 811 1243 815 1264 q 751 1126 796 1168 q 642 1085 707 1085 q 569 1100 603 1085 q 505 1135 536 1115 q 445 1169 474 1154 q 389 1185 417 1185 q 330 1163 353 1185 q 300 1108 307 1142 q 258 1076 290 1075 z "},"O":{"ha":1076,"x_min":81,"x_max":997,"o":"m 539 -12 q 296 49 399 -12 q 137 224 193 111 q 81 490 81 338 q 137 757 81 644 q 296 931 193 869 q 539 992 399 992 q 781 931 678 992 q 941 757 885 869 q 997 492 997 644 q 941 224 997 338 q 781 49 885 111 q 539 -12 678 -12 m 539 113 q 766 212 685 113 q 847 490 847 311 q 767 768 847 669 q 539 867 686 867 q 312 768 393 867 q 231 490 231 669 q 312 212 231 311 q 539 113 393 113 z "},"Ó":{"ha":1076,"x_min":81,"x_max":997,"o":"m 539 -12 q 296 49 399 -12 q 137 224 193 111 q 81 490 81 338 q 137 757 81 644 q 296 931 193 869 q 539 992 399 992 q 781 931 678 992 q 941 757 885 869 q 997 492 997 644 q 941 224 997 338 q 781 49 885 111 q 539 -12 678 -12 m 539 113 q 766 212 685 113 q 847 490 847 311 q 767 768 847 669 q 539 867 686 867 q 312 768 393 867 q 231 490 231 669 q 312 212 231 311 q 539 113 393 113 m 596 1069 q 555 1053 578 1049 q 521 1078 532 1058 q 525 1119 510 1097 l 642 1290 q 682 1317 658 1315 q 725 1305 706 1318 q 749 1271 744 1292 q 736 1229 754 1250 l 596 1069 z "},"Ŏ":{"ha":1076,"x_min":81,"x_max":997,"o":"m 539 -12 q 296 49 399 -12 q 137 224 193 111 q 81 490 81 338 q 137 757 81 644 q 296 931 193 869 q 539 992 399 992 q 781 931 678 992 q 941 757 885 869 q 997 492 997 644 q 941 224 997 338 q 781 49 885 111 q 539 -12 678 -12 m 539 113 q 766 212 685 113 q 847 490 847 311 q 767 768 847 669 q 539 867 686 867 q 312 768 393 867 q 231 490 231 669 q 312 212 231 311 q 539 113 393 113 m 538 1056 q 387 1104 451 1056 q 300 1249 322 1153 q 306 1287 294 1272 q 335 1303 318 1301 q 369 1294 357 1306 q 385 1267 381 1282 q 442 1172 399 1200 q 538 1144 486 1144 q 633 1172 589 1144 q 690 1267 676 1200 q 706 1294 694 1282 q 740 1303 718 1306 q 769 1287 757 1301 q 775 1249 781 1272 q 688 1104 753 1153 q 538 1056 624 1056 z "},"Ô":{"ha":1076,"x_min":81,"x_max":997,"o":"m 539 -12 q 296 49 399 -12 q 137 224 193 111 q 81 490 81 338 q 137 757 81 644 q 296 931 193 869 q 539 992 399 992 q 781 931 678 992 q 941 757 885 869 q 997 492 997 644 q 941 224 997 338 q 781 49 885 111 q 539 -12 678 -12 m 539 113 q 766 212 685 113 q 847 490 847 311 q 767 768 847 669 q 539 867 686 867 q 312 768 393 867 q 231 490 231 669 q 312 212 231 311 q 539 113 393 113 m 411 1069 q 369 1052 392 1049 q 335 1074 346 1056 q 340 1114 324 1092 l 453 1271 q 538 1317 485 1317 q 624 1271 590 1317 l 735 1114 q 740 1074 751 1092 q 706 1052 729 1056 q 664 1069 683 1049 l 538 1218 l 411 1069 z "},"Ố":{"ha":1076,"x_min":81,"x_max":997,"o":"m 539 -12 q 296 49 399 -12 q 137 224 193 111 q 81 490 81 338 q 137 757 81 644 q 296 931 193 869 q 539 992 399 992 q 781 931 678 992 q 941 757 885 869 q 997 492 997 644 q 941 224 997 338 q 781 49 885 111 q 539 -12 678 -12 m 539 113 q 766 212 685 113 q 847 490 847 311 q 767 768 847 669 q 539 867 686 867 q 312 768 393 867 q 231 490 231 669 q 312 212 231 311 q 539 113 393 113 m 756 1200 q 723 1185 742 1182 q 694 1203 704 1188 q 697 1243 685 1219 l 789 1403 q 823 1431 803 1428 q 860 1424 843 1435 q 883 1394 878 1413 q 872 1353 889 1375 l 756 1200 m 419 1068 q 379 1049 400 1046 q 349 1069 358 1051 q 354 1111 339 1088 l 454 1258 q 492 1294 471 1285 q 538 1304 513 1304 q 583 1294 563 1304 q 621 1258 604 1285 l 721 1111 q 727 1069 736 1088 q 697 1049 718 1051 q 657 1068 676 1046 l 538 1206 l 419 1068 z "},"Ộ":{"ha":1076,"x_min":81,"x_max":997,"o":"m 539 -12 q 296 49 399 -12 q 137 224 193 111 q 81 490 81 338 q 137 757 81 644 q 296 931 193 869 q 539 992 399 992 q 781 931 678 992 q 941 757 885 869 q 997 492 997 644 q 941 224 997 338 q 781 49 885 111 q 539 -12 678 -12 m 539 113 q 766 212 685 113 q 847 490 847 311 q 767 768 847 669 q 539 867 686 867 q 312 768 393 867 q 231 490 231 669 q 312 212 231 311 q 539 113 393 113 m 538 -276 q 460 -200 460 -276 q 538 -125 460 -125 q 617 -200 617 -125 q 538 -276 617 -276 m 411 1069 q 369 1052 392 1049 q 335 1074 346 1056 q 340 1114 324 1092 l 453 1271 q 538 1317 485 1317 q 624 1271 590 1317 l 735 1114 q 740 1074 751 1092 q 706 1052 729 1056 q 664 1069 683 1049 l 538 1218 l 411 1069 z "},"Ồ":{"ha":1076,"x_min":81,"x_max":997,"o":"m 539 -12 q 296 49 399 -12 q 137 224 193 111 q 81 490 81 338 q 137 757 81 644 q 296 931 193 869 q 539 992 399 992 q 781 931 678 992 q 941 757 885 869 q 997 492 997 644 q 941 224 997 338 q 781 49 885 111 q 539 -12 678 -12 m 539 113 q 766 212 685 113 q 847 490 847 311 q 767 768 847 669 q 539 867 686 867 q 312 768 393 867 q 231 490 231 669 q 312 212 231 311 q 539 113 393 113 m 739 1200 l 624 1353 q 612 1394 607 1375 q 634 1424 617 1413 q 672 1431 651 1435 q 707 1403 693 1428 l 799 1243 q 801 1203 811 1219 q 772 1185 792 1188 q 739 1200 753 1182 m 419 1068 q 379 1049 400 1046 q 349 1069 358 1051 q 354 1111 339 1088 l 454 1258 q 492 1294 471 1285 q 538 1304 513 1304 q 583 1294 563 1304 q 621 1258 604 1285 l 721 1111 q 727 1069 736 1088 q 697 1049 718 1051 q 657 1068 676 1046 l 538 1206 l 419 1068 z "},"Ổ":{"ha":1076,"x_min":81,"x_max":997,"o":"m 539 -12 q 296 49 399 -12 q 137 224 193 111 q 81 490 81 338 q 137 757 81 644 q 296 931 193 869 q 539 992 399 992 q 781 931 678 992 q 941 757 885 869 q 997 492 997 644 q 941 224 997 338 q 781 49 885 111 q 539 -12 678 -12 m 539 113 q 766 212 685 113 q 847 490 847 311 q 767 768 847 669 q 539 867 686 867 q 312 768 393 867 q 231 490 231 669 q 312 212 231 311 q 539 113 393 113 m 744 1201 q 711 1198 726 1192 q 692 1218 696 1204 q 704 1244 688 1232 q 747 1280 732 1263 q 761 1318 761 1297 q 704 1356 761 1356 q 654 1349 679 1356 q 608 1367 617 1339 q 635 1410 599 1397 q 681 1419 656 1417 q 732 1422 706 1422 q 825 1402 792 1422 q 858 1340 858 1382 q 822 1260 858 1296 q 744 1201 785 1224 m 419 1068 q 379 1049 400 1046 q 349 1069 358 1051 q 354 1111 339 1088 l 454 1258 q 492 1294 471 1285 q 538 1304 513 1304 q 583 1294 563 1304 q 621 1258 604 1285 l 721 1111 q 727 1069 736 1088 q 697 1049 718 1051 q 657 1068 676 1046 l 538 1206 l 419 1068 z "},"Ỗ":{"ha":1076,"x_min":81,"x_max":997,"o":"m 539 -12 q 296 49 399 -12 q 137 224 193 111 q 81 490 81 338 q 137 757 81 644 q 296 931 193 869 q 539 992 399 992 q 781 931 678 992 q 941 757 885 869 q 997 492 997 644 q 941 224 997 338 q 781 49 885 111 q 539 -12 678 -12 m 539 113 q 766 212 685 113 q 847 490 847 311 q 767 768 847 669 q 539 867 686 867 q 312 768 393 867 q 231 490 231 669 q 312 212 231 311 q 539 113 393 113 m 346 1279 q 320 1292 329 1281 q 317 1325 311 1304 q 364 1403 329 1376 q 447 1429 399 1429 q 515 1412 485 1429 q 571 1378 544 1394 q 625 1361 597 1361 q 664 1371 647 1361 q 688 1401 681 1381 q 731 1432 699 1433 q 756 1418 747 1431 q 760 1385 765 1406 q 713 1308 747 1335 q 629 1282 678 1282 q 560 1299 590 1282 q 504 1332 531 1315 q 451 1349 478 1349 q 413 1340 429 1349 q 389 1310 396 1331 q 346 1279 378 1278 m 410 1061 q 372 1049 390 1044 q 348 1071 354 1054 q 356 1104 342 1088 l 449 1215 q 490 1247 468 1238 q 538 1256 513 1256 q 586 1247 564 1256 q 626 1215 608 1238 l 719 1104 q 727 1071 733 1088 q 703 1049 721 1054 q 665 1061 686 1044 l 538 1172 l 410 1061 z "},"Ȍ":{"ha":1076,"x_min":81,"x_max":997,"o":"m 539 -12 q 296 49 399 -12 q 137 224 193 111 q 81 490 81 338 q 137 757 81 644 q 296 931 193 869 q 539 992 399 992 q 781 931 678 992 q 941 757 885 869 q 997 492 997 644 q 941 224 997 338 q 781 49 885 111 q 539 -12 678 -12 m 539 113 q 766 212 685 113 q 847 490 847 311 q 767 768 847 669 q 539 867 686 867 q 312 768 393 867 q 231 490 231 669 q 312 212 231 311 q 539 113 393 113 m 400 1068 l 278 1235 q 265 1278 260 1258 q 290 1309 271 1299 q 330 1315 308 1319 q 365 1286 351 1311 l 460 1107 q 461 1069 471 1086 q 433 1051 451 1053 q 400 1068 414 1049 m 585 1071 l 471 1235 q 460 1278 453 1258 q 486 1309 467 1299 q 527 1315 506 1319 q 563 1285 549 1310 l 653 1104 q 651 1068 663 1083 q 620 1051 640 1053 q 585 1071 600 1050 z "},"Ö":{"ha":1076,"x_min":81,"x_max":997,"o":"m 539 -12 q 296 49 399 -12 q 137 224 193 111 q 81 490 81 338 q 137 757 81 644 q 296 931 193 869 q 539 992 399 992 q 781 931 678 992 q 941 757 885 869 q 997 492 997 644 q 941 224 997 338 q 781 49 885 111 q 539 -12 678 -12 m 539 113 q 766 212 685 113 q 847 490 847 311 q 767 768 847 669 q 539 867 686 867 q 312 768 393 867 q 231 490 231 669 q 312 212 231 311 q 539 113 393 113 m 664 1104 q 589 1179 589 1104 q 664 1251 589 1251 q 738 1179 738 1251 q 664 1104 738 1104 m 413 1104 q 338 1179 338 1104 q 358 1233 338 1214 q 413 1251 378 1251 q 488 1179 488 1251 q 413 1104 488 1104 z "},"Ȫ":{"ha":1076,"x_min":81,"x_max":997,"o":"m 539 -12 q 296 49 399 -12 q 137 224 193 111 q 81 490 81 338 q 137 757 81 644 q 296 931 193 869 q 539 992 399 992 q 781 931 678 992 q 941 757 885 869 q 997 492 997 644 q 941 224 997 338 q 781 49 885 111 q 539 -12 678 -12 m 539 113 q 766 212 685 113 q 847 490 847 311 q 767 768 847 669 q 539 867 686 867 q 312 768 393 867 q 231 490 231 669 q 312 212 231 311 q 539 113 393 113 m 371 1285 q 319 1329 319 1285 q 371 1372 319 1372 l 704 1372 q 756 1329 756 1372 q 704 1285 756 1285 l 371 1285 m 413 1096 q 358 1112 378 1096 q 338 1157 338 1128 q 413 1218 338 1218 q 488 1157 488 1218 q 413 1096 488 1096 m 664 1096 q 589 1157 589 1096 q 664 1218 589 1218 q 738 1157 738 1218 q 664 1096 738 1096 z "},"Ȱ":{"ha":1076,"x_min":81,"x_max":997,"o":"m 539 -12 q 296 49 399 -12 q 137 224 193 111 q 81 490 81 338 q 137 757 81 644 q 296 931 193 869 q 539 992 399 992 q 781 931 678 992 q 941 757 885 869 q 997 492 997 644 q 941 224 997 338 q 781 49 885 111 q 539 -12 678 -12 m 539 113 q 766 212 685 113 q 847 490 847 311 q 767 768 847 669 q 539 867 686 867 q 312 768 393 867 q 231 490 231 669 q 312 212 231 311 q 539 113 393 113 m 371 1285 q 319 1329 319 1285 q 371 1372 319 1372 l 704 1372 q 756 1329 756 1372 q 704 1285 756 1285 l 371 1285 m 539 1096 q 484 1112 504 1096 q 464 1157 464 1128 q 539 1218 464 1218 q 614 1157 614 1218 q 539 1096 614 1096 z "},"Ọ":{"ha":1076,"x_min":81,"x_max":997,"o":"m 539 -12 q 296 49 399 -12 q 137 224 193 111 q 81 490 81 338 q 137 757 81 644 q 296 931 193 869 q 539 992 399 992 q 781 931 678 992 q 941 757 885 869 q 997 492 997 644 q 941 224 997 338 q 781 49 885 111 q 539 -12 678 -12 m 539 113 q 766 212 685 113 q 847 490 847 311 q 767 768 847 669 q 539 867 686 867 q 312 768 393 867 q 231 490 231 669 q 312 212 231 311 q 539 113 393 113 m 538 -276 q 460 -200 460 -276 q 538 -125 460 -125 q 617 -200 617 -125 q 538 -276 617 -276 z "},"Ò":{"ha":1076,"x_min":81,"x_max":997,"o":"m 539 -12 q 296 49 399 -12 q 137 224 193 111 q 81 490 81 338 q 137 757 81 644 q 296 931 193 869 q 539 992 399 992 q 781 931 678 992 q 941 757 885 869 q 997 492 997 644 q 941 224 997 338 q 781 49 885 111 q 539 -12 678 -12 m 539 113 q 766 212 685 113 q 847 490 847 311 q 767 768 847 669 q 539 867 686 867 q 312 768 393 867 q 231 490 231 669 q 312 212 231 311 q 539 113 393 113 m 479 1069 l 340 1229 q 326 1271 321 1250 q 351 1305 332 1292 q 394 1317 371 1318 q 435 1290 417 1315 l 551 1119 q 555 1078 567 1097 q 521 1053 543 1058 q 479 1069 499 1049 z "},"Ỏ":{"ha":1076,"x_min":81,"x_max":997,"o":"m 539 -12 q 296 49 399 -12 q 137 224 193 111 q 81 490 81 338 q 137 757 81 644 q 296 931 193 869 q 539 992 399 992 q 781 931 678 992 q 941 757 885 869 q 997 492 997 644 q 941 224 997 338 q 781 49 885 111 q 539 -12 678 -12 m 539 113 q 766 212 685 113 q 847 490 847 311 q 767 768 847 669 q 539 867 686 867 q 312 768 393 867 q 231 490 231 669 q 312 212 231 311 q 539 113 393 113 m 538 1053 q 492 1086 492 1053 q 505 1129 492 1113 q 534 1158 518 1146 q 563 1181 550 1169 q 575 1207 575 1192 q 515 1236 575 1236 q 490 1235 504 1236 q 463 1229 475 1233 q 408 1247 418 1218 q 410 1275 404 1263 q 436 1294 415 1288 q 546 1311 481 1311 q 649 1288 611 1311 q 686 1225 686 1265 q 670 1177 686 1194 q 634 1147 654 1160 q 599 1119 614 1133 q 583 1078 583 1104 q 538 1053 583 1053 z "},"Ơ":{"ha":1076,"x_min":81,"x_max":997,"o":"m 539 -12 q 296 49 399 -12 q 137 224 193 111 q 81 490 81 338 q 137 757 81 644 q 296 931 193 869 q 539 992 399 992 q 781 931 678 992 q 941 757 885 869 q 997 492 997 644 q 941 224 997 338 q 781 49 885 111 q 539 -12 678 -12 m 539 113 q 766 212 685 113 q 847 490 847 311 q 767 768 847 669 q 539 867 686 867 q 312 768 393 867 q 231 490 231 669 q 312 212 231 311 q 539 113 393 113 m 682 901 l 617 985 q 676 981 650 982 q 726 979 701 979 q 838 1014 807 979 q 869 1113 869 1049 q 932 1168 869 1168 q 977 1152 961 1168 q 993 1108 993 1136 q 938 961 993 1021 q 793 901 883 901 l 682 901 z "},"Ớ":{"ha":1076,"x_min":81,"x_max":997,"o":"m 539 -12 q 296 49 399 -12 q 137 224 193 111 q 81 490 81 338 q 137 757 81 644 q 296 931 193 869 q 539 992 399 992 q 781 931 678 992 q 941 757 885 869 q 997 492 997 644 q 941 224 997 338 q 781 49 885 111 q 539 -12 678 -12 m 539 113 q 766 212 685 113 q 847 490 847 311 q 767 768 847 669 q 539 867 686 867 q 312 768 393 867 q 231 490 231 669 q 312 212 231 311 q 539 113 393 113 m 682 901 l 617 985 q 676 981 650 982 q 726 979 701 979 q 838 1014 807 979 q 869 1113 869 1049 q 932 1168 869 1168 q 977 1152 961 1168 q 993 1108 993 1136 q 938 961 993 1021 q 793 901 883 901 l 682 901 m 593 1069 q 552 1053 575 1049 q 518 1078 529 1058 q 522 1119 507 1097 l 639 1290 q 679 1317 656 1315 q 722 1305 703 1318 q 747 1271 742 1292 q 733 1229 751 1250 l 593 1069 z "},"Ợ":{"ha":1076,"x_min":81,"x_max":997,"o":"m 539 -12 q 296 49 399 -12 q 137 224 193 111 q 81 490 81 338 q 137 757 81 644 q 296 931 193 869 q 539 992 399 992 q 781 931 678 992 q 941 757 885 869 q 997 492 997 644 q 941 224 997 338 q 781 49 885 111 q 539 -12 678 -12 m 539 113 q 766 212 685 113 q 847 490 847 311 q 767 768 847 669 q 539 867 686 867 q 312 768 393 867 q 231 490 231 669 q 312 212 231 311 q 539 113 393 113 m 682 901 l 617 985 q 676 981 650 982 q 726 979 701 979 q 838 1014 807 979 q 869 1113 869 1049 q 932 1168 869 1168 q 977 1152 961 1168 q 993 1108 993 1136 q 938 961 993 1021 q 793 901 883 901 l 682 901 m 536 -276 q 458 -200 458 -276 q 536 -125 458 -125 q 615 -200 615 -125 q 536 -276 615 -276 z "},"Ờ":{"ha":1076,"x_min":81,"x_max":997,"o":"m 539 -12 q 296 49 399 -12 q 137 224 193 111 q 81 490 81 338 q 137 757 81 644 q 296 931 193 869 q 539 992 399 992 q 781 931 678 992 q 941 757 885 869 q 997 492 997 644 q 941 224 997 338 q 781 49 885 111 q 539 -12 678 -12 m 539 113 q 766 212 685 113 q 847 490 847 311 q 767 768 847 669 q 539 867 686 867 q 312 768 393 867 q 231 490 231 669 q 312 212 231 311 q 539 113 393 113 m 682 901 l 617 985 q 676 981 650 982 q 726 979 701 979 q 838 1014 807 979 q 869 1113 869 1049 q 932 1168 869 1168 q 977 1152 961 1168 q 993 1108 993 1136 q 938 961 993 1021 q 793 901 883 901 l 682 901 m 476 1069 l 338 1229 q 324 1271 318 1250 q 349 1305 329 1292 q 391 1317 368 1318 q 432 1290 414 1315 l 549 1119 q 552 1078 564 1097 q 518 1053 540 1058 q 476 1069 496 1049 z "},"Ở":{"ha":1076,"x_min":81,"x_max":997,"o":"m 539 -12 q 296 49 399 -12 q 137 224 193 111 q 81 490 81 338 q 137 757 81 644 q 296 931 193 869 q 539 992 399 992 q 781 931 678 992 q 941 757 885 869 q 997 492 997 644 q 941 224 997 338 q 781 49 885 111 q 539 -12 678 -12 m 539 113 q 766 212 685 113 q 847 490 847 311 q 767 768 847 669 q 539 867 686 867 q 312 768 393 867 q 231 490 231 669 q 312 212 231 311 q 539 113 393 113 m 682 901 l 617 985 q 676 981 650 982 q 726 979 701 979 q 838 1014 807 979 q 869 1113 869 1049 q 932 1168 869 1168 q 977 1152 961 1168 q 993 1108 993 1136 q 938 961 993 1021 q 793 901 883 901 l 682 901 m 535 1053 q 489 1086 489 1053 q 502 1129 489 1113 q 531 1158 515 1146 q 560 1181 547 1169 q 572 1207 572 1192 q 513 1236 572 1236 q 487 1235 501 1236 q 460 1229 472 1233 q 406 1247 415 1218 q 407 1275 401 1263 q 433 1294 413 1288 q 543 1311 478 1311 q 646 1288 608 1311 q 683 1225 683 1265 q 667 1177 683 1194 q 631 1147 651 1160 q 596 1119 611 1133 q 581 1078 581 1104 q 535 1053 581 1053 z "},"Ỡ":{"ha":1076,"x_min":81,"x_max":997,"o":"m 539 -12 q 296 49 399 -12 q 137 224 193 111 q 81 490 81 338 q 137 757 81 644 q 296 931 193 869 q 539 992 399 992 q 781 931 678 992 q 941 757 885 869 q 997 492 997 644 q 941 224 997 338 q 781 49 885 111 q 539 -12 678 -12 m 539 113 q 766 212 685 113 q 847 490 847 311 q 767 768 847 669 q 539 867 686 867 q 312 768 393 867 q 231 490 231 669 q 312 212 231 311 q 539 113 393 113 m 682 901 l 617 985 q 676 981 650 982 q 726 979 701 979 q 838 1014 807 979 q 869 1113 869 1049 q 932 1168 869 1168 q 977 1152 961 1168 q 993 1108 993 1136 q 938 961 993 1021 q 793 901 883 901 l 682 901 m 288 1076 q 261 1088 271 1076 q 254 1122 251 1100 q 311 1238 267 1196 q 417 1279 356 1279 q 481 1265 453 1279 q 535 1231 510 1250 q 584 1196 560 1211 q 635 1181 608 1181 q 690 1202 667 1181 q 721 1256 713 1224 q 763 1289 731 1290 q 790 1276 779 1288 q 796 1243 800 1265 q 740 1127 783 1169 q 633 1085 696 1085 q 570 1100 599 1085 q 517 1135 542 1115 q 467 1169 492 1154 q 415 1185 443 1185 q 361 1163 383 1185 q 331 1108 339 1142 q 288 1076 319 1075 z "},"Ő":{"ha":1076,"x_min":81,"x_max":997,"o":"m 539 -12 q 296 49 399 -12 q 137 224 193 111 q 81 490 81 338 q 137 757 81 644 q 296 931 193 869 q 539 992 399 992 q 781 931 678 992 q 941 757 885 869 q 997 492 997 644 q 941 224 997 338 q 781 49 885 111 q 539 -12 678 -12 m 539 113 q 766 212 685 113 q 847 490 847 311 q 767 768 847 669 q 539 867 686 867 q 312 768 393 867 q 231 490 231 669 q 312 212 231 311 q 539 113 393 113 m 676 1068 q 642 1051 661 1049 q 614 1069 624 1053 q 615 1107 604 1085 l 711 1286 q 746 1315 724 1311 q 787 1309 768 1319 q 811 1278 806 1299 q 799 1235 817 1258 l 676 1068 m 490 1071 q 455 1051 475 1050 q 424 1068 435 1053 q 424 1104 413 1083 l 513 1285 q 548 1315 526 1310 q 589 1309 569 1319 q 615 1278 608 1299 q 604 1235 622 1258 l 490 1071 z "},"Ȏ":{"ha":1076,"x_min":81,"x_max":997,"o":"m 539 -12 q 296 49 399 -12 q 137 224 193 111 q 81 490 81 338 q 137 757 81 644 q 296 931 193 869 q 539 992 399 992 q 781 931 678 992 q 941 757 885 869 q 997 492 997 644 q 941 224 997 338 q 781 49 885 111 q 539 -12 678 -12 m 539 113 q 766 212 685 113 q 847 490 847 311 q 767 768 847 669 q 539 867 686 867 q 312 768 393 867 q 231 490 231 669 q 312 212 231 311 q 539 113 393 113 m 335 1054 q 306 1071 318 1056 q 300 1110 294 1086 q 387 1253 322 1206 q 538 1301 451 1301 q 688 1253 624 1301 q 775 1110 753 1206 q 769 1071 781 1086 q 740 1054 757 1056 q 706 1064 718 1053 q 690 1090 694 1075 q 632 1186 675 1158 q 538 1214 589 1214 q 443 1186 486 1214 q 385 1090 400 1158 q 369 1064 381 1075 q 335 1054 357 1053 z "},"Ō":{"ha":1076,"x_min":81,"x_max":997,"o":"m 539 -12 q 296 49 399 -12 q 137 224 193 111 q 81 490 81 338 q 137 757 81 644 q 296 931 193 869 q 539 992 399 992 q 781 931 678 992 q 941 757 885 869 q 997 492 997 644 q 941 224 997 338 q 781 49 885 111 q 539 -12 678 -12 m 539 113 q 766 212 685 113 q 847 490 847 311 q 767 768 847 669 q 539 867 686 867 q 312 768 393 867 q 231 490 231 669 q 312 212 231 311 q 539 113 393 113 m 347 1126 q 300 1169 300 1126 q 347 1214 300 1214 l 729 1214 q 775 1169 775 1214 q 729 1126 775 1126 l 347 1126 z "},"Ṓ":{"ha":1076,"x_min":81,"x_max":997,"o":"m 539 -12 q 296 49 399 -12 q 137 224 193 111 q 81 490 81 338 q 137 757 81 644 q 296 931 193 869 q 539 992 399 992 q 781 931 678 992 q 941 757 885 869 q 997 492 997 644 q 941 224 997 338 q 781 49 885 111 q 539 -12 678 -12 m 539 113 q 766 212 685 113 q 847 490 847 311 q 767 768 847 669 q 539 867 686 867 q 312 768 393 867 q 231 490 231 669 q 312 212 231 311 q 539 113 393 113 m 582 1231 q 545 1215 565 1211 q 514 1235 525 1218 q 515 1275 503 1251 l 597 1414 q 635 1444 613 1440 q 678 1436 658 1447 q 703 1405 697 1425 q 690 1363 710 1385 l 582 1231 m 371 1093 q 319 1138 319 1093 q 371 1181 319 1181 l 704 1181 q 756 1138 756 1181 q 704 1093 756 1093 l 371 1093 z "},"Ṑ":{"ha":1076,"x_min":81,"x_max":997,"o":"m 539 -12 q 296 49 399 -12 q 137 224 193 111 q 81 490 81 338 q 137 757 81 644 q 296 931 193 869 q 539 992 399 992 q 781 931 678 992 q 941 757 885 869 q 997 492 997 644 q 941 224 997 338 q 781 49 885 111 q 539 -12 678 -12 m 539 113 q 766 212 685 113 q 847 490 847 311 q 767 768 847 669 q 539 867 686 867 q 312 768 393 867 q 231 490 231 669 q 312 212 231 311 q 539 113 393 113 m 493 1231 l 385 1363 q 372 1405 365 1385 q 397 1436 378 1425 q 440 1444 417 1447 q 478 1414 463 1440 l 560 1275 q 561 1235 572 1251 q 530 1215 550 1218 q 493 1231 510 1211 m 371 1093 q 319 1138 319 1093 q 371 1181 319 1181 l 704 1181 q 756 1138 756 1181 q 704 1093 756 1093 l 371 1093 z "},"Ǫ":{"ha":1076,"x_min":81,"x_max":997,"o":"m 539 -12 q 296 49 399 -12 q 137 224 193 111 q 81 490 81 338 q 137 757 81 644 q 296 931 193 869 q 539 992 399 992 q 781 931 678 992 q 941 757 885 869 q 997 492 997 644 q 941 224 997 338 q 781 49 885 111 q 539 -12 678 -12 m 539 113 q 766 212 685 113 q 847 490 847 311 q 767 768 847 669 q 539 867 686 867 q 312 768 393 867 q 231 490 231 669 q 312 212 231 311 q 539 113 393 113 m 592 -269 q 479 -231 521 -269 q 438 -129 438 -193 q 474 -24 438 -72 q 575 54 511 25 l 619 0 q 559 -44 586 -14 q 532 -114 532 -74 q 554 -170 532 -151 q 611 -189 576 -189 q 656 -182 633 -189 q 697 -189 685 -174 q 704 -226 710 -204 q 676 -257 699 -247 q 633 -267 656 -264 q 592 -269 611 -269 z "},"Ø":{"ha":1076,"x_min":81,"x_max":997,"o":"m 539 -12 q 296 49 399 -12 q 137 224 193 111 q 81 490 81 338 q 137 757 81 644 q 296 931 193 869 q 539 992 399 992 q 781 931 678 992 q 941 757 885 869 q 997 492 997 644 q 941 224 997 338 q 781 49 885 111 q 539 -12 678 -12 m 539 113 q 766 212 685 113 q 847 490 847 311 q 767 768 847 669 q 539 867 686 867 q 312 768 393 867 q 231 490 231 669 q 312 212 231 311 q 539 113 393 113 m 296 -37 q 260 -66 282 -62 q 219 -58 238 -69 q 192 -26 200 -47 q 200 21 185 -4 l 260 122 l 301 190 l 690 858 l 722 914 l 782 1017 q 817 1044 796 1040 q 858 1038 839 1049 q 885 1006 878 1026 q 876 958 892 985 l 817 857 l 776 789 l 386 122 l 356 65 l 296 -37 z "},"Ǿ":{"ha":1076,"x_min":81,"x_max":997,"o":"m 539 -12 q 296 49 399 -12 q 137 224 193 111 q 81 490 81 338 q 137 757 81 644 q 296 931 193 869 q 539 992 399 992 q 781 931 678 992 q 941 757 885 869 q 997 492 997 644 q 941 224 997 338 q 781 49 885 111 q 539 -12 678 -12 m 539 113 q 766 212 685 113 q 847 490 847 311 q 767 768 847 669 q 539 867 686 867 q 312 768 393 867 q 231 490 231 669 q 312 212 231 311 q 539 113 393 113 m 296 -37 q 260 -66 282 -62 q 219 -58 238 -69 q 192 -26 200 -47 q 200 21 185 -4 l 260 122 l 301 190 l 690 858 l 722 914 l 782 1017 q 817 1044 796 1040 q 858 1038 839 1049 q 885 1006 878 1026 q 876 958 892 985 l 817 857 l 776 789 l 386 122 l 356 65 l 296 -37 m 596 1069 q 555 1053 578 1049 q 521 1078 532 1058 q 525 1119 510 1097 l 642 1290 q 682 1317 658 1315 q 725 1305 706 1318 q 749 1271 744 1292 q 736 1229 754 1250 l 596 1069 z "},"Õ":{"ha":1076,"x_min":81,"x_max":997,"o":"m 539 -12 q 296 49 399 -12 q 137 224 193 111 q 81 490 81 338 q 137 757 81 644 q 296 931 193 869 q 539 992 399 992 q 781 931 678 992 q 941 757 885 869 q 997 492 997 644 q 941 224 997 338 q 781 49 885 111 q 539 -12 678 -12 m 539 113 q 766 212 685 113 q 847 490 847 311 q 767 768 847 669 q 539 867 686 867 q 312 768 393 867 q 231 490 231 669 q 312 212 231 311 q 539 113 393 113 m 279 1076 q 250 1088 261 1076 q 243 1122 239 1100 q 303 1238 258 1197 q 414 1279 349 1279 q 485 1265 451 1279 q 550 1231 519 1250 q 609 1196 581 1211 q 665 1181 638 1181 q 724 1201 701 1181 q 754 1257 747 1222 q 796 1289 764 1290 q 825 1276 814 1288 q 832 1243 836 1264 q 772 1126 817 1168 q 663 1085 728 1085 q 590 1100 624 1085 q 526 1135 557 1115 q 466 1169 494 1154 q 410 1185 438 1185 q 351 1163 374 1185 q 321 1108 328 1142 q 279 1076 311 1075 z "},"Ṍ":{"ha":1076,"x_min":81,"x_max":997,"o":"m 539 -12 q 296 49 399 -12 q 137 224 193 111 q 81 490 81 338 q 137 757 81 644 q 296 931 193 869 q 539 992 399 992 q 781 931 678 992 q 941 757 885 869 q 997 492 997 644 q 941 224 997 338 q 781 49 885 111 q 539 -12 678 -12 m 539 113 q 766 212 685 113 q 847 490 847 311 q 767 768 847 669 q 539 867 686 867 q 312 768 393 867 q 231 490 231 669 q 312 212 231 311 q 539 113 393 113 m 582 1231 q 546 1215 567 1213 q 514 1235 525 1218 q 515 1275 503 1251 l 597 1414 q 635 1444 613 1440 q 678 1435 658 1447 q 703 1403 697 1424 q 689 1360 708 1382 l 582 1231 m 346 1064 q 320 1076 329 1064 q 317 1110 311 1089 q 364 1187 329 1161 q 447 1213 399 1213 q 515 1196 485 1213 q 571 1163 544 1179 q 625 1146 597 1146 q 664 1155 647 1146 q 688 1186 681 1164 q 731 1215 699 1217 q 756 1202 747 1214 q 760 1169 765 1190 q 713 1092 747 1118 q 629 1065 678 1065 q 560 1083 590 1065 q 504 1117 531 1100 q 451 1133 478 1133 q 413 1124 429 1133 q 389 1093 396 1114 q 346 1064 378 1061 z "},"Ṏ":{"ha":1076,"x_min":81,"x_max":997,"o":"m 539 -12 q 296 49 399 -12 q 137 224 193 111 q 81 490 81 338 q 137 757 81 644 q 296 931 193 869 q 539 992 399 992 q 781 931 678 992 q 941 757 885 869 q 997 492 997 644 q 941 224 997 338 q 781 49 885 111 q 539 -12 678 -12 m 539 113 q 766 212 685 113 q 847 490 847 311 q 767 768 847 669 q 539 867 686 867 q 312 768 393 867 q 231 490 231 669 q 312 212 231 311 q 539 113 393 113 m 413 1261 q 338 1322 338 1261 q 413 1383 338 1383 q 488 1322 488 1383 q 413 1261 488 1261 m 664 1261 q 589 1322 589 1261 q 664 1383 589 1383 q 738 1322 738 1383 q 664 1261 738 1261 m 346 1064 q 320 1076 329 1064 q 317 1110 311 1089 q 364 1187 329 1161 q 447 1213 399 1213 q 515 1196 485 1213 q 571 1163 544 1179 q 625 1146 597 1146 q 664 1155 647 1146 q 688 1186 681 1164 q 731 1215 699 1217 q 756 1202 747 1214 q 760 1169 765 1190 q 713 1092 747 1118 q 629 1065 678 1065 q 560 1083 590 1065 q 504 1117 531 1100 q 451 1133 478 1133 q 413 1124 429 1133 q 389 1093 396 1114 q 346 1064 378 1061 z "},"Ȭ":{"ha":1076,"x_min":81,"x_max":997,"o":"m 539 -12 q 296 49 399 -12 q 137 224 193 111 q 81 490 81 338 q 137 757 81 644 q 296 931 193 869 q 539 992 399 992 q 781 931 678 992 q 941 757 885 869 q 997 492 997 644 q 941 224 997 338 q 781 49 885 111 q 539 -12 678 -12 m 539 113 q 766 212 685 113 q 847 490 847 311 q 767 768 847 669 q 539 867 686 867 q 312 768 393 867 q 231 490 231 669 q 312 212 231 311 q 539 113 393 113 m 371 1285 q 319 1329 319 1285 q 371 1372 319 1372 l 704 1372 q 756 1329 756 1372 q 704 1285 756 1285 l 371 1285 m 346 1064 q 320 1076 329 1064 q 317 1110 311 1089 q 364 1187 329 1161 q 447 1213 399 1213 q 515 1196 485 1213 q 571 1163 544 1179 q 625 1146 597 1146 q 664 1155 647 1146 q 688 1186 681 1164 q 731 1215 699 1217 q 756 1202 747 1214 q 760 1169 765 1190 q 713 1092 747 1118 q 629 1065 678 1065 q 560 1083 590 1065 q 504 1117 531 1100 q 451 1133 478 1133 q 413 1124 429 1133 q 389 1093 396 1114 q 346 1064 378 1061 z "},"Œ":{"ha":1460,"x_min":81,"x_max":1400,"o":"m 585 0 q 212 127 343 0 q 81 490 81 254 q 212 853 81 726 q 585 979 343 979 l 1339 979 q 1400 922 1400 979 q 1339 863 1400 863 l 894 863 l 894 556 l 1310 556 q 1369 497 1369 556 q 1310 439 1369 439 l 894 439 l 894 117 l 1339 117 q 1400 58 1400 117 q 1339 0 1400 0 l 585 0 m 593 121 l 756 121 l 756 858 l 593 858 q 231 490 231 858 q 593 121 231 121 z "},"P":{"ha":892,"x_min":114,"x_max":850,"o":"m 186 -10 q 114 64 114 -10 l 114 906 q 188 979 114 979 l 519 979 q 764 901 678 979 q 850 681 850 822 q 764 459 850 538 q 519 381 678 381 l 258 381 l 258 64 q 186 -10 258 -10 m 258 496 l 499 496 q 710 681 710 496 q 499 864 710 864 l 258 864 l 258 496 z "},"Þ":{"ha":894,"x_min":114,"x_max":851,"o":"m 186 -6 q 114 68 114 -6 l 114 911 q 188 985 114 985 q 240 967 222 985 q 258 918 258 949 l 258 808 l 521 808 q 766 730 681 808 q 851 508 851 651 q 766 288 851 367 q 521 208 681 208 l 258 208 l 258 68 q 186 -6 258 -6 m 258 324 l 501 324 q 713 508 713 324 q 501 693 713 693 l 258 693 l 258 324 z "},"Q":{"ha":1076,"x_min":81,"x_max":997,"o":"m 893 -172 q 906 -228 914 -203 q 873 -265 897 -253 q 821 -270 849 -276 q 774 -233 793 -264 l 682 -85 q 538 -12 638 -12 l 538 -12 q 296 49 399 -12 q 137 224 193 111 q 81 490 81 338 q 137 757 81 644 q 296 931 193 869 q 539 992 399 992 q 781 931 678 992 q 941 757 885 869 q 997 492 997 644 q 926 197 997 318 q 729 22 854 75 q 783 -10 760 13 q 831 -72 807 -33 l 893 -172 m 539 113 q 766 212 685 113 q 847 490 847 311 q 767 768 847 669 q 539 867 686 867 q 312 768 393 867 q 231 490 231 669 q 312 212 231 311 q 539 113 393 113 z "},"R":{"ha":940,"x_min":114,"x_max":879,"o":"m 186 -10 q 114 64 114 -10 l 114 906 q 188 979 114 979 l 519 979 q 764 903 678 979 q 850 692 850 828 q 792 512 850 582 q 626 418 733 442 q 739 311 693 396 l 858 89 q 867 21 879 51 q 810 -10 854 -10 q 760 3 779 -10 q 726 43 740 15 l 581 313 q 513 385 551 367 q 415 404 475 404 l 258 404 l 258 64 q 186 -10 258 -10 m 258 513 l 496 513 q 710 689 710 513 q 496 864 710 864 l 258 864 l 258 513 z "},"Ŕ":{"ha":940,"x_min":114,"x_max":879,"o":"m 186 -10 q 114 64 114 -10 l 114 906 q 188 979 114 979 l 519 979 q 764 903 678 979 q 850 692 850 828 q 792 512 850 582 q 626 418 733 442 q 739 311 693 396 l 858 89 q 867 21 879 51 q 810 -10 854 -10 q 760 3 779 -10 q 726 43 740 15 l 581 313 q 513 385 551 367 q 415 404 475 404 l 258 404 l 258 64 q 186 -10 258 -10 m 258 513 l 496 513 q 710 689 710 513 q 496 864 710 864 l 258 864 l 258 513 m 536 1069 q 495 1053 518 1049 q 461 1078 472 1058 q 465 1119 450 1097 l 582 1290 q 622 1317 599 1315 q 665 1305 646 1318 q 690 1271 685 1292 q 676 1229 694 1250 l 536 1069 z "},"Ř":{"ha":940,"x_min":114,"x_max":879,"o":"m 186 -10 q 114 64 114 -10 l 114 906 q 188 979 114 979 l 519 979 q 764 903 678 979 q 850 692 850 828 q 792 512 850 582 q 626 418 733 442 q 739 311 693 396 l 858 89 q 867 21 879 51 q 810 -10 854 -10 q 760 3 779 -10 q 726 43 740 15 l 581 313 q 513 385 551 367 q 415 404 475 404 l 258 404 l 258 64 q 186 -10 258 -10 m 258 513 l 496 513 q 710 689 710 513 q 496 864 710 864 l 258 864 l 258 513 m 478 1049 q 393 1094 425 1049 l 281 1251 q 276 1293 264 1275 q 310 1315 288 1311 q 351 1296 333 1318 l 478 1146 l 604 1296 q 647 1315 624 1318 q 681 1293 669 1311 q 675 1251 692 1275 l 564 1094 q 478 1049 532 1049 z "},"Ŗ":{"ha":940,"x_min":114,"x_max":879,"o":"m 186 -10 q 114 64 114 -10 l 114 906 q 188 979 114 979 l 519 979 q 764 903 678 979 q 850 692 850 828 q 792 512 850 582 q 626 418 733 442 q 739 311 693 396 l 858 89 q 867 21 879 51 q 810 -10 854 -10 q 760 3 779 -10 q 726 43 740 15 l 581 313 q 513 385 551 367 q 415 404 475 404 l 258 404 l 258 64 q 186 -10 258 -10 m 258 513 l 496 513 q 710 689 710 513 q 496 864 710 864 l 258 864 l 258 513 m 506 -354 q 469 -372 489 -374 q 440 -353 449 -369 q 449 -311 432 -336 q 476 -246 469 -282 q 397 -172 397 -242 q 419 -119 397 -137 q 478 -100 440 -100 q 560 -187 560 -100 q 547 -274 560 -228 q 506 -354 533 -319 z "},"Ȑ":{"ha":940,"x_min":114,"x_max":879,"o":"m 186 -10 q 114 64 114 -10 l 114 906 q 188 979 114 979 l 519 979 q 764 903 678 979 q 850 692 850 828 q 792 512 850 582 q 626 418 733 442 q 739 311 693 396 l 858 89 q 867 21 879 51 q 810 -10 854 -10 q 760 3 779 -10 q 726 43 740 15 l 581 313 q 513 385 551 367 q 415 404 475 404 l 258 404 l 258 64 q 186 -10 258 -10 m 258 513 l 496 513 q 710 689 710 513 q 496 864 710 864 l 258 864 l 258 513 m 340 1068 l 218 1235 q 206 1278 200 1258 q 230 1309 211 1299 q 270 1315 249 1319 q 306 1286 292 1311 l 400 1107 q 401 1069 411 1086 q 373 1051 392 1053 q 340 1068 354 1049 m 525 1071 l 411 1235 q 400 1278 393 1258 q 426 1309 407 1299 q 467 1315 446 1319 q 503 1285 489 1310 l 593 1104 q 592 1068 603 1083 q 560 1051 581 1053 q 525 1071 540 1050 z "},"Ṛ":{"ha":940,"x_min":114,"x_max":879,"o":"m 186 -10 q 114 64 114 -10 l 114 906 q 188 979 114 979 l 519 979 q 764 903 678 979 q 850 692 850 828 q 792 512 850 582 q 626 418 733 442 q 739 311 693 396 l 858 89 q 867 21 879 51 q 810 -10 854 -10 q 760 3 779 -10 q 726 43 740 15 l 581 313 q 513 385 551 367 q 415 404 475 404 l 258 404 l 258 64 q 186 -10 258 -10 m 258 513 l 496 513 q 710 689 710 513 q 496 864 710 864 l 258 864 l 258 513 m 479 -276 q 401 -200 401 -276 q 479 -125 401 -125 q 558 -200 558 -125 q 479 -276 558 -276 z "},"Ȓ":{"ha":940,"x_min":114,"x_max":879,"o":"m 186 -10 q 114 64 114 -10 l 114 906 q 188 979 114 979 l 519 979 q 764 903 678 979 q 850 692 850 828 q 792 512 850 582 q 626 418 733 442 q 739 311 693 396 l 858 89 q 867 21 879 51 q 810 -10 854 -10 q 760 3 779 -10 q 726 43 740 15 l 581 313 q 513 385 551 367 q 415 404 475 404 l 258 404 l 258 64 q 186 -10 258 -10 m 258 513 l 496 513 q 710 689 710 513 q 496 864 710 864 l 258 864 l 258 513 m 275 1054 q 247 1071 258 1056 q 240 1110 235 1086 q 327 1253 263 1206 q 478 1301 392 1301 q 628 1253 564 1301 q 715 1110 693 1206 q 709 1071 721 1086 q 681 1054 697 1056 q 647 1064 658 1053 q 631 1090 635 1075 q 572 1186 615 1158 q 478 1214 529 1214 q 383 1186 426 1214 q 325 1090 340 1158 q 309 1064 321 1075 q 275 1054 297 1053 z "},"Ṟ":{"ha":940,"x_min":114,"x_max":879,"o":"m 186 -10 q 114 64 114 -10 l 114 906 q 188 979 114 979 l 519 979 q 764 903 678 979 q 850 692 850 828 q 792 512 850 582 q 626 418 733 442 q 739 311 693 396 l 858 89 q 867 21 879 51 q 810 -10 854 -10 q 760 3 779 -10 q 726 43 740 15 l 581 313 q 513 385 551 367 q 415 404 475 404 l 258 404 l 258 64 q 186 -10 258 -10 m 258 513 l 496 513 q 710 689 710 513 q 496 864 710 864 l 258 864 l 258 513 m 310 -222 q 263 -178 263 -222 q 310 -133 263 -133 l 650 -133 q 696 -178 696 -133 q 650 -222 696 -222 l 310 -222 z "},"S":{"ha":864,"x_min":65,"x_max":814,"o":"m 440 -12 q 256 10 344 -12 q 103 76 168 32 q 71 120 76 94 q 76 167 65 146 q 108 197 86 189 q 157 188 129 206 q 289 128 219 147 q 440 110 358 110 q 615 152 558 110 q 671 263 671 194 q 631 351 671 318 q 496 403 590 383 l 347 433 q 151 525 215 461 q 86 697 86 589 q 133 851 86 785 q 263 955 179 918 q 454 992 346 992 q 616 969 540 992 q 751 901 692 947 q 779 861 775 885 q 772 817 783 838 q 739 790 761 797 q 688 801 717 783 q 576 853 633 838 q 453 869 519 869 q 290 824 350 869 q 229 701 229 778 q 267 608 229 643 q 392 556 304 574 l 539 525 q 746 435 678 496 q 814 272 814 375 q 768 122 814 186 q 639 23 722 58 q 440 -12 556 -12 z "},"Ś":{"ha":864,"x_min":65,"x_max":814,"o":"m 440 -12 q 256 10 344 -12 q 103 76 168 32 q 71 120 76 94 q 76 167 65 146 q 108 197 86 189 q 157 188 129 206 q 289 128 219 147 q 440 110 358 110 q 615 152 558 110 q 671 263 671 194 q 631 351 671 318 q 496 403 590 383 l 347 433 q 151 525 215 461 q 86 697 86 589 q 133 851 86 785 q 263 955 179 918 q 454 992 346 992 q 616 969 540 992 q 751 901 692 947 q 779 861 775 885 q 772 817 783 838 q 739 790 761 797 q 688 801 717 783 q 576 853 633 838 q 453 869 519 869 q 290 824 350 869 q 229 701 229 778 q 267 608 229 643 q 392 556 304 574 l 539 525 q 746 435 678 496 q 814 272 814 375 q 768 122 814 186 q 639 23 722 58 q 440 -12 556 -12 m 501 1069 q 460 1053 483 1049 q 426 1078 438 1058 q 431 1119 415 1097 l 547 1290 q 588 1317 564 1315 q 631 1305 611 1318 q 655 1271 650 1292 q 642 1229 660 1250 l 501 1069 z "},"Ṥ":{"ha":864,"x_min":65,"x_max":814,"o":"m 440 -12 q 256 10 344 -12 q 103 76 168 32 q 71 120 76 94 q 76 167 65 146 q 108 197 86 189 q 157 188 129 206 q 289 128 219 147 q 440 110 358 110 q 615 152 558 110 q 671 263 671 194 q 631 351 671 318 q 496 403 590 383 l 347 433 q 151 525 215 461 q 86 697 86 589 q 133 851 86 785 q 263 955 179 918 q 454 992 346 992 q 616 969 540 992 q 751 901 692 947 q 779 861 775 885 q 772 817 783 838 q 739 790 761 797 q 688 801 717 783 q 576 853 633 838 q 453 869 519 869 q 290 824 350 869 q 229 701 229 778 q 267 608 229 643 q 392 556 304 574 l 539 525 q 746 435 678 496 q 814 272 814 375 q 768 122 814 186 q 639 23 722 58 q 440 -12 556 -12 m 376 1296 q 300 1357 300 1296 q 376 1418 300 1418 q 449 1357 449 1418 q 376 1296 449 1296 m 500 1069 q 460 1053 482 1049 q 426 1076 438 1057 q 431 1119 415 1096 l 549 1292 q 591 1322 567 1319 q 634 1312 615 1325 q 658 1276 653 1299 q 643 1232 663 1254 l 500 1069 z "},"Š":{"ha":864,"x_min":65,"x_max":814,"o":"m 440 -12 q 256 10 344 -12 q 103 76 168 32 q 71 120 76 94 q 76 167 65 146 q 108 197 86 189 q 157 188 129 206 q 289 128 219 147 q 440 110 358 110 q 615 152 558 110 q 671 263 671 194 q 631 351 671 318 q 496 403 590 383 l 347 433 q 151 525 215 461 q 86 697 86 589 q 133 851 86 785 q 263 955 179 918 q 454 992 346 992 q 616 969 540 992 q 751 901 692 947 q 779 861 775 885 q 772 817 783 838 q 739 790 761 797 q 688 801 717 783 q 576 853 633 838 q 453 869 519 869 q 290 824 350 869 q 229 701 229 778 q 267 608 229 643 q 392 556 304 574 l 539 525 q 746 435 678 496 q 814 272 814 375 q 768 122 814 186 q 639 23 722 58 q 440 -12 556 -12 m 443 1049 q 358 1094 390 1049 l 246 1251 q 241 1293 229 1275 q 276 1315 253 1311 q 317 1296 299 1318 l 443 1146 l 569 1296 q 612 1315 589 1318 q 646 1293 635 1311 q 640 1251 657 1275 l 529 1094 q 443 1049 497 1049 z "},"Ṧ":{"ha":864,"x_min":65,"x_max":814,"o":"m 440 -12 q 256 10 344 -12 q 103 76 168 32 q 71 120 76 94 q 76 167 65 146 q 108 197 86 189 q 157 188 129 206 q 289 128 219 147 q 440 110 358 110 q 615 152 558 110 q 671 263 671 194 q 631 351 671 318 q 496 403 590 383 l 347 433 q 151 525 215 461 q 86 697 86 589 q 133 851 86 785 q 263 955 179 918 q 454 992 346 992 q 616 969 540 992 q 751 901 692 947 q 779 861 775 885 q 772 817 783 838 q 739 790 761 797 q 688 801 717 783 q 576 853 633 838 q 453 869 519 869 q 290 824 350 869 q 229 701 229 778 q 267 608 229 643 q 392 556 304 574 l 539 525 q 746 435 678 496 q 814 272 814 375 q 768 122 814 186 q 639 23 722 58 q 440 -12 556 -12 m 444 1336 q 390 1353 410 1336 q 369 1399 369 1369 q 444 1458 369 1458 q 519 1399 519 1458 q 444 1336 519 1336 m 443 1050 q 396 1060 417 1050 q 358 1094 375 1069 l 249 1253 q 244 1288 236 1271 q 272 1309 253 1304 q 307 1296 290 1314 l 443 1146 l 579 1296 q 615 1309 597 1314 q 642 1288 633 1304 q 638 1253 650 1271 l 529 1094 q 491 1060 513 1069 q 443 1050 469 1050 z "},"Ş":{"ha":864,"x_min":65,"x_max":814,"o":"m 440 -12 q 256 10 344 -12 q 103 76 168 32 q 71 120 76 94 q 76 167 65 146 q 108 197 86 189 q 157 188 129 206 q 289 128 219 147 q 440 110 358 110 q 615 152 558 110 q 671 263 671 194 q 631 351 671 318 q 496 403 590 383 l 347 433 q 151 525 215 461 q 86 697 86 589 q 133 851 86 785 q 263 955 179 918 q 454 992 346 992 q 616 969 540 992 q 751 901 692 947 q 779 861 775 885 q 772 817 783 838 q 739 790 761 797 q 688 801 717 783 q 576 853 633 838 q 453 869 519 869 q 290 824 350 869 q 229 701 229 778 q 267 608 229 643 q 392 556 304 574 l 539 525 q 746 435 678 496 q 814 272 814 375 q 768 122 814 186 q 639 23 722 58 q 440 -12 556 -12 m 446 -269 q 392 -265 419 -269 q 342 -253 364 -261 q 314 -223 317 -243 q 325 -188 311 -203 q 364 -183 339 -174 q 438 -194 394 -194 q 496 -183 475 -194 q 517 -149 517 -171 q 464 -112 517 -112 q 442 -113 453 -112 q 419 -118 432 -114 q 388 -115 399 -124 q 381 -81 376 -107 l 397 28 l 478 28 l 464 -57 q 485 -56 475 -56 q 572 -81 539 -56 q 606 -153 606 -107 q 561 -237 606 -204 q 446 -269 517 -269 z "},"Ŝ":{"ha":864,"x_min":65,"x_max":814,"o":"m 440 -12 q 256 10 344 -12 q 103 76 168 32 q 71 120 76 94 q 76 167 65 146 q 108 197 86 189 q 157 188 129 206 q 289 128 219 147 q 440 110 358 110 q 615 152 558 110 q 671 263 671 194 q 631 351 671 318 q 496 403 590 383 l 347 433 q 151 525 215 461 q 86 697 86 589 q 133 851 86 785 q 263 955 179 918 q 454 992 346 992 q 616 969 540 992 q 751 901 692 947 q 779 861 775 885 q 772 817 783 838 q 739 790 761 797 q 688 801 717 783 q 576 853 633 838 q 453 869 519 869 q 290 824 350 869 q 229 701 229 778 q 267 608 229 643 q 392 556 304 574 l 539 525 q 746 435 678 496 q 814 272 814 375 q 768 122 814 186 q 639 23 722 58 q 440 -12 556 -12 m 317 1069 q 274 1052 297 1049 q 240 1074 251 1056 q 246 1114 229 1092 l 358 1271 q 443 1317 390 1317 q 529 1271 496 1317 l 640 1114 q 646 1074 657 1092 q 612 1052 635 1056 q 569 1069 589 1049 l 443 1218 l 317 1069 z "},"Ș":{"ha":864,"x_min":65,"x_max":814,"o":"m 440 -12 q 256 10 344 -12 q 103 76 168 32 q 71 120 76 94 q 76 167 65 146 q 108 197 86 189 q 157 188 129 206 q 289 128 219 147 q 440 110 358 110 q 615 152 558 110 q 671 263 671 194 q 631 351 671 318 q 496 403 590 383 l 347 433 q 151 525 215 461 q 86 697 86 589 q 133 851 86 785 q 263 955 179 918 q 454 992 346 992 q 616 969 540 992 q 751 901 692 947 q 779 861 775 885 q 772 817 783 838 q 739 790 761 797 q 688 801 717 783 q 576 853 633 838 q 453 869 519 869 q 290 824 350 869 q 229 701 229 778 q 267 608 229 643 q 392 556 304 574 l 539 525 q 746 435 678 496 q 814 272 814 375 q 768 122 814 186 q 639 23 722 58 q 440 -12 556 -12 m 469 -354 q 433 -372 453 -374 q 404 -353 413 -369 q 413 -311 396 -336 q 440 -246 433 -282 q 361 -172 361 -242 q 383 -119 361 -137 q 442 -100 404 -100 q 524 -187 524 -100 q 510 -274 524 -228 q 469 -354 497 -319 z "},"Ṡ":{"ha":864,"x_min":65,"x_max":814,"o":"m 440 -12 q 256 10 344 -12 q 103 76 168 32 q 71 120 76 94 q 76 167 65 146 q 108 197 86 189 q 157 188 129 206 q 289 128 219 147 q 440 110 358 110 q 615 152 558 110 q 671 263 671 194 q 631 351 671 318 q 496 403 590 383 l 347 433 q 151 525 215 461 q 86 697 86 589 q 133 851 86 785 q 263 955 179 918 q 454 992 346 992 q 616 969 540 992 q 751 901 692 947 q 779 861 775 885 q 772 817 783 838 q 739 790 761 797 q 688 801 717 783 q 576 853 633 838 q 453 869 519 869 q 290 824 350 869 q 229 701 229 778 q 267 608 229 643 q 392 556 304 574 l 539 525 q 746 435 678 496 q 814 272 814 375 q 768 122 814 186 q 639 23 722 58 q 440 -12 556 -12 m 443 1107 q 365 1182 365 1107 q 443 1257 365 1257 q 521 1182 521 1257 q 443 1107 521 1107 z "},"Ṣ":{"ha":864,"x_min":65,"x_max":814,"o":"m 440 -12 q 256 10 344 -12 q 103 76 168 32 q 71 120 76 94 q 76 167 65 146 q 108 197 86 189 q 157 188 129 206 q 289 128 219 147 q 440 110 358 110 q 615 152 558 110 q 671 263 671 194 q 631 351 671 318 q 496 403 590 383 l 347 433 q 151 525 215 461 q 86 697 86 589 q 133 851 86 785 q 263 955 179 918 q 454 992 346 992 q 616 969 540 992 q 751 901 692 947 q 779 861 775 885 q 772 817 783 838 q 739 790 761 797 q 688 801 717 783 q 576 853 633 838 q 453 869 519 869 q 290 824 350 869 q 229 701 229 778 q 267 608 229 643 q 392 556 304 574 l 539 525 q 746 435 678 496 q 814 272 814 375 q 768 122 814 186 q 639 23 722 58 q 440 -12 556 -12 m 443 -276 q 365 -200 365 -276 q 443 -125 365 -125 q 522 -200 522 -125 q 443 -276 522 -276 z "},"Ṩ":{"ha":864,"x_min":65,"x_max":814,"o":"m 440 -12 q 256 10 344 -12 q 103 76 168 32 q 71 120 76 94 q 76 167 65 146 q 108 197 86 189 q 157 188 129 206 q 289 128 219 147 q 440 110 358 110 q 615 152 558 110 q 671 263 671 194 q 631 351 671 318 q 496 403 590 383 l 347 433 q 151 525 215 461 q 86 697 86 589 q 133 851 86 785 q 263 955 179 918 q 454 992 346 992 q 616 969 540 992 q 751 901 692 947 q 779 861 775 885 q 772 817 783 838 q 739 790 761 797 q 688 801 717 783 q 576 853 633 838 q 453 869 519 869 q 290 824 350 869 q 229 701 229 778 q 267 608 229 643 q 392 556 304 574 l 539 525 q 746 435 678 496 q 814 272 814 375 q 768 122 814 186 q 639 23 722 58 q 440 -12 556 -12 m 443 -276 q 365 -200 365 -276 q 443 -125 365 -125 q 522 -200 522 -125 q 443 -276 522 -276 m 443 1107 q 365 1182 365 1107 q 443 1257 365 1257 q 521 1182 521 1257 q 443 1107 521 1107 z "},"ẞ":{"ha":1000,"x_min":114,"x_max":921,"o":"m 613 -12 q 480 3 542 -12 q 374 50 418 19 q 344 88 349 65 q 351 131 340 111 q 381 160 361 151 q 422 154 400 168 q 508 115 465 126 q 599 104 551 104 q 734 149 688 104 q 781 271 781 194 q 729 392 781 350 q 574 433 678 433 l 450 433 q 407 449 424 433 q 390 492 390 464 q 406 534 390 519 q 444 549 421 549 l 543 549 q 679 590 629 549 q 729 711 729 632 q 675 832 729 790 q 518 874 621 874 q 258 631 258 874 l 258 64 q 186 -10 258 -10 q 114 64 114 -10 l 114 633 q 222 901 114 810 q 522 992 329 992 q 776 922 682 992 q 869 731 869 851 q 833 595 869 654 q 733 506 797 536 q 870 422 819 485 q 921 264 921 358 q 839 60 921 132 q 613 -12 757 -12 z "},"Ə":{"ha":1076,"x_min":81,"x_max":997,"o":"m 547 -12 q 289 51 393 -12 q 133 230 185 115 q 81 496 81 344 q 129 551 81 551 l 844 551 q 739 785 829 704 q 493 867 649 867 q 346 849 411 867 q 219 793 281 832 q 166 784 189 776 q 132 813 143 792 q 126 859 121 835 q 158 900 132 883 q 316 968 226 944 q 508 992 406 992 q 767 931 657 992 q 937 758 876 871 q 997 489 997 646 q 941 222 997 335 q 783 49 885 110 q 547 -12 682 -12 m 542 108 q 753 192 674 108 q 844 433 832 275 l 229 433 q 319 191 240 274 q 542 108 397 108 z "},"T":{"ha":849,"x_min":-4,"x_max":854,"o":"m 425 -10 q 353 64 353 -10 l 353 858 l 58 858 q -4 919 -4 858 q 58 979 -4 979 l 790 979 q 854 919 854 979 q 790 858 854 858 l 496 858 l 496 64 q 425 -10 496 -10 z "},"Ŧ":{"ha":849,"x_min":-4,"x_max":854,"o":"m 425 -10 q 353 64 353 -10 l 353 858 l 58 858 q -4 919 -4 858 q 58 979 -4 979 l 790 979 q 854 919 854 979 q 790 858 854 858 l 496 858 l 496 64 q 425 -10 496 -10 m 203 443 q 147 497 147 443 q 203 550 147 550 l 646 550 q 701 497 701 550 q 646 443 701 443 l 203 443 z "},"Ť":{"ha":849,"x_min":-4,"x_max":854,"o":"m 425 -10 q 353 64 353 -10 l 353 858 l 58 858 q -4 919 -4 858 q 58 979 -4 979 l 790 979 q 854 919 854 979 q 790 858 854 858 l 496 858 l 496 64 q 425 -10 496 -10 m 425 1049 q 340 1094 372 1049 l 228 1251 q 223 1293 211 1275 q 258 1315 235 1311 q 299 1296 281 1318 l 425 1146 l 551 1296 q 594 1315 571 1318 q 628 1293 617 1311 q 622 1251 639 1275 l 511 1094 q 425 1049 479 1049 z "},"Ţ":{"ha":849,"x_min":-4,"x_max":854,"o":"m 425 -10 q 353 64 353 -10 l 353 858 l 58 858 q -4 919 -4 858 q 58 979 -4 979 l 790 979 q 854 919 854 979 q 790 858 854 858 l 496 858 l 496 64 q 425 -10 496 -10 m 428 -269 q 374 -265 401 -269 q 324 -253 346 -261 q 296 -223 299 -243 q 307 -188 293 -203 q 346 -183 321 -174 q 419 -194 376 -194 q 478 -183 457 -194 q 499 -149 499 -171 q 446 -112 499 -112 q 424 -113 435 -112 q 401 -118 414 -114 q 369 -115 381 -124 q 363 -81 358 -107 l 379 28 l 460 28 l 446 -57 q 467 -56 457 -56 q 554 -81 521 -56 q 588 -153 588 -107 q 543 -237 588 -204 q 428 -269 499 -269 z "},"Ț":{"ha":849,"x_min":-4,"x_max":854,"o":"m 425 -10 q 353 64 353 -10 l 353 858 l 58 858 q -4 919 -4 858 q 58 979 -4 979 l 790 979 q 854 919 854 979 q 790 858 854 858 l 496 858 l 496 64 q 425 -10 496 -10 m 451 -354 q 415 -372 435 -374 q 386 -353 394 -369 q 394 -311 378 -336 q 422 -246 415 -282 q 343 -172 343 -242 q 365 -119 343 -137 q 424 -100 386 -100 q 506 -187 506 -100 q 492 -274 506 -228 q 451 -354 479 -319 z "},"Ṭ":{"ha":849,"x_min":-4,"x_max":854,"o":"m 425 -10 q 353 64 353 -10 l 353 858 l 58 858 q -4 919 -4 858 q 58 979 -4 979 l 790 979 q 854 919 854 979 q 790 858 854 858 l 496 858 l 496 64 q 425 -10 496 -10 m 425 -276 q 347 -200 347 -276 q 425 -125 347 -125 q 504 -200 504 -125 q 425 -276 504 -276 z "},"Ṯ":{"ha":849,"x_min":-4,"x_max":854,"o":"m 425 -10 q 353 64 353 -10 l 353 858 l 58 858 q -4 919 -4 858 q 58 979 -4 979 l 790 979 q 854 919 854 979 q 790 858 854 858 l 496 858 l 496 64 q 425 -10 496 -10 m 256 -222 q 208 -178 208 -222 q 256 -133 208 -133 l 596 -133 q 642 -178 642 -133 q 596 -222 642 -222 l 256 -222 z "},"U":{"ha":1018,"x_min":107,"x_max":910,"o":"m 510 -12 q 210 91 314 -12 q 107 394 107 194 l 107 917 q 179 989 107 989 q 251 917 251 989 l 251 397 q 510 113 251 113 q 768 397 768 113 l 768 917 q 839 989 768 989 q 910 917 910 989 l 910 394 q 808 91 910 194 q 510 -12 707 -12 z "},"Ú":{"ha":1018,"x_min":107,"x_max":910,"o":"m 510 -12 q 210 91 314 -12 q 107 394 107 194 l 107 917 q 179 989 107 989 q 251 917 251 989 l 251 397 q 510 113 251 113 q 768 397 768 113 l 768 917 q 839 989 768 989 q 910 917 910 989 l 910 394 q 808 91 910 194 q 510 -12 707 -12 m 568 1069 q 527 1053 550 1049 q 493 1078 504 1058 q 497 1119 482 1097 l 614 1290 q 654 1317 631 1315 q 697 1305 678 1318 q 722 1271 717 1292 q 708 1229 726 1250 l 568 1069 z "},"Ŭ":{"ha":1018,"x_min":107,"x_max":910,"o":"m 510 -12 q 210 91 314 -12 q 107 394 107 194 l 107 917 q 179 989 107 989 q 251 917 251 989 l 251 397 q 510 113 251 113 q 768 397 768 113 l 768 917 q 839 989 768 989 q 910 917 910 989 l 910 394 q 808 91 910 194 q 510 -12 707 -12 m 510 1056 q 359 1104 424 1056 q 272 1249 294 1153 q 278 1287 267 1272 q 307 1303 290 1301 q 341 1294 329 1306 q 357 1267 353 1282 q 415 1172 371 1200 q 510 1144 458 1144 q 605 1172 561 1144 q 663 1267 649 1200 q 678 1294 667 1282 q 713 1303 690 1306 q 741 1287 729 1301 q 747 1249 753 1272 q 660 1104 725 1153 q 510 1056 596 1056 z "},"Û":{"ha":1018,"x_min":107,"x_max":910,"o":"m 510 -12 q 210 91 314 -12 q 107 394 107 194 l 107 917 q 179 989 107 989 q 251 917 251 989 l 251 397 q 510 113 251 113 q 768 397 768 113 l 768 917 q 839 989 768 989 q 910 917 910 989 l 910 394 q 808 91 910 194 q 510 -12 707 -12 m 383 1069 q 341 1052 364 1049 q 307 1074 318 1056 q 313 1114 296 1092 l 425 1271 q 510 1317 457 1317 q 596 1271 563 1317 l 707 1114 q 713 1074 724 1092 q 678 1052 701 1056 q 636 1069 656 1049 l 510 1218 l 383 1069 z "},"Ȕ":{"ha":1018,"x_min":107,"x_max":910,"o":"m 510 -12 q 210 91 314 -12 q 107 394 107 194 l 107 917 q 179 989 107 989 q 251 917 251 989 l 251 397 q 510 113 251 113 q 768 397 768 113 l 768 917 q 839 989 768 989 q 910 917 910 989 l 910 394 q 808 91 910 194 q 510 -12 707 -12 m 372 1068 l 250 1235 q 238 1278 232 1258 q 262 1309 243 1299 q 302 1315 281 1319 q 338 1286 324 1311 l 432 1107 q 433 1069 443 1086 q 405 1051 424 1053 q 372 1068 386 1049 m 557 1071 l 443 1235 q 432 1278 425 1258 q 458 1309 439 1299 q 499 1315 478 1319 q 535 1285 521 1310 l 625 1104 q 624 1068 635 1083 q 592 1051 613 1053 q 557 1071 572 1050 z "},"Ü":{"ha":1018,"x_min":107,"x_max":910,"o":"m 510 -12 q 210 91 314 -12 q 107 394 107 194 l 107 917 q 179 989 107 989 q 251 917 251 989 l 251 397 q 510 113 251 113 q 768 397 768 113 l 768 917 q 839 989 768 989 q 910 917 910 989 l 910 394 q 808 91 910 194 q 510 -12 707 -12 m 636 1104 q 561 1179 561 1104 q 636 1251 561 1251 q 710 1179 710 1251 q 636 1104 710 1104 m 385 1104 q 310 1179 310 1104 q 330 1233 310 1214 q 385 1251 350 1251 q 460 1179 460 1251 q 385 1104 460 1104 z "},"Ụ":{"ha":1018,"x_min":107,"x_max":910,"o":"m 510 -12 q 210 91 314 -12 q 107 394 107 194 l 107 917 q 179 989 107 989 q 251 917 251 989 l 251 397 q 510 113 251 113 q 768 397 768 113 l 768 917 q 839 989 768 989 q 910 917 910 989 l 910 394 q 808 91 910 194 q 510 -12 707 -12 m 510 -276 q 432 -200 432 -276 q 510 -125 432 -125 q 589 -200 589 -125 q 510 -276 589 -276 z "},"Ù":{"ha":1018,"x_min":107,"x_max":910,"o":"m 510 -12 q 210 91 314 -12 q 107 394 107 194 l 107 917 q 179 989 107 989 q 251 917 251 989 l 251 397 q 510 113 251 113 q 768 397 768 113 l 768 917 q 839 989 768 989 q 910 917 910 989 l 910 394 q 808 91 910 194 q 510 -12 707 -12 m 451 1069 l 313 1229 q 299 1271 293 1250 q 324 1305 304 1292 q 366 1317 343 1318 q 407 1290 389 1315 l 524 1119 q 527 1078 539 1097 q 493 1053 515 1058 q 451 1069 471 1049 z "},"Ủ":{"ha":1018,"x_min":107,"x_max":910,"o":"m 510 -12 q 210 91 314 -12 q 107 394 107 194 l 107 917 q 179 989 107 989 q 251 917 251 989 l 251 397 q 510 113 251 113 q 768 397 768 113 l 768 917 q 839 989 768 989 q 910 917 910 989 l 910 394 q 808 91 910 194 q 510 -12 707 -12 m 510 1053 q 464 1086 464 1053 q 477 1129 464 1113 q 506 1158 490 1146 q 535 1181 522 1169 q 547 1207 547 1192 q 488 1236 547 1236 q 462 1235 476 1236 q 435 1229 447 1233 q 381 1247 390 1218 q 382 1275 376 1263 q 408 1294 388 1288 q 518 1311 453 1311 q 621 1288 583 1311 q 658 1225 658 1265 q 642 1177 658 1194 q 606 1147 626 1160 q 571 1119 586 1133 q 556 1078 556 1104 q 510 1053 556 1053 z "},"Ư":{"ha":1018,"x_min":107,"x_max":1069,"o":"m 510 -12 q 210 91 314 -12 q 107 394 107 194 l 107 917 q 179 989 107 989 q 251 917 251 989 l 251 397 q 510 113 251 113 q 768 397 768 113 l 768 917 q 839 989 768 989 q 910 917 910 989 l 910 394 q 808 91 910 194 q 510 -12 707 -12 m 878 901 l 801 950 l 801 979 q 914 1013 882 979 q 946 1117 946 1047 q 1008 1168 946 1168 q 1069 1117 1069 1168 q 1019 965 1069 1022 q 878 901 968 908 z "},"Ứ":{"ha":1018,"x_min":107,"x_max":1069,"o":"m 510 -12 q 210 91 314 -12 q 107 394 107 194 l 107 917 q 179 989 107 989 q 251 917 251 989 l 251 397 q 510 113 251 113 q 768 397 768 113 l 768 917 q 839 989 768 989 q 910 917 910 989 l 910 394 q 808 91 910 194 q 510 -12 707 -12 m 878 901 l 801 950 l 801 979 q 914 1013 882 979 q 946 1117 946 1047 q 1008 1168 946 1168 q 1069 1117 1069 1168 q 1019 965 1069 1022 q 878 901 968 908 m 568 1069 q 527 1053 550 1049 q 493 1078 504 1058 q 497 1119 482 1097 l 614 1290 q 654 1317 631 1315 q 697 1305 678 1318 q 722 1271 717 1292 q 708 1229 726 1250 l 568 1069 z "},"Ự":{"ha":1018,"x_min":107,"x_max":1069,"o":"m 510 -12 q 210 91 314 -12 q 107 394 107 194 l 107 917 q 179 989 107 989 q 251 917 251 989 l 251 397 q 510 113 251 113 q 768 397 768 113 l 768 917 q 839 989 768 989 q 910 917 910 989 l 910 394 q 808 91 910 194 q 510 -12 707 -12 m 878 901 l 801 950 l 801 979 q 914 1013 882 979 q 946 1117 946 1047 q 1008 1168 946 1168 q 1069 1117 1069 1168 q 1019 965 1069 1022 q 878 901 968 908 m 510 -276 q 432 -200 432 -276 q 510 -125 432 -125 q 589 -200 589 -125 q 510 -276 589 -276 z "},"Ừ":{"ha":1018,"x_min":107,"x_max":1069,"o":"m 510 -12 q 210 91 314 -12 q 107 394 107 194 l 107 917 q 179 989 107 989 q 251 917 251 989 l 251 397 q 510 113 251 113 q 768 397 768 113 l 768 917 q 839 989 768 989 q 910 917 910 989 l 910 394 q 808 91 910 194 q 510 -12 707 -12 m 878 901 l 801 950 l 801 979 q 914 1013 882 979 q 946 1117 946 1047 q 1008 1168 946 1168 q 1069 1117 1069 1168 q 1019 965 1069 1022 q 878 901 968 908 m 451 1069 l 313 1229 q 299 1271 293 1250 q 324 1305 304 1292 q 366 1317 343 1318 q 407 1290 389 1315 l 524 1119 q 527 1078 539 1097 q 493 1053 515 1058 q 451 1069 471 1049 z "},"Ử":{"ha":1018,"x_min":107,"x_max":1069,"o":"m 510 -12 q 210 91 314 -12 q 107 394 107 194 l 107 917 q 179 989 107 989 q 251 917 251 989 l 251 397 q 510 113 251 113 q 768 397 768 113 l 768 917 q 839 989 768 989 q 910 917 910 989 l 910 394 q 808 91 910 194 q 510 -12 707 -12 m 878 901 l 801 950 l 801 979 q 914 1013 882 979 q 946 1117 946 1047 q 1008 1168 946 1168 q 1069 1117 1069 1168 q 1019 965 1069 1022 q 878 901 968 908 m 510 1053 q 464 1086 464 1053 q 477 1129 464 1113 q 506 1158 490 1146 q 535 1181 522 1169 q 547 1207 547 1192 q 488 1236 547 1236 q 462 1235 476 1236 q 435 1229 447 1233 q 381 1247 390 1218 q 382 1275 376 1263 q 408 1294 388 1288 q 518 1311 453 1311 q 621 1288 583 1311 q 658 1225 658 1265 q 642 1177 658 1194 q 606 1147 626 1160 q 571 1119 586 1133 q 556 1078 556 1104 q 510 1053 556 1053 z "},"Ữ":{"ha":1018,"x_min":107,"x_max":1069,"o":"m 510 -12 q 210 91 314 -12 q 107 394 107 194 l 107 917 q 179 989 107 989 q 251 917 251 989 l 251 397 q 510 113 251 113 q 768 397 768 113 l 768 917 q 839 989 768 989 q 910 917 910 989 l 910 394 q 808 91 910 194 q 510 -12 707 -12 m 878 901 l 801 950 l 801 979 q 914 1013 882 979 q 946 1117 946 1047 q 1008 1168 946 1168 q 1069 1117 1069 1168 q 1019 965 1069 1022 q 878 901 968 908 m 263 1076 q 236 1088 246 1076 q 229 1122 226 1100 q 286 1238 242 1196 q 392 1279 331 1279 q 456 1265 428 1279 q 510 1231 485 1250 q 559 1196 535 1211 q 610 1181 583 1181 q 665 1202 642 1181 q 696 1256 688 1224 q 738 1289 706 1290 q 765 1276 754 1288 q 771 1243 775 1265 q 715 1127 758 1169 q 608 1085 671 1085 q 545 1100 574 1085 q 492 1135 517 1115 q 442 1169 467 1154 q 390 1185 418 1185 q 336 1163 358 1185 q 306 1108 314 1142 q 263 1076 294 1075 z "},"Ű":{"ha":1018,"x_min":107,"x_max":910,"o":"m 510 -12 q 210 91 314 -12 q 107 394 107 194 l 107 917 q 179 989 107 989 q 251 917 251 989 l 251 397 q 510 113 251 113 q 768 397 768 113 l 768 917 q 839 989 768 989 q 910 917 910 989 l 910 394 q 808 91 910 194 q 510 -12 707 -12 m 649 1068 q 615 1051 633 1049 q 586 1069 596 1053 q 588 1107 576 1085 l 683 1286 q 718 1315 696 1311 q 759 1309 740 1319 q 783 1278 778 1299 q 771 1235 789 1258 l 649 1068 m 463 1071 q 427 1051 447 1050 q 396 1068 407 1053 q 396 1104 385 1083 l 485 1285 q 520 1315 499 1310 q 561 1309 542 1319 q 588 1278 581 1299 q 576 1235 594 1258 l 463 1071 z "},"Ȗ":{"ha":1018,"x_min":107,"x_max":910,"o":"m 510 -12 q 210 91 314 -12 q 107 394 107 194 l 107 917 q 179 989 107 989 q 251 917 251 989 l 251 397 q 510 113 251 113 q 768 397 768 113 l 768 917 q 839 989 768 989 q 910 917 910 989 l 910 394 q 808 91 910 194 q 510 -12 707 -12 m 307 1054 q 278 1071 290 1056 q 272 1110 267 1086 q 359 1253 294 1206 q 510 1301 424 1301 q 660 1253 596 1301 q 747 1110 725 1206 q 741 1071 753 1086 q 713 1054 729 1056 q 678 1064 690 1053 q 663 1090 667 1075 q 604 1186 647 1158 q 510 1214 561 1214 q 415 1186 458 1214 q 357 1090 372 1158 q 341 1064 353 1075 q 307 1054 329 1053 z "},"Ū":{"ha":1018,"x_min":107,"x_max":910,"o":"m 510 -12 q 210 91 314 -12 q 107 394 107 194 l 107 917 q 179 989 107 989 q 251 917 251 989 l 251 397 q 510 113 251 113 q 768 397 768 113 l 768 917 q 839 989 768 989 q 910 917 910 989 l 910 394 q 808 91 910 194 q 510 -12 707 -12 m 319 1126 q 272 1169 272 1126 q 319 1214 272 1214 l 701 1214 q 747 1169 747 1214 q 701 1126 747 1126 l 319 1126 z "},"Ṻ":{"ha":1018,"x_min":107,"x_max":910,"o":"m 510 -12 q 210 91 314 -12 q 107 394 107 194 l 107 917 q 179 989 107 989 q 251 917 251 989 l 251 397 q 510 113 251 113 q 768 397 768 113 l 768 917 q 839 989 768 989 q 910 917 910 989 l 910 394 q 808 91 910 194 q 510 -12 707 -12 m 385 1257 q 310 1318 310 1257 q 330 1363 310 1347 q 385 1379 350 1379 q 460 1318 460 1379 q 385 1257 460 1257 m 636 1257 q 561 1318 561 1257 q 636 1379 561 1379 q 710 1318 710 1379 q 636 1257 710 1257 m 343 1101 q 292 1146 292 1101 q 343 1190 292 1190 l 676 1190 q 728 1146 728 1190 q 676 1101 728 1101 l 343 1101 z "},"Ų":{"ha":1018,"x_min":107,"x_max":910,"o":"m 510 -12 q 210 91 314 -12 q 107 394 107 194 l 107 917 q 179 989 107 989 q 251 917 251 989 l 251 397 q 510 113 251 113 q 768 397 768 113 l 768 917 q 839 989 768 989 q 910 917 910 989 l 910 394 q 808 91 910 194 q 510 -12 707 -12 m 561 -269 q 449 -231 490 -269 q 407 -129 407 -193 q 444 -24 407 -72 q 544 54 481 25 l 589 0 q 528 -44 556 -14 q 501 -114 501 -74 q 524 -170 501 -151 q 581 -189 546 -189 q 625 -182 603 -189 q 667 -189 654 -174 q 674 -226 679 -204 q 646 -257 668 -247 q 603 -267 625 -264 q 561 -269 581 -269 z "},"Ů":{"ha":1018,"x_min":107,"x_max":910,"o":"m 510 -12 q 210 91 314 -12 q 107 394 107 194 l 107 917 q 179 989 107 989 q 251 917 251 989 l 251 397 q 510 113 251 113 q 768 397 768 113 l 768 917 q 839 989 768 989 q 910 917 910 989 l 910 394 q 808 91 910 194 q 510 -12 707 -12 m 510 1050 q 389 1099 438 1050 q 340 1217 340 1147 q 389 1333 340 1286 q 510 1381 438 1381 q 631 1333 582 1381 q 679 1217 679 1286 q 631 1099 679 1147 q 510 1050 582 1050 m 510 1119 q 578 1147 551 1119 q 606 1217 606 1175 q 578 1284 606 1257 q 510 1311 551 1311 q 441 1284 468 1311 q 414 1217 414 1257 q 441 1147 414 1175 q 510 1119 468 1119 z "},"Ũ":{"ha":1018,"x_min":107,"x_max":910,"o":"m 510 -12 q 210 91 314 -12 q 107 394 107 194 l 107 917 q 179 989 107 989 q 251 917 251 989 l 251 397 q 510 113 251 113 q 768 397 768 113 l 768 917 q 839 989 768 989 q 910 917 910 989 l 910 394 q 808 91 910 194 q 510 -12 707 -12 m 251 1076 q 222 1088 233 1076 q 215 1122 211 1100 q 276 1238 231 1197 q 386 1279 321 1279 q 458 1265 424 1279 q 522 1231 492 1250 q 581 1196 553 1211 q 638 1181 610 1181 q 697 1201 674 1181 q 726 1257 719 1222 q 768 1289 736 1290 q 797 1276 786 1288 q 804 1243 808 1264 q 744 1126 789 1168 q 635 1085 700 1085 q 563 1100 596 1085 q 498 1135 529 1115 q 438 1169 467 1154 q 382 1185 410 1185 q 323 1163 346 1185 q 293 1108 300 1142 q 251 1076 283 1075 z "},"Ṹ":{"ha":1018,"x_min":107,"x_max":910,"o":"m 510 -12 q 210 91 314 -12 q 107 394 107 194 l 107 917 q 179 989 107 989 q 251 917 251 989 l 251 397 q 510 113 251 113 q 768 397 768 113 l 768 917 q 839 989 768 989 q 910 917 910 989 l 910 394 q 808 91 910 194 q 510 -12 707 -12 m 554 1231 q 518 1215 539 1213 q 486 1235 497 1218 q 488 1275 475 1251 l 569 1414 q 608 1444 585 1440 q 650 1435 631 1447 q 675 1403 669 1424 q 661 1360 681 1382 l 554 1231 m 318 1064 q 292 1076 301 1064 q 289 1110 283 1089 q 336 1187 301 1161 q 419 1213 371 1213 q 487 1196 457 1213 q 543 1163 517 1179 q 597 1146 569 1146 q 636 1155 619 1146 q 660 1186 653 1164 q 703 1215 671 1217 q 728 1202 719 1214 q 732 1169 738 1190 q 685 1092 719 1118 q 601 1065 650 1065 q 533 1083 563 1065 q 476 1117 503 1100 q 424 1133 450 1133 q 385 1124 401 1133 q 361 1093 368 1114 q 318 1064 350 1061 z "},"V":{"ha":972,"x_min":11,"x_max":960,"o":"m 486 -10 q 403 49 428 -10 l 29 894 q 31 963 11 938 q 89 989 51 989 q 138 975 121 989 q 165 933 154 961 l 489 182 l 811 935 q 841 975 824 961 q 889 989 858 989 q 942 963 925 989 q 942 894 960 936 l 569 49 q 538 4 557 18 q 486 -10 518 -10 z "},"W":{"ha":1538,"x_min":51,"x_max":1489,"o":"m 443 -10 q 363 53 385 -10 l 64 904 q 69 965 51 940 q 126 989 86 989 q 174 975 157 989 q 201 931 192 961 l 447 208 l 699 928 q 772 989 722 989 q 816 974 800 989 q 844 926 832 958 l 1093 200 l 1344 931 q 1372 974 1354 960 q 1418 989 1389 989 q 1472 965 1454 989 q 1475 904 1489 940 l 1175 51 q 1144 6 1163 21 q 1096 -10 1126 -10 q 1046 6 1064 -10 q 1017 53 1028 21 l 769 761 l 519 51 q 491 6 508 21 q 443 -10 474 -10 z "},"Ẃ":{"ha":1538,"x_min":51,"x_max":1489,"o":"m 443 -10 q 363 53 385 -10 l 64 904 q 69 965 51 940 q 126 989 86 989 q 174 975 157 989 q 201 931 192 961 l 447 208 l 699 928 q 772 989 722 989 q 816 974 800 989 q 844 926 832 958 l 1093 200 l 1344 931 q 1372 974 1354 960 q 1418 989 1389 989 q 1472 965 1454 989 q 1475 904 1489 940 l 1175 51 q 1144 6 1163 21 q 1096 -10 1126 -10 q 1046 6 1064 -10 q 1017 53 1028 21 l 769 761 l 519 51 q 491 6 508 21 q 443 -10 474 -10 m 828 1069 q 787 1053 810 1049 q 753 1078 764 1058 q 757 1119 742 1097 l 874 1290 q 914 1317 890 1315 q 957 1305 938 1318 q 981 1271 976 1292 q 968 1229 986 1250 l 828 1069 z "},"Ŵ":{"ha":1538,"x_min":51,"x_max":1489,"o":"m 443 -10 q 363 53 385 -10 l 64 904 q 69 965 51 940 q 126 989 86 989 q 174 975 157 989 q 201 931 192 961 l 447 208 l 699 928 q 772 989 722 989 q 816 974 800 989 q 844 926 832 958 l 1093 200 l 1344 931 q 1372 974 1354 960 q 1418 989 1389 989 q 1472 965 1454 989 q 1475 904 1489 940 l 1175 51 q 1144 6 1163 21 q 1096 -10 1126 -10 q 1046 6 1064 -10 q 1017 53 1028 21 l 769 761 l 519 51 q 491 6 508 21 q 443 -10 474 -10 m 643 1069 q 601 1052 624 1049 q 567 1074 578 1056 q 572 1114 556 1092 l 685 1271 q 769 1317 717 1317 q 856 1271 822 1317 l 967 1114 q 972 1074 983 1092 q 938 1052 961 1056 q 896 1069 915 1049 l 769 1218 l 643 1069 z "},"Ẅ":{"ha":1538,"x_min":51,"x_max":1489,"o":"m 443 -10 q 363 53 385 -10 l 64 904 q 69 965 51 940 q 126 989 86 989 q 174 975 157 989 q 201 931 192 961 l 447 208 l 699 928 q 772 989 722 989 q 816 974 800 989 q 844 926 832 958 l 1093 200 l 1344 931 q 1372 974 1354 960 q 1418 989 1389 989 q 1472 965 1454 989 q 1475 904 1489 940 l 1175 51 q 1144 6 1163 21 q 1096 -10 1126 -10 q 1046 6 1064 -10 q 1017 53 1028 21 l 769 761 l 519 51 q 491 6 508 21 q 443 -10 474 -10 m 896 1104 q 821 1179 821 1104 q 896 1251 821 1251 q 969 1179 969 1251 q 896 1104 969 1104 m 644 1104 q 569 1179 569 1104 q 590 1233 569 1214 q 644 1251 610 1251 q 719 1179 719 1251 q 644 1104 719 1104 z "},"Ẁ":{"ha":1538,"x_min":51,"x_max":1489,"o":"m 443 -10 q 363 53 385 -10 l 64 904 q 69 965 51 940 q 126 989 86 989 q 174 975 157 989 q 201 931 192 961 l 447 208 l 699 928 q 772 989 722 989 q 816 974 800 989 q 844 926 832 958 l 1093 200 l 1344 931 q 1372 974 1354 960 q 1418 989 1389 989 q 1472 965 1454 989 q 1475 904 1489 940 l 1175 51 q 1144 6 1163 21 q 1096 -10 1126 -10 q 1046 6 1064 -10 q 1017 53 1028 21 l 769 761 l 519 51 q 491 6 508 21 q 443 -10 474 -10 m 711 1069 l 572 1229 q 558 1271 553 1250 q 583 1305 564 1292 q 626 1317 603 1318 q 667 1290 649 1315 l 783 1119 q 787 1078 799 1097 q 753 1053 775 1058 q 711 1069 731 1049 z "},"X":{"ha":917,"x_min":44,"x_max":872,"o":"m 122 -10 q 63 22 81 -10 q 71 89 44 53 l 378 500 l 89 888 q 78 957 60 925 q 138 989 96 989 q 213 943 179 989 l 460 606 l 704 943 q 781 989 738 989 q 840 958 822 989 q 829 888 858 926 l 540 500 l 846 89 q 855 22 872 53 q 794 -10 838 -10 q 718 36 753 -10 l 458 392 l 200 36 q 122 -10 165 -10 z "},"Y":{"ha":842,"x_min":15,"x_max":829,"o":"m 421 -10 q 349 65 349 -10 l 349 457 l 38 890 q 30 956 15 922 q 89 989 44 989 q 165 943 133 989 l 424 583 l 682 943 q 717 978 700 968 q 758 989 733 989 q 815 958 801 989 q 803 889 829 926 l 492 456 l 492 65 q 421 -10 492 -10 z "},"Ý":{"ha":842,"x_min":15,"x_max":829,"o":"m 421 -10 q 349 65 349 -10 l 349 457 l 38 890 q 30 956 15 922 q 89 989 44 989 q 165 943 133 989 l 424 583 l 682 943 q 717 978 700 968 q 758 989 733 989 q 815 958 801 989 q 803 889 829 926 l 492 456 l 492 65 q 421 -10 492 -10 m 479 1069 q 438 1053 461 1049 q 404 1078 415 1058 q 408 1119 393 1097 l 525 1290 q 565 1317 542 1315 q 608 1305 589 1318 q 633 1271 628 1292 q 619 1229 638 1250 l 479 1069 z "},"Ŷ":{"ha":842,"x_min":15,"x_max":829,"o":"m 421 -10 q 349 65 349 -10 l 349 457 l 38 890 q 30 956 15 922 q 89 989 44 989 q 165 943 133 989 l 424 583 l 682 943 q 717 978 700 968 q 758 989 733 989 q 815 958 801 989 q 803 889 829 926 l 492 456 l 492 65 q 421 -10 492 -10 m 294 1069 q 252 1052 275 1049 q 218 1074 229 1056 q 224 1114 207 1092 l 336 1271 q 421 1317 368 1317 q 507 1271 474 1317 l 618 1114 q 624 1074 635 1092 q 590 1052 613 1056 q 547 1069 567 1049 l 421 1218 l 294 1069 z "},"Ÿ":{"ha":842,"x_min":15,"x_max":829,"o":"m 421 -10 q 349 65 349 -10 l 349 457 l 38 890 q 30 956 15 922 q 89 989 44 989 q 165 943 133 989 l 424 583 l 682 943 q 717 978 700 968 q 758 989 733 989 q 815 958 801 989 q 803 889 829 926 l 492 456 l 492 65 q 421 -10 492 -10 m 547 1104 q 472 1179 472 1104 q 547 1251 472 1251 q 621 1179 621 1251 q 547 1104 621 1104 m 296 1104 q 221 1179 221 1104 q 241 1233 221 1214 q 296 1251 261 1251 q 371 1179 371 1251 q 296 1104 371 1104 z "},"Ẏ":{"ha":842,"x_min":15,"x_max":829,"o":"m 421 -10 q 349 65 349 -10 l 349 457 l 38 890 q 30 956 15 922 q 89 989 44 989 q 165 943 133 989 l 424 583 l 682 943 q 717 978 700 968 q 758 989 733 989 q 815 958 801 989 q 803 889 829 926 l 492 456 l 492 65 q 421 -10 492 -10 m 421 1107 q 343 1182 343 1107 q 421 1257 343 1257 q 499 1182 499 1257 q 421 1107 499 1107 z "},"Ỵ":{"ha":842,"x_min":15,"x_max":829,"o":"m 421 -10 q 349 65 349 -10 l 349 457 l 38 890 q 30 956 15 922 q 89 989 44 989 q 165 943 133 989 l 424 583 l 682 943 q 717 978 700 968 q 758 989 733 989 q 815 958 801 989 q 803 889 829 926 l 492 456 l 492 65 q 421 -10 492 -10 m 422 -276 q 344 -200 344 -276 q 422 -125 344 -125 q 501 -200 501 -125 q 422 -276 501 -276 z "},"Ỳ":{"ha":842,"x_min":15,"x_max":829,"o":"m 421 -10 q 349 65 349 -10 l 349 457 l 38 890 q 30 956 15 922 q 89 989 44 989 q 165 943 133 989 l 424 583 l 682 943 q 717 978 700 968 q 758 989 733 989 q 815 958 801 989 q 803 889 829 926 l 492 456 l 492 65 q 421 -10 492 -10 m 363 1069 l 224 1229 q 210 1271 204 1250 q 235 1305 215 1292 q 277 1317 254 1318 q 318 1290 300 1315 l 435 1119 q 438 1078 450 1097 q 404 1053 426 1058 q 363 1069 382 1049 z "},"Ƴ":{"ha":856,"x_min":15,"x_max":946,"o":"m 421 -10 q 349 67 349 -10 l 349 457 l 38 890 q 31 956 15 922 q 90 989 46 989 q 134 978 119 989 q 171 936 149 967 l 424 583 l 624 871 q 843 990 707 990 q 919 979 892 990 q 946 929 946 968 q 934 893 946 906 q 903 882 922 881 q 867 885 882 885 q 801 869 833 885 q 743 815 769 854 l 492 457 l 492 67 q 421 -10 492 -10 z "},"Ỷ":{"ha":842,"x_min":15,"x_max":829,"o":"m 421 -10 q 349 65 349 -10 l 349 457 l 38 890 q 30 956 15 922 q 89 989 44 989 q 165 943 133 989 l 424 583 l 682 943 q 717 978 700 968 q 758 989 733 989 q 815 958 801 989 q 803 889 829 926 l 492 456 l 492 65 q 421 -10 492 -10 m 421 1053 q 375 1086 375 1053 q 388 1129 375 1113 q 417 1158 401 1146 q 446 1181 433 1169 q 458 1207 458 1192 q 399 1236 458 1236 q 373 1235 388 1236 q 346 1229 358 1233 q 292 1247 301 1218 q 293 1275 288 1263 q 319 1294 299 1288 q 429 1311 364 1311 q 532 1288 494 1311 q 569 1225 569 1265 q 553 1177 569 1194 q 517 1147 538 1160 q 482 1119 497 1133 q 467 1078 467 1104 q 421 1053 467 1053 z "},"Ȳ":{"ha":842,"x_min":15,"x_max":829,"o":"m 421 -10 q 349 65 349 -10 l 349 457 l 38 890 q 30 956 15 922 q 89 989 44 989 q 165 943 133 989 l 424 583 l 682 943 q 717 978 700 968 q 758 989 733 989 q 815 958 801 989 q 803 889 829 926 l 492 456 l 492 65 q 421 -10 492 -10 m 231 1126 q 183 1169 183 1126 q 231 1214 183 1214 l 613 1214 q 658 1169 658 1214 q 613 1126 658 1126 l 231 1126 z "},"Ỹ":{"ha":842,"x_min":15,"x_max":829,"o":"m 421 -10 q 349 65 349 -10 l 349 457 l 38 890 q 30 956 15 922 q 89 989 44 989 q 165 943 133 989 l 424 583 l 682 943 q 717 978 700 968 q 758 989 733 989 q 815 958 801 989 q 803 889 829 926 l 492 456 l 492 65 q 421 -10 492 -10 m 163 1076 q 133 1088 144 1076 q 126 1122 122 1100 q 187 1238 142 1197 q 297 1279 232 1279 q 369 1265 335 1279 q 433 1231 403 1250 q 492 1196 464 1211 q 549 1181 521 1181 q 608 1201 585 1181 q 638 1257 631 1222 q 679 1289 647 1290 q 708 1276 697 1288 q 715 1243 719 1264 q 656 1126 700 1168 q 546 1085 611 1085 q 474 1100 507 1085 q 409 1135 440 1115 q 349 1169 378 1154 q 293 1185 321 1185 q 234 1163 257 1185 q 204 1108 211 1142 q 163 1076 194 1075 z "},"Z":{"ha":828,"x_min":50,"x_max":808,"o":"m 132 0 q 64 42 78 0 q 89 138 50 85 l 608 858 l 121 858 q 56 919 56 858 q 121 979 56 979 l 711 979 q 781 938 767 979 q 756 842 794 896 l 235 121 l 743 121 q 808 61 808 121 q 743 0 808 0 l 132 0 z "},"Ź":{"ha":828,"x_min":50,"x_max":808,"o":"m 132 0 q 64 42 78 0 q 89 138 50 85 l 608 858 l 121 858 q 56 919 56 858 q 121 979 56 979 l 711 979 q 781 938 767 979 q 756 842 794 896 l 235 121 l 743 121 q 808 61 808 121 q 743 0 808 0 l 132 0 m 488 1069 q 447 1053 469 1049 q 413 1078 424 1058 q 417 1119 401 1097 l 533 1290 q 574 1317 550 1315 q 617 1305 597 1318 q 641 1271 636 1292 q 628 1229 646 1250 l 488 1069 z "},"Ž":{"ha":828,"x_min":50,"x_max":808,"o":"m 132 0 q 64 42 78 0 q 89 138 50 85 l 608 858 l 121 858 q 56 919 56 858 q 121 979 56 979 l 711 979 q 781 938 767 979 q 756 842 794 896 l 235 121 l 743 121 q 808 61 808 121 q 743 0 808 0 l 132 0 m 429 1049 q 344 1094 376 1049 l 232 1251 q 227 1293 215 1275 q 262 1315 239 1311 q 303 1296 285 1318 l 429 1146 l 556 1296 q 598 1315 575 1318 q 632 1293 621 1311 q 626 1251 643 1275 l 515 1094 q 429 1049 483 1049 z "},"Ż":{"ha":828,"x_min":50,"x_max":808,"o":"m 132 0 q 64 42 78 0 q 89 138 50 85 l 608 858 l 121 858 q 56 919 56 858 q 121 979 56 979 l 711 979 q 781 938 767 979 q 756 842 794 896 l 235 121 l 743 121 q 808 61 808 121 q 743 0 808 0 l 132 0 m 429 1107 q 351 1182 351 1107 q 429 1257 351 1257 q 507 1182 507 1257 q 429 1107 507 1107 z "},"Ẓ":{"ha":828,"x_min":50,"x_max":808,"o":"m 132 0 q 64 42 78 0 q 89 138 50 85 l 608 858 l 121 858 q 56 919 56 858 q 121 979 56 979 l 711 979 q 781 938 767 979 q 756 842 794 896 l 235 121 l 743 121 q 808 61 808 121 q 743 0 808 0 l 132 0 m 431 -276 q 353 -200 353 -276 q 431 -125 353 -125 q 510 -200 510 -125 q 431 -276 510 -276 z "},"a":{"ha":746,"x_min":68,"x_max":651,"o":"m 315 -12 q 189 15 244 -12 q 101 90 133 43 q 68 197 68 138 q 106 315 68 272 q 233 378 144 358 q 471 397 321 397 l 518 397 l 518 433 q 485 547 518 513 q 375 582 451 582 q 283 571 331 582 q 183 533 235 560 q 135 529 154 519 q 110 560 117 539 q 111 603 103 581 q 146 636 119 625 q 267 677 207 664 q 379 690 326 690 q 585 624 518 690 q 651 418 651 558 l 651 61 q 586 -10 651 -10 q 519 61 519 -10 l 519 113 q 442 21 494 54 q 315 -12 389 -12 m 343 88 q 468 140 418 88 q 518 274 518 193 l 518 311 l 472 311 q 313 301 371 311 q 231 269 256 292 q 207 206 207 246 q 243 120 207 153 q 343 88 279 88 z "},"á":{"ha":746,"x_min":68,"x_max":651,"o":"m 315 -12 q 189 15 244 -12 q 101 90 133 43 q 68 197 68 138 q 106 315 68 272 q 233 378 144 358 q 471 397 321 397 l 518 397 l 518 433 q 485 547 518 513 q 375 582 451 582 q 283 571 331 582 q 183 533 235 560 q 135 529 154 519 q 110 560 117 539 q 111 603 103 581 q 146 636 119 625 q 267 677 207 664 q 379 690 326 690 q 585 624 518 690 q 651 418 651 558 l 651 61 q 586 -10 651 -10 q 519 61 519 -10 l 519 113 q 442 21 494 54 q 315 -12 389 -12 m 343 88 q 468 140 418 88 q 518 274 518 193 l 518 311 l 472 311 q 313 301 371 311 q 231 269 256 292 q 207 206 207 246 q 243 120 207 153 q 343 88 279 88 m 436 775 q 399 755 422 753 q 360 775 375 757 q 358 818 346 793 l 471 1036 q 508 1068 485 1064 q 552 1060 531 1072 q 582 1027 574 1049 q 574 982 590 1006 l 436 775 z "},"ă":{"ha":746,"x_min":68,"x_max":651,"o":"m 315 -12 q 189 15 244 -12 q 101 90 133 43 q 68 197 68 138 q 106 315 68 272 q 233 378 144 358 q 471 397 321 397 l 518 397 l 518 433 q 485 547 518 513 q 375 582 451 582 q 283 571 331 582 q 183 533 235 560 q 135 529 154 519 q 110 560 117 539 q 111 603 103 581 q 146 636 119 625 q 267 677 207 664 q 379 690 326 690 q 585 624 518 690 q 651 418 651 558 l 651 61 q 586 -10 651 -10 q 519 61 519 -10 l 519 113 q 442 21 494 54 q 315 -12 389 -12 m 343 88 q 468 140 418 88 q 518 274 518 193 l 518 311 l 472 311 q 313 301 371 311 q 231 269 256 292 q 207 206 207 246 q 243 120 207 153 q 343 88 279 88 m 382 764 q 233 826 289 764 q 164 988 178 888 q 172 1026 160 1011 q 201 1040 183 1040 q 249 999 242 1042 q 295 890 260 926 q 382 853 331 853 q 469 890 433 853 q 515 999 506 926 q 563 1040 522 1042 q 592 1026 581 1040 q 600 988 604 1011 q 531 826 588 888 q 382 764 475 764 z "},"ắ":{"ha":746,"x_min":68,"x_max":651,"o":"m 315 -12 q 189 15 244 -12 q 101 90 133 43 q 68 197 68 138 q 106 315 68 272 q 233 378 144 358 q 471 397 321 397 l 518 397 l 518 433 q 485 547 518 513 q 375 582 451 582 q 283 571 331 582 q 183 533 235 560 q 135 529 154 519 q 110 560 117 539 q 111 603 103 581 q 146 636 119 625 q 267 677 207 664 q 379 690 326 690 q 585 624 518 690 q 651 418 651 558 l 651 61 q 586 -10 651 -10 q 519 61 519 -10 l 519 113 q 442 21 494 54 q 315 -12 389 -12 m 343 88 q 468 140 418 88 q 518 274 518 193 l 518 311 l 472 311 q 313 301 371 311 q 231 269 256 292 q 207 206 207 246 q 243 120 207 153 q 343 88 279 88 m 418 929 q 381 913 401 910 q 349 933 360 915 q 351 972 338 950 l 435 1114 q 472 1142 450 1139 q 514 1134 494 1146 q 539 1101 533 1122 q 525 1057 544 1081 l 418 929 m 382 764 q 236 810 294 764 q 163 935 178 857 q 165 972 157 958 q 190 988 174 985 q 219 982 208 989 q 236 954 229 975 q 285 876 247 906 q 382 847 322 847 q 479 876 442 847 q 528 954 517 906 q 546 982 535 975 q 574 988 557 989 q 599 971 590 985 q 601 935 607 957 q 528 810 586 857 q 382 764 469 764 z "},"ặ":{"ha":746,"x_min":68,"x_max":651,"o":"m 315 -12 q 189 15 244 -12 q 101 90 133 43 q 68 197 68 138 q 106 315 68 272 q 233 378 144 358 q 471 397 321 397 l 518 397 l 518 433 q 485 547 518 513 q 375 582 451 582 q 283 571 331 582 q 183 533 235 560 q 135 529 154 519 q 110 560 117 539 q 111 603 103 581 q 146 636 119 625 q 267 677 207 664 q 379 690 326 690 q 585 624 518 690 q 651 418 651 558 l 651 61 q 586 -10 651 -10 q 519 61 519 -10 l 519 113 q 442 21 494 54 q 315 -12 389 -12 m 343 88 q 468 140 418 88 q 518 274 518 193 l 518 311 l 472 311 q 313 301 371 311 q 231 269 256 292 q 207 206 207 246 q 243 120 207 153 q 343 88 279 88 m 376 -276 q 299 -200 299 -276 q 376 -125 299 -125 q 456 -200 456 -125 q 376 -276 456 -276 m 382 764 q 233 826 289 764 q 164 988 178 888 q 172 1026 160 1011 q 201 1040 183 1040 q 249 999 242 1042 q 295 890 260 926 q 382 853 331 853 q 469 890 433 853 q 515 999 506 926 q 563 1040 522 1042 q 592 1026 581 1040 q 600 988 604 1011 q 531 826 588 888 q 382 764 475 764 z "},"ằ":{"ha":746,"x_min":68,"x_max":651,"o":"m 315 -12 q 189 15 244 -12 q 101 90 133 43 q 68 197 68 138 q 106 315 68 272 q 233 378 144 358 q 471 397 321 397 l 518 397 l 518 433 q 485 547 518 513 q 375 582 451 582 q 283 571 331 582 q 183 533 235 560 q 135 529 154 519 q 110 560 117 539 q 111 603 103 581 q 146 636 119 625 q 267 677 207 664 q 379 690 326 690 q 585 624 518 690 q 651 418 651 558 l 651 61 q 586 -10 651 -10 q 519 61 519 -10 l 519 113 q 442 21 494 54 q 315 -12 389 -12 m 343 88 q 468 140 418 88 q 518 274 518 193 l 518 311 l 472 311 q 313 301 371 311 q 231 269 256 292 q 207 206 207 246 q 243 120 207 153 q 343 88 279 88 m 346 929 l 239 1057 q 225 1101 219 1081 q 250 1134 231 1122 q 292 1142 269 1146 q 329 1114 314 1139 l 413 972 q 415 933 426 950 q 383 913 404 915 q 346 929 363 910 m 382 764 q 236 810 294 764 q 163 935 178 857 q 165 971 157 957 q 190 988 174 985 q 218 982 207 989 q 236 954 229 975 q 285 876 247 906 q 382 847 322 847 q 479 876 442 847 q 528 954 517 906 q 545 982 535 975 q 574 988 556 989 q 599 972 590 985 q 601 935 607 958 q 528 810 586 857 q 382 764 469 764 z "},"ẳ":{"ha":746,"x_min":68,"x_max":651,"o":"m 315 -12 q 189 15 244 -12 q 101 90 133 43 q 68 197 68 138 q 106 315 68 272 q 233 378 144 358 q 471 397 321 397 l 518 397 l 518 433 q 485 547 518 513 q 375 582 451 582 q 283 571 331 582 q 183 533 235 560 q 135 529 154 519 q 110 560 117 539 q 111 603 103 581 q 146 636 119 625 q 267 677 207 664 q 379 690 326 690 q 585 624 518 690 q 651 418 651 558 l 651 61 q 586 -10 651 -10 q 519 61 519 -10 l 519 113 q 442 21 494 54 q 315 -12 389 -12 m 343 88 q 468 140 418 88 q 518 274 518 193 l 518 311 l 472 311 q 313 301 371 311 q 231 269 256 292 q 207 206 207 246 q 243 120 207 153 q 343 88 279 88 m 410 924 q 376 918 393 913 q 353 936 358 924 q 365 961 347 949 q 418 1033 418 997 q 361 1069 418 1069 q 311 1063 336 1069 q 265 1081 274 1053 q 290 1122 256 1110 q 338 1133 314 1129 q 389 1136 363 1136 q 483 1116 449 1136 q 517 1056 517 1096 q 483 980 517 1014 q 410 924 450 946 m 382 764 q 236 810 294 764 q 163 935 178 857 q 165 971 157 957 q 190 988 174 985 q 218 982 207 989 q 236 954 229 975 q 285 876 247 906 q 382 847 322 847 q 479 876 442 847 q 528 954 517 906 q 545 982 535 975 q 574 988 556 989 q 599 972 590 985 q 601 935 607 958 q 528 810 586 857 q 382 764 469 764 z "},"ẵ":{"ha":746,"x_min":68,"x_max":651,"o":"m 315 -12 q 189 15 244 -12 q 101 90 133 43 q 68 197 68 138 q 106 315 68 272 q 233 378 144 358 q 471 397 321 397 l 518 397 l 518 433 q 485 547 518 513 q 375 582 451 582 q 283 571 331 582 q 183 533 235 560 q 135 529 154 519 q 110 560 117 539 q 111 603 103 581 q 146 636 119 625 q 267 677 207 664 q 379 690 326 690 q 585 624 518 690 q 651 418 651 558 l 651 61 q 586 -10 651 -10 q 519 61 519 -10 l 519 113 q 442 21 494 54 q 315 -12 389 -12 m 343 88 q 468 140 418 88 q 518 274 518 193 l 518 311 l 472 311 q 313 301 371 311 q 231 269 256 292 q 207 206 207 246 q 243 120 207 153 q 343 88 279 88 m 190 985 q 165 998 174 986 q 161 1031 156 1010 q 208 1108 174 1082 q 292 1135 243 1135 q 359 1117 329 1135 q 415 1083 389 1100 q 469 1067 442 1067 q 508 1076 492 1067 q 532 1107 525 1085 q 575 1136 543 1139 q 601 1123 592 1135 q 604 1090 610 1111 q 557 1013 592 1039 q 474 988 522 988 q 405 1004 435 988 q 349 1038 375 1021 q 296 1054 322 1054 q 257 1045 274 1054 q 233 1014 240 1036 q 190 985 222 982 m 382 764 q 249 797 304 764 q 171 881 194 829 q 167 914 161 900 q 190 933 174 928 q 242 913 222 942 q 294 865 258 883 q 382 847 331 847 q 470 865 435 847 q 522 913 506 883 q 574 933 542 942 q 597 914 590 928 q 593 881 603 900 q 515 797 569 829 q 382 764 460 764 z "},"ǎ":{"ha":746,"x_min":68,"x_max":651,"o":"m 315 -12 q 189 15 244 -12 q 101 90 133 43 q 68 197 68 138 q 106 315 68 272 q 233 378 144 358 q 471 397 321 397 l 518 397 l 518 433 q 485 547 518 513 q 375 582 451 582 q 283 571 331 582 q 183 533 235 560 q 135 529 154 519 q 110 560 117 539 q 111 603 103 581 q 146 636 119 625 q 267 677 207 664 q 379 690 326 690 q 585 624 518 690 q 651 418 651 558 l 651 61 q 586 -10 651 -10 q 519 61 519 -10 l 519 113 q 442 21 494 54 q 315 -12 389 -12 m 343 88 q 468 140 418 88 q 518 274 518 193 l 518 311 l 472 311 q 313 301 371 311 q 231 269 256 292 q 207 206 207 246 q 243 120 207 153 q 343 88 279 88 m 382 746 q 301 800 329 746 l 192 999 q 192 1041 179 1024 q 228 1061 206 1058 q 264 1042 250 1064 l 382 853 l 500 1042 q 536 1061 514 1064 q 572 1041 558 1058 q 572 999 585 1024 l 464 800 q 382 746 435 746 z "},"â":{"ha":746,"x_min":68,"x_max":651,"o":"m 315 -12 q 189 15 244 -12 q 101 90 133 43 q 68 197 68 138 q 106 315 68 272 q 233 378 144 358 q 471 397 321 397 l 518 397 l 518 433 q 485 547 518 513 q 375 582 451 582 q 283 571 331 582 q 183 533 235 560 q 135 529 154 519 q 110 560 117 539 q 111 603 103 581 q 146 636 119 625 q 267 677 207 664 q 379 690 326 690 q 585 624 518 690 q 651 418 651 558 l 651 61 q 586 -10 651 -10 q 519 61 519 -10 l 519 113 q 442 21 494 54 q 315 -12 389 -12 m 343 88 q 468 140 418 88 q 518 274 518 193 l 518 311 l 472 311 q 313 301 371 311 q 231 269 256 292 q 207 206 207 246 q 243 120 207 153 q 343 88 279 88 m 572 818 q 572 775 585 793 q 536 755 558 757 q 500 775 514 753 l 382 963 l 264 775 q 228 755 250 753 q 192 775 206 757 q 192 818 179 793 l 301 1017 q 382 1068 329 1068 q 464 1017 436 1068 l 572 818 z "},"ấ":{"ha":746,"x_min":68,"x_max":733,"o":"m 315 -12 q 189 15 244 -12 q 101 90 133 43 q 68 197 68 138 q 106 315 68 272 q 233 378 144 358 q 471 397 321 397 l 518 397 l 518 433 q 485 547 518 513 q 375 582 451 582 q 283 571 331 582 q 183 533 235 560 q 135 529 154 519 q 110 560 117 539 q 111 603 103 581 q 146 636 119 625 q 267 677 207 664 q 379 690 326 690 q 585 624 518 690 q 651 418 651 558 l 651 61 q 586 -10 651 -10 q 519 61 519 -10 l 519 113 q 442 21 494 54 q 315 -12 389 -12 m 343 88 q 468 140 418 88 q 518 274 518 193 l 518 311 l 472 311 q 313 301 371 311 q 231 269 256 292 q 207 206 207 246 q 243 120 207 153 q 343 88 279 88 m 600 906 q 567 890 586 888 q 539 908 549 892 q 542 949 529 925 l 633 1108 q 667 1135 647 1132 q 705 1128 688 1139 q 728 1099 722 1118 q 717 1058 733 1079 l 600 906 m 264 772 q 224 754 244 751 q 193 774 203 757 q 199 815 183 792 l 299 964 q 336 999 315 989 q 382 1010 357 1010 q 428 999 407 1010 q 465 964 449 989 l 565 815 q 572 774 581 792 q 542 754 563 757 q 501 772 521 751 l 382 911 l 264 772 z "},"ậ":{"ha":746,"x_min":68,"x_max":651,"o":"m 315 -12 q 189 15 244 -12 q 101 90 133 43 q 68 197 68 138 q 106 315 68 272 q 233 378 144 358 q 471 397 321 397 l 518 397 l 518 433 q 485 547 518 513 q 375 582 451 582 q 283 571 331 582 q 183 533 235 560 q 135 529 154 519 q 110 560 117 539 q 111 603 103 581 q 146 636 119 625 q 267 677 207 664 q 379 690 326 690 q 585 624 518 690 q 651 418 651 558 l 651 61 q 586 -10 651 -10 q 519 61 519 -10 l 519 113 q 442 21 494 54 q 315 -12 389 -12 m 343 88 q 468 140 418 88 q 518 274 518 193 l 518 311 l 472 311 q 313 301 371 311 q 231 269 256 292 q 207 206 207 246 q 243 120 207 153 q 343 88 279 88 m 376 -276 q 299 -200 299 -276 q 376 -125 299 -125 q 456 -200 456 -125 q 376 -276 456 -276 m 572 818 q 572 775 585 793 q 536 755 558 757 q 500 775 514 753 l 382 963 l 264 775 q 228 755 250 753 q 192 775 206 757 q 192 818 179 793 l 301 1017 q 382 1068 329 1068 q 464 1017 436 1068 l 572 818 z "},"ầ":{"ha":746,"x_min":68,"x_max":656,"o":"m 315 -12 q 189 15 244 -12 q 101 90 133 43 q 68 197 68 138 q 106 315 68 272 q 233 378 144 358 q 471 397 321 397 l 518 397 l 518 433 q 485 547 518 513 q 375 582 451 582 q 283 571 331 582 q 183 533 235 560 q 135 529 154 519 q 110 560 117 539 q 111 603 103 581 q 146 636 119 625 q 267 677 207 664 q 379 690 326 690 q 585 624 518 690 q 651 418 651 558 l 651 61 q 586 -10 651 -10 q 519 61 519 -10 l 519 113 q 442 21 494 54 q 315 -12 389 -12 m 343 88 q 468 140 418 88 q 518 274 518 193 l 518 311 l 472 311 q 313 301 371 311 q 231 269 256 292 q 207 206 207 246 q 243 120 207 153 q 343 88 279 88 m 583 906 l 468 1058 q 456 1099 451 1079 q 478 1128 461 1118 q 517 1135 496 1139 q 551 1108 538 1132 l 643 949 q 646 908 656 925 q 617 890 636 892 q 583 906 597 888 m 264 772 q 224 754 244 751 q 193 774 203 757 q 199 815 183 792 l 299 964 q 336 999 315 989 q 382 1010 357 1010 q 428 999 407 1010 q 465 964 449 989 l 565 815 q 572 774 581 792 q 542 754 563 757 q 501 772 521 751 l 382 911 l 264 772 z "},"ẩ":{"ha":746,"x_min":68,"x_max":703,"o":"m 315 -12 q 189 15 244 -12 q 101 90 133 43 q 68 197 68 138 q 106 315 68 272 q 233 378 144 358 q 471 397 321 397 l 518 397 l 518 433 q 485 547 518 513 q 375 582 451 582 q 283 571 331 582 q 183 533 235 560 q 135 529 154 519 q 110 560 117 539 q 111 603 103 581 q 146 636 119 625 q 267 677 207 664 q 379 690 326 690 q 585 624 518 690 q 651 418 651 558 l 651 61 q 586 -10 651 -10 q 519 61 519 -10 l 519 113 q 442 21 494 54 q 315 -12 389 -12 m 343 88 q 468 140 418 88 q 518 274 518 193 l 518 311 l 472 311 q 313 301 371 311 q 231 269 256 292 q 207 206 207 246 q 243 120 207 153 q 343 88 279 88 m 589 907 q 556 903 571 897 q 536 923 540 910 q 549 949 532 936 q 591 985 576 968 q 606 1024 606 1003 q 549 1060 606 1060 q 499 1054 524 1060 q 453 1072 461 1044 q 479 1114 443 1103 q 525 1124 500 1121 q 576 1126 550 1126 q 669 1107 636 1126 q 703 1044 703 1088 q 666 965 703 1001 q 589 907 629 928 m 264 772 q 224 754 244 751 q 193 774 203 757 q 199 815 183 792 l 299 964 q 336 999 315 989 q 382 1010 357 1010 q 428 999 407 1010 q 465 964 449 989 l 565 815 q 572 774 581 792 q 542 754 563 757 q 501 772 521 751 l 382 911 l 264 772 z "},"ẫ":{"ha":746,"x_min":68,"x_max":651,"o":"m 315 -12 q 189 15 244 -12 q 101 90 133 43 q 68 197 68 138 q 106 315 68 272 q 233 378 144 358 q 471 397 321 397 l 518 397 l 518 433 q 485 547 518 513 q 375 582 451 582 q 283 571 331 582 q 183 533 235 560 q 135 529 154 519 q 110 560 117 539 q 111 603 103 581 q 146 636 119 625 q 267 677 207 664 q 379 690 326 690 q 585 624 518 690 q 651 418 651 558 l 651 61 q 586 -10 651 -10 q 519 61 519 -10 l 519 113 q 442 21 494 54 q 315 -12 389 -12 m 343 88 q 468 140 418 88 q 518 274 518 193 l 518 311 l 472 311 q 313 301 371 311 q 231 269 256 292 q 207 206 207 246 q 243 120 207 153 q 343 88 279 88 m 190 985 q 165 998 174 986 q 161 1031 156 1010 q 208 1108 174 1082 q 292 1135 243 1135 q 359 1117 329 1135 q 415 1083 389 1100 q 469 1067 442 1067 q 508 1076 492 1067 q 532 1107 525 1085 q 575 1136 543 1139 q 601 1123 592 1135 q 604 1090 610 1111 q 557 1013 592 1039 q 474 988 522 988 q 405 1004 435 988 q 349 1038 375 1021 q 296 1054 322 1054 q 257 1045 274 1054 q 233 1014 240 1036 q 190 985 222 982 m 254 767 q 217 755 235 750 q 192 776 199 760 q 200 810 186 792 l 293 919 q 335 952 313 943 q 382 961 357 961 q 431 952 408 961 q 471 919 453 943 l 564 810 q 572 775 578 792 q 548 753 565 758 q 510 767 531 749 l 382 876 l 254 767 z "},"ȁ":{"ha":746,"x_min":68,"x_max":651,"o":"m 315 -12 q 189 15 244 -12 q 101 90 133 43 q 68 197 68 138 q 106 315 68 272 q 233 378 144 358 q 471 397 321 397 l 518 397 l 518 433 q 485 547 518 513 q 375 582 451 582 q 283 571 331 582 q 183 533 235 560 q 135 529 154 519 q 110 560 117 539 q 111 603 103 581 q 146 636 119 625 q 267 677 207 664 q 379 690 326 690 q 585 624 518 690 q 651 418 651 558 l 651 61 q 586 -10 651 -10 q 519 61 519 -10 l 519 113 q 442 21 494 54 q 315 -12 389 -12 m 343 88 q 468 140 418 88 q 518 274 518 193 l 518 311 l 472 311 q 313 301 371 311 q 231 269 256 292 q 207 206 207 246 q 243 120 207 153 q 343 88 279 88 m 246 779 l 154 996 q 153 1042 142 1024 q 188 1067 165 1061 q 231 1062 210 1072 q 261 1022 253 1051 l 319 801 q 310 765 325 776 q 275 756 294 753 q 246 779 256 758 m 436 779 l 344 996 q 344 1042 332 1024 q 378 1067 356 1061 q 423 1062 401 1072 q 451 1022 444 1051 l 508 801 q 500 765 515 776 q 465 756 485 753 q 436 779 446 758 z "},"ä":{"ha":746,"x_min":68,"x_max":651,"o":"m 315 -12 q 189 15 244 -12 q 101 90 133 43 q 68 197 68 138 q 106 315 68 272 q 233 378 144 358 q 471 397 321 397 l 518 397 l 518 433 q 485 547 518 513 q 375 582 451 582 q 283 571 331 582 q 183 533 235 560 q 135 529 154 519 q 110 560 117 539 q 111 603 103 581 q 146 636 119 625 q 267 677 207 664 q 379 690 326 690 q 585 624 518 690 q 651 418 651 558 l 651 61 q 586 -10 651 -10 q 519 61 519 -10 l 519 113 q 442 21 494 54 q 315 -12 389 -12 m 343 88 q 468 140 418 88 q 518 274 518 193 l 518 311 l 472 311 q 313 301 371 311 q 231 269 256 292 q 207 206 207 246 q 243 120 207 153 q 343 88 279 88 m 508 833 q 433 908 433 833 q 508 981 433 981 q 582 908 582 981 q 508 833 582 833 m 257 833 q 182 908 182 833 q 202 962 182 943 q 257 981 222 981 q 332 908 332 981 q 257 833 332 833 z "},"ȧ":{"ha":746,"x_min":68,"x_max":651,"o":"m 315 -12 q 189 15 244 -12 q 101 90 133 43 q 68 197 68 138 q 106 315 68 272 q 233 378 144 358 q 471 397 321 397 l 518 397 l 518 433 q 485 547 518 513 q 375 582 451 582 q 283 571 331 582 q 183 533 235 560 q 135 529 154 519 q 110 560 117 539 q 111 603 103 581 q 146 636 119 625 q 267 677 207 664 q 379 690 326 690 q 585 624 518 690 q 651 418 651 558 l 651 61 q 586 -10 651 -10 q 519 61 519 -10 l 519 113 q 442 21 494 54 q 315 -12 389 -12 m 343 88 q 468 140 418 88 q 518 274 518 193 l 518 311 l 472 311 q 313 301 371 311 q 231 269 256 292 q 207 206 207 246 q 243 120 207 153 q 343 88 279 88 m 382 833 q 304 910 304 833 q 382 983 304 983 q 461 910 461 983 q 382 833 461 833 z "},"ạ":{"ha":746,"x_min":68,"x_max":651,"o":"m 315 -12 q 189 15 244 -12 q 101 90 133 43 q 68 197 68 138 q 106 315 68 272 q 233 378 144 358 q 471 397 321 397 l 518 397 l 518 433 q 485 547 518 513 q 375 582 451 582 q 283 571 331 582 q 183 533 235 560 q 135 529 154 519 q 110 560 117 539 q 111 603 103 581 q 146 636 119 625 q 267 677 207 664 q 379 690 326 690 q 585 624 518 690 q 651 418 651 558 l 651 61 q 586 -10 651 -10 q 519 61 519 -10 l 519 113 q 442 21 494 54 q 315 -12 389 -12 m 343 88 q 468 140 418 88 q 518 274 518 193 l 518 311 l 472 311 q 313 301 371 311 q 231 269 256 292 q 207 206 207 246 q 243 120 207 153 q 343 88 279 88 m 376 -276 q 299 -200 299 -276 q 376 -125 299 -125 q 456 -200 456 -125 q 376 -276 456 -276 z "},"à":{"ha":746,"x_min":68,"x_max":651,"o":"m 315 -12 q 189 15 244 -12 q 101 90 133 43 q 68 197 68 138 q 106 315 68 272 q 233 378 144 358 q 471 397 321 397 l 518 397 l 518 433 q 485 547 518 513 q 375 582 451 582 q 283 571 331 582 q 183 533 235 560 q 135 529 154 519 q 110 560 117 539 q 111 603 103 581 q 146 636 119 625 q 267 677 207 664 q 379 690 326 690 q 585 624 518 690 q 651 418 651 558 l 651 61 q 586 -10 651 -10 q 519 61 519 -10 l 519 113 q 442 21 494 54 q 315 -12 389 -12 m 343 88 q 468 140 418 88 q 518 274 518 193 l 518 311 l 472 311 q 313 301 371 311 q 231 269 256 292 q 207 206 207 246 q 243 120 207 153 q 343 88 279 88 m 329 775 l 190 982 q 183 1027 175 1006 q 212 1060 190 1049 q 257 1068 233 1072 q 294 1036 281 1064 l 406 818 q 404 775 418 793 q 367 755 390 757 q 329 775 343 753 z "},"ả":{"ha":746,"x_min":68,"x_max":651,"o":"m 315 -12 q 189 15 244 -12 q 101 90 133 43 q 68 197 68 138 q 106 315 68 272 q 233 378 144 358 q 471 397 321 397 l 518 397 l 518 433 q 485 547 518 513 q 375 582 451 582 q 283 571 331 582 q 183 533 235 560 q 135 529 154 519 q 110 560 117 539 q 111 603 103 581 q 146 636 119 625 q 267 677 207 664 q 379 690 326 690 q 585 624 518 690 q 651 418 651 558 l 651 61 q 586 -10 651 -10 q 519 61 519 -10 l 519 113 q 442 21 494 54 q 315 -12 389 -12 m 343 88 q 468 140 418 88 q 518 274 518 193 l 518 311 l 472 311 q 313 301 371 311 q 231 269 256 292 q 207 206 207 246 q 243 120 207 153 q 343 88 279 88 m 382 757 q 338 792 338 757 q 350 845 338 824 q 378 882 363 867 q 407 911 394 897 q 419 944 419 925 q 360 982 419 982 q 333 980 347 982 q 303 972 318 978 q 253 988 264 960 q 279 1040 239 1024 q 331 1054 303 1050 q 389 1058 358 1058 q 493 1033 456 1058 q 531 961 531 1007 q 515 906 531 926 q 478 869 499 885 q 442 835 458 853 q 426 789 426 817 q 382 757 426 757 z "},"ȃ":{"ha":746,"x_min":68,"x_max":651,"o":"m 315 -12 q 189 15 244 -12 q 101 90 133 43 q 68 197 68 138 q 106 315 68 272 q 233 378 144 358 q 471 397 321 397 l 518 397 l 518 433 q 485 547 518 513 q 375 582 451 582 q 283 571 331 582 q 183 533 235 560 q 135 529 154 519 q 110 560 117 539 q 111 603 103 581 q 146 636 119 625 q 267 677 207 664 q 379 690 326 690 q 585 624 518 690 q 651 418 651 558 l 651 61 q 586 -10 651 -10 q 519 61 519 -10 l 519 113 q 442 21 494 54 q 315 -12 389 -12 m 343 88 q 468 140 418 88 q 518 274 518 193 l 518 311 l 472 311 q 313 301 371 311 q 231 269 256 292 q 207 206 207 246 q 243 120 207 153 q 343 88 279 88 m 201 761 q 172 776 183 761 q 164 814 160 790 q 233 976 176 914 q 382 1038 289 1038 q 531 976 475 1038 q 600 814 588 914 q 592 776 604 790 q 563 761 581 761 q 515 803 522 760 q 469 913 506 876 q 382 949 433 949 q 294 913 331 949 q 249 803 258 876 q 201 761 242 760 z "},"ā":{"ha":746,"x_min":68,"x_max":651,"o":"m 315 -12 q 189 15 244 -12 q 101 90 133 43 q 68 197 68 138 q 106 315 68 272 q 233 378 144 358 q 471 397 321 397 l 518 397 l 518 433 q 485 547 518 513 q 375 582 451 582 q 283 571 331 582 q 183 533 235 560 q 135 529 154 519 q 110 560 117 539 q 111 603 103 581 q 146 636 119 625 q 267 677 207 664 q 379 690 326 690 q 585 624 518 690 q 651 418 651 558 l 651 61 q 586 -10 651 -10 q 519 61 519 -10 l 519 113 q 442 21 494 54 q 315 -12 389 -12 m 343 88 q 468 140 418 88 q 518 274 518 193 l 518 311 l 472 311 q 313 301 371 311 q 231 269 256 292 q 207 206 207 246 q 243 120 207 153 q 343 88 279 88 m 213 863 q 165 907 165 863 q 213 951 165 951 l 553 951 q 599 907 599 951 q 553 863 599 863 l 213 863 z "},"ą":{"ha":746,"x_min":68,"x_max":707,"o":"m 590 -269 q 477 -231 518 -269 q 436 -129 436 -193 q 460 -43 436 -85 q 526 28 483 -1 q 519 63 519 42 l 519 113 q 442 21 494 54 q 315 -12 389 -12 q 189 15 244 -12 q 101 90 133 43 q 68 197 68 138 q 106 315 68 272 q 233 378 144 358 q 471 397 321 397 l 518 397 l 518 433 q 485 547 518 513 q 375 582 451 582 q 283 571 331 582 q 183 533 235 560 q 135 529 154 519 q 110 560 117 539 q 111 603 103 581 q 146 636 119 625 q 267 677 207 664 q 379 690 326 690 q 585 624 518 690 q 651 418 651 558 l 651 61 q 640 15 651 32 q 607 -10 628 -1 q 553 -51 576 -24 q 529 -114 529 -78 q 552 -170 529 -151 q 608 -189 575 -189 q 654 -182 631 -189 q 695 -189 683 -174 q 702 -226 707 -204 q 674 -257 697 -247 q 631 -267 653 -264 q 590 -269 610 -269 m 343 88 q 468 140 418 88 q 518 274 518 193 l 518 311 l 472 311 q 313 301 371 311 q 231 269 256 292 q 207 206 207 246 q 243 120 207 153 q 343 88 279 88 z "},"å":{"ha":746,"x_min":68,"x_max":651,"o":"m 315 -12 q 189 15 244 -12 q 101 90 133 43 q 68 197 68 138 q 106 315 68 272 q 233 378 144 358 q 471 397 321 397 l 518 397 l 518 433 q 485 547 518 513 q 375 582 451 582 q 283 571 331 582 q 183 533 235 560 q 135 529 154 519 q 110 560 117 539 q 111 603 103 581 q 146 636 119 625 q 267 677 207 664 q 379 690 326 690 q 585 624 518 690 q 651 418 651 558 l 651 61 q 586 -10 651 -10 q 519 61 519 -10 l 519 113 q 442 21 494 54 q 315 -12 389 -12 m 343 88 q 468 140 418 88 q 518 274 518 193 l 518 311 l 472 311 q 313 301 371 311 q 231 269 256 292 q 207 206 207 246 q 243 120 207 153 q 343 88 279 88 m 382 758 q 261 807 310 758 q 213 925 213 856 q 261 1042 213 994 q 382 1089 310 1089 q 503 1042 454 1089 q 551 925 551 994 q 503 807 551 856 q 382 758 454 758 m 382 828 q 451 856 424 828 q 478 925 478 883 q 451 992 478 965 q 382 1019 424 1019 q 313 992 340 1019 q 286 925 286 965 q 313 856 286 883 q 382 828 340 828 z "},"ǻ":{"ha":746,"x_min":68,"x_max":651,"o":"m 315 -12 q 189 15 244 -12 q 101 90 133 43 q 68 197 68 138 q 106 315 68 272 q 233 378 144 358 q 471 397 321 397 l 518 397 l 518 433 q 485 547 518 513 q 375 582 451 582 q 283 571 331 582 q 183 533 235 560 q 135 529 154 519 q 110 560 117 539 q 111 603 103 581 q 146 636 119 625 q 267 677 207 664 q 379 690 326 690 q 585 624 518 690 q 651 418 651 558 l 651 61 q 586 -10 651 -10 q 519 61 519 -10 l 519 113 q 442 21 494 54 q 315 -12 389 -12 m 343 88 q 468 140 418 88 q 518 274 518 193 l 518 311 l 472 311 q 313 301 371 311 q 231 269 256 292 q 207 206 207 246 q 243 120 207 153 q 343 88 279 88 m 382 754 q 265 800 313 754 q 218 914 218 846 q 265 1027 218 981 q 382 1074 313 1074 q 430 1067 407 1074 q 472 1047 453 1060 l 572 1140 q 615 1151 593 1160 q 643 1122 636 1143 q 629 1083 650 1101 l 525 994 q 546 914 546 957 q 499 800 546 846 q 382 754 451 754 m 382 819 q 451 846 424 819 q 478 914 478 872 q 451 982 478 956 q 382 1008 424 1008 q 313 982 340 1008 q 286 914 286 956 q 313 846 286 872 q 382 819 340 819 z "},"ã":{"ha":746,"x_min":68,"x_max":651,"o":"m 315 -12 q 189 15 244 -12 q 101 90 133 43 q 68 197 68 138 q 106 315 68 272 q 233 378 144 358 q 471 397 321 397 l 518 397 l 518 433 q 485 547 518 513 q 375 582 451 582 q 283 571 331 582 q 183 533 235 560 q 135 529 154 519 q 110 560 117 539 q 111 603 103 581 q 146 636 119 625 q 267 677 207 664 q 379 690 326 690 q 585 624 518 690 q 651 418 651 558 l 651 61 q 586 -10 651 -10 q 519 61 519 -10 l 519 113 q 442 21 494 54 q 315 -12 389 -12 m 343 88 q 468 140 418 88 q 518 274 518 193 l 518 311 l 472 311 q 313 301 371 311 q 231 269 256 292 q 207 206 207 246 q 243 120 207 153 q 343 88 279 88 m 160 811 q 133 824 143 813 q 128 857 124 835 q 175 967 139 918 q 281 1015 211 1015 q 340 1000 314 1015 q 389 965 367 985 q 433 931 411 946 q 482 915 456 915 q 534 938 513 915 q 563 996 556 960 q 604 1024 568 1025 q 631 1013 621 1024 q 636 978 640 1001 q 589 869 625 917 q 483 821 553 821 q 424 835 450 821 q 374 869 397 850 q 329 904 351 889 q 282 919 307 919 q 230 898 251 919 q 201 839 208 876 q 160 811 196 810 z "},"æ":{"ha":1199,"x_min":68,"x_max":1146,"o":"m 326 -12 q 192 15 250 -12 q 101 90 133 43 q 68 197 68 138 q 107 315 68 272 q 235 377 146 358 q 474 396 324 396 l 519 396 l 519 432 q 485 547 519 511 q 378 582 451 582 q 284 571 332 582 q 183 533 236 560 q 137 529 156 519 q 111 560 118 539 q 113 603 104 581 q 147 636 121 625 q 268 677 208 664 q 381 690 328 690 q 610 572 553 690 q 713 660 649 631 q 849 690 776 690 q 1066 601 986 690 q 1146 356 1146 513 l 1146 351 q 1089 310 1146 310 l 657 310 q 874 96 671 96 q 960 107 913 96 q 1050 144 1007 118 q 1101 156 1079 161 q 1131 133 1122 151 q 1135 91 1140 114 q 1103 51 1129 68 q 993 4 1056 21 q 874 -12 931 -12 q 692 28 769 -12 q 576 149 615 68 q 483 30 549 72 q 326 -12 418 -12 m 850 592 q 717 540 768 592 q 657 396 667 489 l 1026 396 q 977 540 1022 489 q 850 592 932 592 m 344 88 q 471 142 422 88 q 519 281 519 196 l 519 310 l 472 310 q 313 301 371 310 q 231 269 256 292 q 207 206 207 246 q 243 120 207 153 q 344 88 279 88 z "},"ǽ":{"ha":1199,"x_min":68,"x_max":1146,"o":"m 326 -12 q 192 15 250 -12 q 101 90 133 43 q 68 197 68 138 q 107 315 68 272 q 235 377 146 358 q 474 396 324 396 l 519 396 l 519 432 q 485 547 519 511 q 378 582 451 582 q 284 571 332 582 q 183 533 236 560 q 137 529 156 519 q 111 560 118 539 q 113 603 104 581 q 147 636 121 625 q 268 677 208 664 q 381 690 328 690 q 610 572 553 690 q 713 660 649 631 q 849 690 776 690 q 1066 601 986 690 q 1146 356 1146 513 l 1146 351 q 1089 310 1146 310 l 657 310 q 874 96 671 96 q 960 107 913 96 q 1050 144 1007 118 q 1101 156 1079 161 q 1131 133 1122 151 q 1135 91 1140 114 q 1103 51 1129 68 q 993 4 1056 21 q 874 -12 931 -12 q 692 28 769 -12 q 576 149 615 68 q 483 30 549 72 q 326 -12 418 -12 m 850 592 q 717 540 768 592 q 657 396 667 489 l 1026 396 q 977 540 1022 489 q 850 592 932 592 m 344 88 q 471 142 422 88 q 519 281 519 196 l 519 310 l 472 310 q 313 301 371 310 q 231 269 256 292 q 207 206 207 246 q 243 120 207 153 q 344 88 279 88 m 631 775 q 593 755 617 753 q 555 775 569 757 q 553 818 540 793 l 665 1036 q 702 1068 679 1064 q 747 1060 725 1072 q 776 1027 768 1049 q 768 982 785 1006 l 631 775 z "},"b":{"ha":821,"x_min":99,"x_max":761,"o":"m 463 -12 q 326 22 386 -12 q 236 114 267 56 l 236 61 q 168 -10 236 -10 q 99 61 99 -10 l 99 918 q 168 989 99 989 q 239 918 239 989 l 239 568 q 328 657 269 624 q 463 690 388 690 q 620 647 553 690 q 724 526 688 604 q 761 339 761 447 q 724 151 761 231 q 620 30 688 72 q 463 -12 553 -12 m 428 96 q 567 158 515 96 q 619 339 619 221 q 567 519 619 457 q 428 581 515 581 q 288 519 340 581 q 236 339 236 457 q 288 158 236 221 q 428 96 340 96 z "},"ɓ":{"ha":821,"x_min":99,"x_max":761,"o":"m 463 -12 q 326 22 386 -12 q 236 114 267 56 l 236 61 q 168 -10 236 -10 q 99 61 99 -10 l 99 740 q 161 925 99 858 q 344 992 224 992 q 419 976 397 992 q 440 933 440 961 q 429 890 440 906 q 397 876 418 874 q 381 878 390 876 q 360 879 372 879 q 270 844 301 879 q 239 742 239 810 l 239 568 q 328 657 269 624 q 463 690 388 690 q 620 647 553 690 q 724 526 688 604 q 761 339 761 447 q 724 151 761 231 q 620 30 688 72 q 463 -12 553 -12 m 428 96 q 567 158 515 96 q 619 339 619 221 q 567 519 619 457 q 428 581 515 581 q 288 519 340 581 q 236 339 236 457 q 288 158 236 221 q 428 96 340 96 z "},"c":{"ha":649,"x_min":58,"x_max":628,"o":"m 397 -12 q 217 31 293 -12 q 100 155 142 75 q 58 343 58 235 q 150 597 58 504 q 397 690 242 690 q 499 676 446 690 q 599 628 553 661 q 624 592 621 614 q 617 552 628 571 q 588 527 607 533 q 543 535 568 521 q 475 569 510 558 q 408 579 440 579 q 256 517 310 579 q 203 342 203 456 q 256 163 203 228 q 408 99 310 99 q 474 108 440 99 q 543 142 508 118 q 587 149 568 156 q 615 123 606 142 q 620 83 624 104 q 594 47 617 61 q 498 1 550 15 q 397 -12 446 -12 z "},"ć":{"ha":649,"x_min":58,"x_max":628,"o":"m 397 -12 q 217 31 293 -12 q 100 155 142 75 q 58 343 58 235 q 150 597 58 504 q 397 690 242 690 q 499 676 446 690 q 599 628 553 661 q 624 592 621 614 q 617 552 628 571 q 588 527 607 533 q 543 535 568 521 q 475 569 510 558 q 408 579 440 579 q 256 517 310 579 q 203 342 203 456 q 256 163 203 228 q 408 99 310 99 q 474 108 440 99 q 543 142 508 118 q 587 149 568 156 q 615 123 606 142 q 620 83 624 104 q 594 47 617 61 q 498 1 550 15 q 397 -12 446 -12 m 444 775 q 407 755 431 753 q 369 775 383 757 q 367 818 354 793 l 479 1036 q 516 1068 493 1064 q 560 1060 539 1072 q 590 1027 582 1049 q 582 982 599 1006 l 444 775 z "},"č":{"ha":649,"x_min":58,"x_max":628,"o":"m 397 -12 q 217 31 293 -12 q 100 155 142 75 q 58 343 58 235 q 150 597 58 504 q 397 690 242 690 q 499 676 446 690 q 599 628 553 661 q 624 592 621 614 q 617 552 628 571 q 588 527 607 533 q 543 535 568 521 q 475 569 510 558 q 408 579 440 579 q 256 517 310 579 q 203 342 203 456 q 256 163 203 228 q 408 99 310 99 q 474 108 440 99 q 543 142 508 118 q 587 149 568 156 q 615 123 606 142 q 620 83 624 104 q 594 47 617 61 q 498 1 550 15 q 397 -12 446 -12 m 390 746 q 310 800 338 746 l 200 999 q 201 1041 188 1024 q 236 1061 214 1058 q 272 1042 258 1064 l 390 853 l 508 1042 q 544 1061 522 1064 q 580 1041 567 1058 q 581 999 593 1024 l 472 800 q 390 746 443 746 z "},"ç":{"ha":649,"x_min":58,"x_max":628,"o":"m 397 -12 q 217 31 293 -12 q 100 155 142 75 q 58 343 58 235 q 150 597 58 504 q 397 690 242 690 q 499 676 446 690 q 599 628 553 661 q 624 592 621 614 q 617 552 628 571 q 588 527 607 533 q 543 535 568 521 q 475 569 510 558 q 408 579 440 579 q 256 517 310 579 q 203 342 203 456 q 256 163 203 228 q 408 99 310 99 q 474 108 440 99 q 543 142 508 118 q 587 149 568 156 q 615 123 606 142 q 620 83 624 104 q 594 47 617 61 q 498 1 550 15 q 397 -12 446 -12 m 393 -269 q 339 -265 367 -269 q 289 -253 311 -261 q 261 -223 264 -243 q 272 -188 258 -203 q 311 -183 286 -174 q 385 -194 342 -194 q 443 -183 422 -194 q 464 -149 464 -171 q 411 -112 464 -112 q 390 -113 400 -112 q 367 -118 379 -114 q 335 -115 346 -124 q 328 -81 324 -107 l 344 28 l 425 28 l 411 -57 q 432 -56 422 -56 q 519 -81 486 -56 q 553 -153 553 -107 q 508 -237 553 -204 q 393 -269 464 -269 z "},"ḉ":{"ha":649,"x_min":58,"x_max":628,"o":"m 397 -12 q 217 31 293 -12 q 100 155 142 75 q 58 343 58 235 q 150 597 58 504 q 397 690 242 690 q 499 676 446 690 q 599 628 553 661 q 624 592 621 614 q 617 552 628 571 q 588 527 607 533 q 543 535 568 521 q 475 569 510 558 q 408 579 440 579 q 256 517 310 579 q 203 342 203 456 q 256 163 203 228 q 408 99 310 99 q 474 108 440 99 q 543 142 508 118 q 587 149 568 156 q 615 123 606 142 q 620 83 624 104 q 594 47 617 61 q 498 1 550 15 q 397 -12 446 -12 m 393 -269 q 339 -265 367 -269 q 289 -253 311 -261 q 261 -223 264 -243 q 272 -188 258 -203 q 311 -183 286 -174 q 385 -194 342 -194 q 443 -183 422 -194 q 464 -149 464 -171 q 411 -112 464 -112 q 390 -113 400 -112 q 367 -118 379 -114 q 335 -115 346 -124 q 328 -81 324 -107 l 344 28 l 425 28 l 411 -57 q 432 -56 422 -56 q 519 -81 486 -56 q 553 -153 553 -107 q 508 -237 553 -204 q 393 -269 464 -269 m 444 775 q 407 755 431 753 q 369 775 383 757 q 367 818 354 793 l 479 1036 q 516 1068 493 1064 q 560 1060 539 1072 q 590 1027 582 1049 q 582 982 599 1006 l 444 775 z "},"ĉ":{"ha":649,"x_min":58,"x_max":628,"o":"m 397 -12 q 217 31 293 -12 q 100 155 142 75 q 58 343 58 235 q 150 597 58 504 q 397 690 242 690 q 499 676 446 690 q 599 628 553 661 q 624 592 621 614 q 617 552 628 571 q 588 527 607 533 q 543 535 568 521 q 475 569 510 558 q 408 579 440 579 q 256 517 310 579 q 203 342 203 456 q 256 163 203 228 q 408 99 310 99 q 474 108 440 99 q 543 142 508 118 q 587 149 568 156 q 615 123 606 142 q 620 83 624 104 q 594 47 617 61 q 498 1 550 15 q 397 -12 446 -12 m 581 818 q 580 775 593 793 q 544 755 567 757 q 508 775 522 753 l 390 963 l 272 775 q 236 755 258 753 q 201 775 214 757 q 200 818 188 793 l 310 1017 q 390 1068 338 1068 q 472 1017 444 1068 l 581 818 z "},"ċ":{"ha":649,"x_min":58,"x_max":628,"o":"m 397 -12 q 217 31 293 -12 q 100 155 142 75 q 58 343 58 235 q 150 597 58 504 q 397 690 242 690 q 499 676 446 690 q 599 628 553 661 q 624 592 621 614 q 617 552 628 571 q 588 527 607 533 q 543 535 568 521 q 475 569 510 558 q 408 579 440 579 q 256 517 310 579 q 203 342 203 456 q 256 163 203 228 q 408 99 310 99 q 474 108 440 99 q 543 142 508 118 q 587 149 568 156 q 615 123 606 142 q 620 83 624 104 q 594 47 617 61 q 498 1 550 15 q 397 -12 446 -12 m 390 833 q 313 910 313 833 q 390 983 313 983 q 469 910 469 983 q 390 833 469 833 z "},"d":{"ha":821,"x_min":58,"x_max":722,"o":"m 357 -12 q 201 30 268 -12 q 96 151 133 72 q 58 339 58 231 q 96 526 58 447 q 200 647 133 604 q 357 690 267 690 q 493 657 433 690 q 582 567 553 624 l 582 918 q 651 989 582 989 q 722 918 722 989 l 722 61 q 653 -10 722 -10 q 583 61 583 -10 l 583 114 q 493 22 553 56 q 357 -12 433 -12 m 393 96 q 532 158 479 96 q 585 339 585 221 q 532 519 585 457 q 393 581 479 581 q 253 519 306 581 q 200 339 200 457 q 253 158 200 221 q 393 96 306 96 z "},"ð":{"ha":790,"x_min":58,"x_max":732,"o":"m 388 -12 q 215 28 289 -12 q 100 140 142 68 q 58 308 58 213 q 99 476 58 404 q 211 587 139 547 q 379 626 283 626 q 501 603 447 626 q 589 532 554 581 q 525 685 571 618 q 417 796 479 751 l 228 713 q 183 707 203 700 q 156 731 164 714 q 156 766 149 747 q 192 797 164 785 l 319 853 q 274 872 297 864 q 228 888 251 881 q 190 914 200 896 q 184 950 179 932 q 207 978 189 968 q 256 982 225 989 q 353 949 308 968 q 440 907 399 931 l 592 975 q 636 979 617 986 q 663 956 656 972 q 665 922 671 940 q 632 892 658 903 l 529 846 q 679 651 626 765 q 732 397 732 538 q 643 94 732 200 q 388 -12 554 -12 m 392 97 q 532 154 481 97 q 583 308 583 211 q 533 462 583 406 q 392 518 482 518 q 251 462 303 518 q 200 308 200 406 q 251 153 200 210 q 392 97 301 97 z "},"ď":{"ha":821,"x_min":58,"x_max":888,"o":"m 357 -12 q 201 30 268 -12 q 96 151 133 72 q 58 339 58 231 q 96 526 58 447 q 200 647 133 604 q 357 690 267 690 q 493 657 433 690 q 582 567 553 624 l 582 918 q 651 989 582 989 q 722 918 722 989 l 722 61 q 653 -10 722 -10 q 583 61 583 -10 l 583 114 q 493 22 553 56 q 357 -12 433 -12 m 393 96 q 532 158 479 96 q 585 339 585 221 q 532 519 585 457 q 393 581 479 581 q 253 519 306 581 q 200 339 200 457 q 253 158 200 221 q 393 96 306 96 m 818 706 q 783 742 783 706 l 783 938 q 835 989 783 989 q 881 936 888 989 l 854 740 q 818 706 850 706 z "},"đ":{"ha":821,"x_min":60,"x_max":854,"o":"m 358 -12 q 202 30 269 -12 q 97 151 135 72 q 60 339 60 231 q 97 526 60 447 q 201 647 133 604 q 358 690 268 690 q 494 657 435 690 q 583 567 553 624 l 583 763 l 365 763 q 311 814 311 763 q 365 864 311 864 l 583 864 l 583 928 q 601 972 583 956 q 653 989 619 989 q 705 972 686 989 q 724 928 724 956 l 724 864 l 800 864 q 854 814 854 864 q 800 763 854 763 l 724 763 l 724 61 q 654 -10 724 -10 q 583 61 583 -10 l 583 114 q 495 22 554 56 q 358 -12 436 -12 m 393 96 q 533 158 481 96 q 585 339 585 221 q 533 519 585 457 q 393 581 481 581 q 253 519 306 581 q 201 339 201 457 q 253 158 201 221 q 393 96 306 96 z "},"ḍ":{"ha":821,"x_min":58,"x_max":722,"o":"m 357 -12 q 201 30 268 -12 q 96 151 133 72 q 58 339 58 231 q 96 526 58 447 q 200 647 133 604 q 357 690 267 690 q 493 657 433 690 q 582 567 553 624 l 582 918 q 651 989 582 989 q 722 918 722 989 l 722 61 q 653 -10 722 -10 q 583 61 583 -10 l 583 114 q 493 22 553 56 q 357 -12 433 -12 m 393 96 q 532 158 479 96 q 585 339 585 221 q 532 519 585 457 q 393 581 479 581 q 253 519 306 581 q 200 339 200 457 q 253 158 200 221 q 393 96 306 96 m 413 -276 q 335 -200 335 -276 q 413 -125 335 -125 q 492 -200 492 -125 q 413 -276 492 -276 z "},"ɗ":{"ha":821,"x_min":58,"x_max":924,"o":"m 357 -12 q 201 30 268 -12 q 96 151 133 72 q 58 339 58 231 q 96 526 58 447 q 200 647 133 604 q 357 690 267 690 q 493 657 433 690 q 582 567 553 624 l 582 740 q 644 925 582 858 q 829 992 707 992 q 902 976 881 992 q 924 933 924 961 q 913 890 924 906 q 882 876 901 874 q 865 878 874 876 q 843 879 856 879 q 754 844 786 879 q 722 742 722 810 l 722 61 q 653 -10 722 -10 q 583 61 583 -10 l 583 114 q 493 22 553 56 q 357 -12 433 -12 m 393 97 q 532 159 479 97 q 585 339 585 221 q 532 519 585 457 q 393 581 479 581 q 253 519 306 581 q 200 339 200 457 q 253 159 200 221 q 393 97 306 97 z "},"ḏ":{"ha":821,"x_min":58,"x_max":722,"o":"m 357 -12 q 201 30 268 -12 q 96 151 133 72 q 58 339 58 231 q 96 526 58 447 q 200 647 133 604 q 357 690 267 690 q 493 657 433 690 q 582 567 553 624 l 582 918 q 651 989 582 989 q 722 918 722 989 l 722 61 q 653 -10 722 -10 q 583 61 583 -10 l 583 114 q 493 22 553 56 q 357 -12 433 -12 m 393 96 q 532 158 479 96 q 585 339 585 221 q 532 519 585 457 q 393 581 479 581 q 253 519 306 581 q 200 339 200 457 q 253 158 200 221 q 393 96 306 96 m 243 -222 q 196 -178 196 -222 q 243 -133 196 -133 l 583 -133 q 629 -178 629 -133 q 583 -222 629 -222 l 243 -222 z "},"ǆ":{"ha":1471,"x_min":58,"x_max":1443,"o":"m 357 -12 q 201 30 268 -12 q 96 151 133 72 q 58 339 58 231 q 96 526 58 447 q 200 647 133 604 q 357 690 267 690 q 493 657 433 690 q 582 567 553 624 l 582 918 q 651 989 582 989 q 722 918 722 989 l 722 61 q 653 -10 722 -10 q 583 61 583 -10 l 583 114 q 493 22 553 56 q 357 -12 433 -12 m 393 96 q 532 158 479 96 q 585 339 585 221 q 532 519 585 457 q 393 581 479 581 q 253 519 306 581 q 200 339 200 457 q 253 158 200 221 q 393 96 306 96 z "},"e":{"ha":746,"x_min":58,"x_max":692,"o":"m 417 -12 q 154 81 250 -12 q 58 338 58 175 q 101 522 58 442 q 218 646 143 601 q 390 690 293 690 q 611 601 531 690 q 692 354 692 511 q 636 307 692 307 l 194 307 q 418 96 210 96 q 506 106 460 96 q 594 144 551 117 q 645 156 624 161 q 676 133 667 151 q 680 91 686 114 q 647 51 674 68 q 537 3 600 19 q 417 -12 474 -12 m 396 592 q 257 538 308 592 q 194 393 206 483 l 574 393 q 524 540 569 488 q 396 592 478 592 z "},"é":{"ha":746,"x_min":58,"x_max":692,"o":"m 417 -12 q 154 81 250 -12 q 58 338 58 175 q 101 522 58 442 q 218 646 143 601 q 390 690 293 690 q 611 601 531 690 q 692 354 692 511 q 636 307 692 307 l 194 307 q 418 96 210 96 q 506 106 460 96 q 594 144 551 117 q 645 156 624 161 q 676 133 667 151 q 680 91 686 114 q 647 51 674 68 q 537 3 600 19 q 417 -12 474 -12 m 396 592 q 257 538 308 592 q 194 393 206 483 l 574 393 q 524 540 569 488 q 396 592 478 592 m 446 775 q 408 755 432 753 q 370 775 385 757 q 368 818 356 793 l 481 1036 q 517 1068 494 1064 q 562 1060 540 1072 q 592 1027 583 1049 q 583 982 600 1006 l 446 775 z "},"ĕ":{"ha":746,"x_min":58,"x_max":692,"o":"m 417 -12 q 154 81 250 -12 q 58 338 58 175 q 101 522 58 442 q 218 646 143 601 q 390 690 293 690 q 611 601 531 690 q 692 354 692 511 q 636 307 692 307 l 194 307 q 418 96 210 96 q 506 106 460 96 q 594 144 551 117 q 645 156 624 161 q 676 133 667 151 q 680 91 686 114 q 647 51 674 68 q 537 3 600 19 q 417 -12 474 -12 m 396 592 q 257 538 308 592 q 194 393 206 483 l 574 393 q 524 540 569 488 q 396 592 478 592 m 392 764 q 243 826 299 764 q 174 988 188 888 q 181 1026 169 1011 q 211 1040 193 1040 q 258 999 251 1042 q 305 890 269 926 q 392 853 340 853 q 479 890 443 853 q 525 999 515 926 q 572 1040 532 1042 q 602 1026 590 1040 q 610 988 614 1011 q 541 826 597 888 q 392 764 485 764 z "},"ě":{"ha":746,"x_min":58,"x_max":692,"o":"m 417 -12 q 154 81 250 -12 q 58 338 58 175 q 101 522 58 442 q 218 646 143 601 q 390 690 293 690 q 611 601 531 690 q 692 354 692 511 q 636 307 692 307 l 194 307 q 418 96 210 96 q 506 106 460 96 q 594 144 551 117 q 645 156 624 161 q 676 133 667 151 q 680 91 686 114 q 647 51 674 68 q 537 3 600 19 q 417 -12 474 -12 m 396 592 q 257 538 308 592 q 194 393 206 483 l 574 393 q 524 540 569 488 q 396 592 478 592 m 392 746 q 311 800 339 746 l 201 999 q 202 1041 189 1024 q 238 1061 215 1058 q 274 1042 260 1064 l 392 853 l 510 1042 q 546 1061 524 1064 q 581 1041 568 1058 q 582 999 594 1024 l 474 800 q 392 746 444 746 z "},"ḝ":{"ha":746,"x_min":58,"x_max":692,"o":"m 417 -12 q 154 81 250 -12 q 58 338 58 175 q 101 522 58 442 q 218 646 143 601 q 390 690 293 690 q 611 601 531 690 q 692 354 692 511 q 636 307 692 307 l 194 307 q 418 96 210 96 q 506 106 460 96 q 594 144 551 117 q 645 156 624 161 q 676 133 667 151 q 680 91 686 114 q 647 51 674 68 q 537 3 600 19 q 417 -12 474 -12 m 396 592 q 257 538 308 592 q 194 393 206 483 l 574 393 q 524 540 569 488 q 396 592 478 592 m 394 -269 q 340 -265 368 -269 q 290 -253 313 -261 q 263 -223 265 -243 q 274 -188 260 -203 q 313 -183 288 -174 q 386 -194 343 -194 q 444 -183 424 -194 q 465 -149 465 -171 q 413 -112 465 -112 q 391 -113 401 -112 q 368 -118 381 -114 q 336 -115 347 -124 q 329 -81 325 -107 l 346 28 l 426 28 l 413 -57 q 433 -56 424 -56 q 521 -81 488 -56 q 554 -153 554 -107 q 510 -237 554 -204 q 394 -269 465 -269 m 392 764 q 243 826 299 764 q 174 988 188 888 q 181 1026 169 1011 q 211 1040 193 1040 q 258 999 251 1042 q 305 890 269 926 q 392 853 340 853 q 479 890 443 853 q 525 999 515 926 q 572 1040 532 1042 q 602 1026 590 1040 q 610 988 614 1011 q 541 826 597 888 q 392 764 485 764 z "},"ê":{"ha":746,"x_min":58,"x_max":692,"o":"m 417 -12 q 154 81 250 -12 q 58 338 58 175 q 101 522 58 442 q 218 646 143 601 q 390 690 293 690 q 611 601 531 690 q 692 354 692 511 q 636 307 692 307 l 194 307 q 418 96 210 96 q 506 106 460 96 q 594 144 551 117 q 645 156 624 161 q 676 133 667 151 q 680 91 686 114 q 647 51 674 68 q 537 3 600 19 q 417 -12 474 -12 m 396 592 q 257 538 308 592 q 194 393 206 483 l 574 393 q 524 540 569 488 q 396 592 478 592 m 582 818 q 581 775 594 793 q 546 755 568 757 q 510 775 524 753 l 392 963 l 274 775 q 238 755 260 753 q 202 775 215 757 q 201 818 189 793 l 311 1017 q 392 1068 339 1068 q 474 1017 446 1068 l 582 818 z "},"ế":{"ha":746,"x_min":58,"x_max":743,"o":"m 417 -12 q 154 81 250 -12 q 58 338 58 175 q 101 522 58 442 q 218 646 143 601 q 390 690 293 690 q 611 601 531 690 q 692 354 692 511 q 636 307 692 307 l 194 307 q 418 96 210 96 q 506 106 460 96 q 594 144 551 117 q 645 156 624 161 q 676 133 667 151 q 680 91 686 114 q 647 51 674 68 q 537 3 600 19 q 417 -12 474 -12 m 396 592 q 257 538 308 592 q 194 393 206 483 l 574 393 q 524 540 569 488 q 396 592 478 592 m 610 906 q 577 890 596 888 q 549 908 558 892 q 551 949 539 925 l 643 1108 q 677 1135 657 1132 q 715 1128 697 1139 q 738 1099 732 1118 q 726 1058 743 1079 l 610 906 m 274 772 q 233 754 254 751 q 203 774 213 757 q 208 815 193 792 l 308 964 q 346 999 325 989 q 392 1010 367 1010 q 438 999 417 1010 q 475 964 458 989 l 575 815 q 581 774 590 792 q 551 754 572 757 q 511 772 531 751 l 392 911 l 274 772 z "},"ệ":{"ha":746,"x_min":58,"x_max":692,"o":"m 417 -12 q 154 81 250 -12 q 58 338 58 175 q 101 522 58 442 q 218 646 143 601 q 390 690 293 690 q 611 601 531 690 q 692 354 692 511 q 636 307 692 307 l 194 307 q 418 96 210 96 q 506 106 460 96 q 594 144 551 117 q 645 156 624 161 q 676 133 667 151 q 680 91 686 114 q 647 51 674 68 q 537 3 600 19 q 417 -12 474 -12 m 396 592 q 257 538 308 592 q 194 393 206 483 l 574 393 q 524 540 569 488 q 396 592 478 592 m 392 -276 q 314 -200 314 -276 q 392 -125 314 -125 q 471 -200 471 -125 q 392 -276 471 -276 m 582 818 q 581 775 594 793 q 546 755 568 757 q 510 775 524 753 l 392 963 l 274 775 q 238 755 260 753 q 202 775 215 757 q 201 818 189 793 l 311 1017 q 392 1068 339 1068 q 474 1017 446 1068 l 582 818 z "},"ề":{"ha":746,"x_min":58,"x_max":692,"o":"m 417 -12 q 154 81 250 -12 q 58 338 58 175 q 101 522 58 442 q 218 646 143 601 q 390 690 293 690 q 611 601 531 690 q 692 354 692 511 q 636 307 692 307 l 194 307 q 418 96 210 96 q 506 106 460 96 q 594 144 551 117 q 645 156 624 161 q 676 133 667 151 q 680 91 686 114 q 647 51 674 68 q 537 3 600 19 q 417 -12 474 -12 m 396 592 q 257 538 308 592 q 194 393 206 483 l 574 393 q 524 540 569 488 q 396 592 478 592 m 593 906 l 478 1058 q 466 1099 461 1079 q 488 1128 471 1118 q 526 1135 506 1139 q 561 1108 547 1132 l 653 949 q 656 908 665 925 q 626 890 646 892 q 593 906 607 888 m 274 772 q 233 754 254 751 q 203 774 213 757 q 208 815 193 792 l 308 964 q 346 999 325 989 q 392 1010 367 1010 q 438 999 417 1010 q 475 964 458 989 l 575 815 q 581 774 590 792 q 551 754 572 757 q 511 772 531 751 l 392 911 l 274 772 z "},"ể":{"ha":746,"x_min":58,"x_max":713,"o":"m 417 -12 q 154 81 250 -12 q 58 338 58 175 q 101 522 58 442 q 218 646 143 601 q 390 690 293 690 q 611 601 531 690 q 692 354 692 511 q 636 307 692 307 l 194 307 q 418 96 210 96 q 506 106 460 96 q 594 144 551 117 q 645 156 624 161 q 676 133 667 151 q 680 91 686 114 q 647 51 674 68 q 537 3 600 19 q 417 -12 474 -12 m 396 592 q 257 538 308 592 q 194 393 206 483 l 574 393 q 524 540 569 488 q 396 592 478 592 m 599 907 q 565 903 581 897 q 546 923 550 910 q 558 949 542 936 q 601 985 586 968 q 615 1024 615 1003 q 558 1060 615 1060 q 508 1054 533 1060 q 463 1072 471 1044 q 489 1114 453 1103 q 535 1124 510 1121 q 586 1126 560 1126 q 679 1107 646 1126 q 713 1044 713 1088 q 676 965 713 1001 q 599 907 639 928 m 274 772 q 233 754 254 751 q 203 774 213 757 q 208 815 193 792 l 308 964 q 346 999 325 989 q 392 1010 367 1010 q 438 999 417 1010 q 475 964 458 989 l 575 815 q 581 774 590 792 q 551 754 572 757 q 511 772 531 751 l 392 911 l 274 772 z "},"ễ":{"ha":746,"x_min":58,"x_max":692,"o":"m 417 -12 q 154 81 250 -12 q 58 338 58 175 q 101 522 58 442 q 218 646 143 601 q 390 690 293 690 q 611 601 531 690 q 692 354 692 511 q 636 307 692 307 l 194 307 q 418 96 210 96 q 506 106 460 96 q 594 144 551 117 q 645 156 624 161 q 676 133 667 151 q 680 91 686 114 q 647 51 674 68 q 537 3 600 19 q 417 -12 474 -12 m 396 592 q 257 538 308 592 q 194 393 206 483 l 574 393 q 524 540 569 488 q 396 592 478 592 m 200 985 q 174 998 183 986 q 171 1031 165 1010 q 218 1108 183 1082 q 301 1135 253 1135 q 369 1117 339 1135 q 425 1083 399 1100 q 479 1067 451 1067 q 518 1076 501 1067 q 542 1107 535 1085 q 585 1136 553 1139 q 610 1123 601 1135 q 614 1090 619 1111 q 567 1013 601 1039 q 483 988 532 988 q 415 1004 444 988 q 358 1038 385 1021 q 306 1054 332 1054 q 267 1045 283 1054 q 243 1014 250 1036 q 200 985 232 982 m 264 767 q 226 755 244 750 q 202 776 208 760 q 210 810 196 792 l 303 919 q 344 952 322 943 q 392 961 367 961 q 440 952 418 961 q 481 919 463 943 l 574 810 q 581 775 588 792 q 558 753 575 758 q 519 767 540 749 l 392 876 l 264 767 z "},"ȅ":{"ha":746,"x_min":58,"x_max":692,"o":"m 417 -12 q 154 81 250 -12 q 58 338 58 175 q 101 522 58 442 q 218 646 143 601 q 390 690 293 690 q 611 601 531 690 q 692 354 692 511 q 636 307 692 307 l 194 307 q 418 96 210 96 q 506 106 460 96 q 594 144 551 117 q 645 156 624 161 q 676 133 667 151 q 680 91 686 114 q 647 51 674 68 q 537 3 600 19 q 417 -12 474 -12 m 396 592 q 257 538 308 592 q 194 393 206 483 l 574 393 q 524 540 569 488 q 396 592 478 592 m 256 779 l 164 996 q 163 1042 151 1024 q 197 1067 175 1061 q 241 1062 219 1072 q 271 1022 263 1051 l 329 801 q 319 765 335 776 q 285 756 304 753 q 256 779 265 758 m 446 779 l 354 996 q 353 1042 342 1024 q 388 1067 365 1061 q 433 1062 411 1072 q 461 1022 454 1051 l 518 801 q 510 765 525 776 q 475 756 494 753 q 446 779 456 758 z "},"ë":{"ha":746,"x_min":58,"x_max":692,"o":"m 417 -12 q 154 81 250 -12 q 58 338 58 175 q 101 522 58 442 q 218 646 143 601 q 390 690 293 690 q 611 601 531 690 q 692 354 692 511 q 636 307 692 307 l 194 307 q 418 96 210 96 q 506 106 460 96 q 594 144 551 117 q 645 156 624 161 q 676 133 667 151 q 680 91 686 114 q 647 51 674 68 q 537 3 600 19 q 417 -12 474 -12 m 396 592 q 257 538 308 592 q 194 393 206 483 l 574 393 q 524 540 569 488 q 396 592 478 592 m 518 833 q 443 908 443 833 q 518 981 443 981 q 592 908 592 981 q 518 833 592 833 m 267 833 q 192 908 192 833 q 212 962 192 943 q 267 981 232 981 q 342 908 342 981 q 267 833 342 833 z "},"ė":{"ha":746,"x_min":58,"x_max":692,"o":"m 417 -12 q 154 81 250 -12 q 58 338 58 175 q 101 522 58 442 q 218 646 143 601 q 390 690 293 690 q 611 601 531 690 q 692 354 692 511 q 636 307 692 307 l 194 307 q 418 96 210 96 q 506 106 460 96 q 594 144 551 117 q 645 156 624 161 q 676 133 667 151 q 680 91 686 114 q 647 51 674 68 q 537 3 600 19 q 417 -12 474 -12 m 396 592 q 257 538 308 592 q 194 393 206 483 l 574 393 q 524 540 569 488 q 396 592 478 592 m 392 833 q 314 910 314 833 q 392 983 314 983 q 471 910 471 983 q 392 833 471 833 z "},"ẹ":{"ha":746,"x_min":58,"x_max":692,"o":"m 417 -12 q 154 81 250 -12 q 58 338 58 175 q 101 522 58 442 q 218 646 143 601 q 390 690 293 690 q 611 601 531 690 q 692 354 692 511 q 636 307 692 307 l 194 307 q 418 96 210 96 q 506 106 460 96 q 594 144 551 117 q 645 156 624 161 q 676 133 667 151 q 680 91 686 114 q 647 51 674 68 q 537 3 600 19 q 417 -12 474 -12 m 396 592 q 257 538 308 592 q 194 393 206 483 l 574 393 q 524 540 569 488 q 396 592 478 592 m 392 -276 q 314 -200 314 -276 q 392 -125 314 -125 q 471 -200 471 -125 q 392 -276 471 -276 z "},"è":{"ha":746,"x_min":58,"x_max":692,"o":"m 417 -12 q 154 81 250 -12 q 58 338 58 175 q 101 522 58 442 q 218 646 143 601 q 390 690 293 690 q 611 601 531 690 q 692 354 692 511 q 636 307 692 307 l 194 307 q 418 96 210 96 q 506 106 460 96 q 594 144 551 117 q 645 156 624 161 q 676 133 667 151 q 680 91 686 114 q 647 51 674 68 q 537 3 600 19 q 417 -12 474 -12 m 396 592 q 257 538 308 592 q 194 393 206 483 l 574 393 q 524 540 569 488 q 396 592 478 592 m 339 775 l 200 982 q 192 1027 185 1006 q 222 1060 200 1049 q 267 1068 243 1072 q 304 1036 290 1064 l 415 818 q 414 775 428 793 q 376 755 400 757 q 339 775 353 753 z "},"ẻ":{"ha":746,"x_min":58,"x_max":692,"o":"m 417 -12 q 154 81 250 -12 q 58 338 58 175 q 101 522 58 442 q 218 646 143 601 q 390 690 293 690 q 611 601 531 690 q 692 354 692 511 q 636 307 692 307 l 194 307 q 418 96 210 96 q 506 106 460 96 q 594 144 551 117 q 645 156 624 161 q 676 133 667 151 q 680 91 686 114 q 647 51 674 68 q 537 3 600 19 q 417 -12 474 -12 m 396 592 q 257 538 308 592 q 194 393 206 483 l 574 393 q 524 540 569 488 q 396 592 478 592 m 392 757 q 347 792 347 757 q 360 845 347 824 q 388 882 372 867 q 417 911 404 897 q 429 944 429 925 q 369 982 429 982 q 342 980 357 982 q 313 972 328 978 q 263 988 274 960 q 289 1040 249 1024 q 340 1054 313 1050 q 399 1058 368 1058 q 503 1033 465 1058 q 540 961 540 1007 q 524 906 540 926 q 488 869 508 885 q 452 835 468 853 q 436 789 436 817 q 392 757 436 757 z "},"ȇ":{"ha":746,"x_min":58,"x_max":692,"o":"m 417 -12 q 154 81 250 -12 q 58 338 58 175 q 101 522 58 442 q 218 646 143 601 q 390 690 293 690 q 611 601 531 690 q 692 354 692 511 q 636 307 692 307 l 194 307 q 418 96 210 96 q 506 106 460 96 q 594 144 551 117 q 645 156 624 161 q 676 133 667 151 q 680 91 686 114 q 647 51 674 68 q 537 3 600 19 q 417 -12 474 -12 m 396 592 q 257 538 308 592 q 194 393 206 483 l 574 393 q 524 540 569 488 q 396 592 478 592 m 211 761 q 181 776 193 761 q 174 814 169 790 q 242 976 186 914 q 392 1038 299 1038 q 541 976 485 1038 q 610 814 597 914 q 602 776 614 790 q 572 761 590 761 q 525 803 532 760 q 479 913 515 876 q 392 949 443 949 q 304 913 340 949 q 258 803 268 876 q 211 761 251 760 z "},"ē":{"ha":746,"x_min":58,"x_max":692,"o":"m 417 -12 q 154 81 250 -12 q 58 338 58 175 q 101 522 58 442 q 218 646 143 601 q 390 690 293 690 q 611 601 531 690 q 692 354 692 511 q 636 307 692 307 l 194 307 q 418 96 210 96 q 506 106 460 96 q 594 144 551 117 q 645 156 624 161 q 676 133 667 151 q 680 91 686 114 q 647 51 674 68 q 537 3 600 19 q 417 -12 474 -12 m 396 592 q 257 538 308 592 q 194 393 206 483 l 574 393 q 524 540 569 488 q 396 592 478 592 m 222 863 q 175 907 175 863 q 222 951 175 951 l 563 951 q 608 907 608 951 q 563 863 608 863 l 222 863 z "},"ḗ":{"ha":746,"x_min":58,"x_max":692,"o":"m 417 -12 q 154 81 250 -12 q 58 338 58 175 q 101 522 58 442 q 218 646 143 601 q 390 690 293 690 q 611 601 531 690 q 692 354 692 511 q 636 307 692 307 l 194 307 q 418 96 210 96 q 506 106 460 96 q 594 144 551 117 q 645 156 624 161 q 676 133 667 151 q 680 91 686 114 q 647 51 674 68 q 537 3 600 19 q 417 -12 474 -12 m 396 592 q 257 538 308 592 q 194 393 206 483 l 574 393 q 524 540 569 488 q 396 592 478 592 m 436 928 q 399 911 419 908 q 367 931 378 914 q 369 971 356 947 l 451 1111 q 490 1142 467 1138 q 532 1135 513 1146 q 558 1103 551 1124 q 544 1060 564 1082 l 436 928 m 225 790 q 174 835 174 790 q 225 879 174 879 l 558 879 q 610 835 610 879 q 558 790 610 790 l 225 790 z "},"ḕ":{"ha":746,"x_min":58,"x_max":692,"o":"m 417 -12 q 154 81 250 -12 q 58 338 58 175 q 101 522 58 442 q 218 646 143 601 q 390 690 293 690 q 611 601 531 690 q 692 354 692 511 q 636 307 692 307 l 194 307 q 418 96 210 96 q 506 106 460 96 q 594 144 551 117 q 645 156 624 161 q 676 133 667 151 q 680 91 686 114 q 647 51 674 68 q 537 3 600 19 q 417 -12 474 -12 m 396 592 q 257 538 308 592 q 194 393 206 483 l 574 393 q 524 540 569 488 q 396 592 478 592 m 347 928 l 239 1060 q 226 1103 219 1082 q 251 1135 232 1124 q 294 1142 271 1146 q 332 1111 317 1138 l 414 971 q 417 931 428 947 q 385 911 406 914 q 347 928 364 908 m 225 790 q 174 835 174 790 q 225 879 174 879 l 558 879 q 610 835 610 879 q 558 790 610 790 l 225 790 z "},"ę":{"ha":746,"x_min":58,"x_max":692,"o":"m 417 -12 q 154 81 250 -12 q 58 338 58 175 q 101 522 58 442 q 218 646 143 601 q 390 690 293 690 q 611 601 531 690 q 692 354 692 511 q 636 307 692 307 l 194 307 q 418 96 210 96 q 506 106 460 96 q 594 144 551 117 q 645 156 624 161 q 676 133 667 151 q 680 91 686 114 q 647 51 674 68 q 537 3 600 19 q 417 -12 474 -12 m 396 592 q 257 538 308 592 q 194 393 206 483 l 574 393 q 524 540 569 488 q 396 592 478 592 m 476 -269 q 364 -231 406 -269 q 322 -129 322 -193 q 359 -24 322 -72 q 460 54 396 25 l 504 0 q 444 -44 471 -14 q 417 -114 417 -74 q 439 -170 417 -151 q 496 -189 461 -189 q 540 -182 518 -189 q 582 -189 569 -174 q 589 -226 594 -204 q 561 -257 583 -247 q 518 -267 540 -264 q 476 -269 496 -269 z "},"ẽ":{"ha":746,"x_min":58,"x_max":692,"o":"m 417 -12 q 154 81 250 -12 q 58 338 58 175 q 101 522 58 442 q 218 646 143 601 q 390 690 293 690 q 611 601 531 690 q 692 354 692 511 q 636 307 692 307 l 194 307 q 418 96 210 96 q 506 106 460 96 q 594 144 551 117 q 645 156 624 161 q 676 133 667 151 q 680 91 686 114 q 647 51 674 68 q 537 3 600 19 q 417 -12 474 -12 m 396 592 q 257 538 308 592 q 194 393 206 483 l 574 393 q 524 540 569 488 q 396 592 478 592 m 169 811 q 143 824 153 813 q 138 857 133 835 q 185 967 149 918 q 290 1015 221 1015 q 350 1000 324 1015 q 399 965 376 985 q 443 931 421 946 q 492 915 465 915 q 544 938 522 915 q 572 996 565 960 q 614 1024 578 1025 q 640 1013 631 1024 q 646 978 650 1001 q 599 869 635 917 q 493 821 563 821 q 433 835 460 821 q 384 869 407 850 q 339 904 361 889 q 292 919 317 919 q 240 898 261 919 q 211 839 218 876 q 169 811 206 810 z "},"ə":{"ha":746,"x_min":54,"x_max":688,"o":"m 360 -12 q 134 76 214 -12 q 54 324 54 164 q 110 369 54 369 l 553 369 q 328 581 536 581 q 241 569 288 581 q 151 531 194 558 q 101 519 122 514 q 70 544 79 525 q 67 586 61 564 q 99 625 74 608 q 209 674 146 657 q 329 690 272 690 q 592 596 496 690 q 688 340 688 501 q 646 155 688 235 q 531 31 604 75 q 360 -12 457 -12 m 357 86 q 492 139 442 86 q 551 283 542 192 l 178 283 q 227 137 183 188 q 357 86 271 86 z "},"ʒ":{"ha":700,"x_min":10,"x_max":658,"o":"m 319 -262 q 47 -199 154 -262 q 15 -161 21 -183 q 19 -119 10 -139 q 49 -92 29 -100 q 93 -99 68 -85 q 306 -154 181 -154 q 465 -106 411 -154 q 518 31 518 -58 q 465 155 518 111 q 313 199 413 199 l 207 199 q 167 226 172 199 q 186 279 161 253 l 454 565 l 96 565 q 36 622 36 565 q 96 678 36 678 l 564 678 q 611 659 596 678 q 624 614 626 640 q 599 564 621 588 l 350 299 l 360 299 q 579 230 500 299 q 658 39 658 161 q 567 -182 658 -101 q 319 -262 476 -262 z "}}}
